<svg xmlns="http://www.w3.org/2000/svg" viewBox="0 0 500 500"><g id="freepik--background-complete--inject-467"><path d="M414.79,332.89l13.36-.28,6.58-.11c2.19-.05,4.36,0,6.54-.06l-.44.45-.06-11.19.5.5L428,322.14c-4.41,0-8.82-.12-13.24-.17l.28-.27c0,1.83-.09,3.67-.14,5.54Zm0,0-.14-5.54c0-1.86-.11-3.75-.13-5.65v-.27h.27c4.42-.05,8.83-.16,13.24-.17l13.24-.06h.5v.5l0,11.19v.45h-.45c-2.23,0-4.47,0-6.69-.06l-6.66-.11Z" style="fill:#ebebeb"></path><path d="M429.56,347l13.36-.28,6.58-.11c2.19-.05,4.36,0,6.54-.06l-.44.45-.05-11.19.49.5-13.24-.06c-4.41,0-8.82-.12-13.24-.17l.28-.27c0,1.83-.09,3.67-.13,5.54Zm0,0-.14-5.54c0-1.86-.11-3.75-.13-5.65v-.27h.27c4.42-.05,8.83-.16,13.24-.17l13.24-.06h.51v.5L456.49,347v.45H456c-2.23,0-4.46,0-6.69-.06l-6.66-.11Z" style="fill:#ebebeb"></path><rect x="400.02" y="335.81" width="26.48" height="11.19" transform="translate(826.52 682.81) rotate(180)" style="fill:#ebebeb"></rect><path d="M312.24,128.35l13.35-.28,6.58-.11c2.19,0,4.37,0,6.55-.06l-.45.45,0-11.19.5.5-13.24-.07c-4.42,0-8.83-.11-13.24-.16l.27-.27c0,1.83-.09,3.67-.13,5.53Zm0,0-.15-5.54c0-1.87-.11-3.76-.13-5.65v-.27h.28c4.41,0,8.82-.16,13.24-.16l13.24-.06h.5v.51l-.06,11.19v.45h-.44c-2.23,0-4.47,0-6.7,0l-6.66-.12Z" style="fill:#ebebeb"></path><path d="M327,142.46l13.35-.28,6.58-.11c2.19,0,4.37,0,6.55-.06l-.45.45L353,131.27l.5.5-13.24-.07c-4.41,0-8.83-.11-13.24-.16l.27-.27c0,1.83-.08,3.67-.13,5.53Zm0,0-.14-5.54c-.05-1.87-.12-3.76-.13-5.65V131H327c4.41-.05,8.83-.16,13.24-.16l13.24-.06h.5v.51l-.06,11.19v.44h-.44c-2.23,0-4.47,0-6.7-.05l-6.66-.12Z" style="fill:#ebebeb"></path><rect x="297.46" y="131.27" width="26.48" height="11.19" transform="translate(621.41 273.72) rotate(180)" style="fill:#ebebeb"></rect><rect x="58.73" y="335.81" width="26.48" height="11.19" transform="translate(143.93 682.81) rotate(180)" style="fill:#ebebeb"></rect><rect x="58.73" y="44.58" width="26.48" height="11.19" transform="translate(143.93 100.34) rotate(180)" style="fill:#ebebeb"></rect><path d="M44,69.88l13.35-.28,6.58-.12c2.19,0,4.36,0,6.55,0l-.45.45,0-11.19.5.49L57.2,59.12C52.78,59.12,48.37,59,44,59l.27-.27c0,1.83-.09,3.67-.13,5.53Zm0,0-.15-5.54c0-1.87-.11-3.76-.13-5.65v-.27H44c4.41,0,8.82-.16,13.24-.16l13.24-.06h.5v.51l-.06,11.19v.44h-.44c-2.24,0-4.47,0-6.7,0l-6.66-.12Z" style="fill:#ebebeb"></path><path d="M429.56,55.78l13.36-.28,6.58-.11c2.19,0,4.36,0,6.54-.06l-.44.45-.05-11.19.49.5L442.8,45c-4.41,0-8.82-.11-13.24-.16l.28-.27c0,1.83-.09,3.67-.13,5.53Zm0,0-.14-5.54c0-1.87-.11-3.75-.13-5.65v-.27h.27c4.42-.05,8.83-.15,13.24-.16L456,44.09h.51v.5l-.05,11.19v.45H456c-2.23,0-4.46,0-6.69,0l-6.66-.11Z" style="fill:#ebebeb"></path><rect x="255.8" y="294.42" width="26.48" height="11.19" style="fill:#ebebeb"></rect><path d="M267.51,280.31l-13.36.28-6.57.11c-2.19.05-4.37,0-6.55.06l.45-.45.05,11.19-.5-.5,13.24.07c4.41,0,8.83.11,13.24.16l-.27.27c0-1.83.08-3.67.13-5.53Zm0,0,.14,5.54c.05,1.87.11,3.75.13,5.65v.27h-.28c-4.41.05-8.83.15-13.24.16L241,292h-.5v-.5l.05-11.19v-.45H241c2.23,0,4.47,0,6.69.05l6.67.11Z" style="fill:#ebebeb"></path><rect x="103.21" y="49.81" width="118.54" height="79.88" style="fill:#fff"></rect><path d="M222.25,130.19H102.71V49.31H222.25Zm-118.54-1H221.25V50.31H103.71Z" style="fill:#ebebeb"></path><path d="M114.66,55.86a2.73,2.73,0,1,1-2.73-2.73A2.73,2.73,0,0,1,114.66,55.86Z" style="fill:#37474f"></path><path d="M125.81,55.86a2.73,2.73,0,1,1-2.73-2.73A2.73,2.73,0,0,1,125.81,55.86Z" style="fill:#ebebeb"></path><path d="M137,55.86a2.73,2.73,0,1,1-2.73-2.73A2.74,2.74,0,0,1,137,55.86Z" style="fill:#FFC727"></path><rect x="103.21" y="61.35" width="118.54" height="1" style="fill:#ebebeb"></rect><rect x="421.27" width="1" height="97.88" style="fill:#c7c7c7"></rect><polygon points="380.37 137.79 383.7 145.11 459.85 145.11 463.17 137.79 430.75 115.35 412.79 115.35 380.37 137.79" style="fill:#ebebeb"></polygon><polygon points="410.54 93.73 412.79 115.35 430.75 115.35 433 93.73 410.54 93.73" style="fill:#dbdbdb"></polygon><polygon points="380.38 137.79 383.71 145.12 459.86 145.12 463.18 137.79 380.38 137.79" style="fill:#dbdbdb"></polygon><rect x="337.81" width="1" height="55.23" style="fill:#c7c7c7"></rect><polygon points="296.91 95.14 300.24 102.46 376.38 102.46 379.7 95.14 347.29 72.7 329.32 72.7 296.91 95.14" style="fill:#ebebeb"></polygon><polygon points="327.07 51.08 329.32 72.7 347.29 72.7 349.54 51.08 327.07 51.08" style="fill:#dbdbdb"></polygon><polygon points="296.91 95.14 300.24 102.46 376.39 102.46 379.71 95.14 296.91 95.14" style="fill:#dbdbdb"></polygon></g><g id="freepik--Screens--inject-467"><rect x="279.95" y="159.99" width="182.8" height="123.67" style="fill:#263238"></rect><path d="M362.06,231.12a13.15,13.15,0,1,1,18.59,0A13.15,13.15,0,0,1,362.06,231.12Z" style="fill:#FFC727"></path><polygon points="366.8 226.95 366.8 216.69 377.35 221.82 366.8 226.95" style="fill:#fff"></polygon><path d="M437.8,273.62H303.59a.86.86,0,0,0,0,1.72H437.8a.86.86,0,1,0,0-1.72Z" style="fill:#c7c7c7"></path><path d="M303.59,273.62a.86.86,0,0,0,0,1.72h68.09v-1.72Z" style="fill:#FFC727"></path><path d="M370,274.48a1.72,1.72,0,1,1,1.72,1.72A1.72,1.72,0,0,1,370,274.48Z" style="fill:#FFC727"></path><polygon points="451.95 271.7 451.95 272.49 451.95 274.2 452.74 274.2 452.74 272.49 454.45 272.49 454.45 271.7 452.74 271.7 451.95 271.7" style="fill:#fff"></polygon><polygon points="457.1 271.7 455.39 271.7 455.39 272.49 457.1 272.49 457.1 274.2 457.89 274.2 457.89 272.49 457.89 271.7 457.1 271.7" style="fill:#fff"></polygon><polygon points="457.1 276.69 455.39 276.69 455.39 277.49 457.1 277.49 457.89 277.49 457.89 276.69 457.89 274.98 457.1 274.98 457.1 276.69" style="fill:#fff"></polygon><polygon points="452.74 274.98 451.95 274.98 451.95 276.69 451.95 277.49 452.74 277.49 454.45 277.49 454.45 276.69 452.74 276.69 452.74 274.98" style="fill:#fff"></polygon><polygon points="286.21 271.98 286.21 276.99 290.25 274.48 286.21 271.98" style="fill:#fff"></polygon><path d="M292.44,274.55a1,1,0,0,1,.16-.56.5.5,0,0,1,.89,0,1.08,1.08,0,0,1,0,1.13.5.5,0,0,1-.89,0A1,1,0,0,1,292.44,274.55Zm.94,0a.84.84,0,0,0-.11-.42c-.07-.1-.15-.15-.22-.14a.26.26,0,0,0-.23.14.75.75,0,0,0-.11.42.78.78,0,0,0,.11.43.25.25,0,0,0,.45,0A.88.88,0,0,0,293.38,274.55Z" style="fill:#fff"></path><path d="M294.14,274.55a1,1,0,0,1,.16-.56.49.49,0,0,1,.88,0,1,1,0,0,1,.16.56,1,1,0,0,1-.16.57.49.49,0,0,1-.88,0A1,1,0,0,1,294.14,274.55Zm.94,0a.75.75,0,0,0-.12-.42c-.07-.1-.14-.15-.22-.14s-.15,0-.22.14a.75.75,0,0,0-.12.42.78.78,0,0,0,.12.43.28.28,0,0,0,.22.14A.27.27,0,0,0,295,275,.78.78,0,0,0,295.08,274.55Z" style="fill:#fff"></path><path d="M296.06,274.1a.18.18,0,1,1-.18.18A.18.18,0,0,1,296.06,274.1Zm0,.95a.18.18,0,0,1,.18.18.18.18,0,0,1-.36,0A.18.18,0,0,1,296.06,275.05Z" style="fill:#fff"></path><path d="M296.41,274.55a1,1,0,0,1,.16-.56.52.52,0,0,1,.44-.27.53.53,0,0,1,.44.27,1.08,1.08,0,0,1,0,1.13.56.56,0,0,1-.44.27.54.54,0,0,1-.44-.27A1,1,0,0,1,296.41,274.55Zm.94,0a.75.75,0,0,0-.12-.42c-.07-.1-.15-.15-.22-.14s-.15,0-.23.14a.84.84,0,0,0-.11.42.88.88,0,0,0,.11.43.31.31,0,0,0,.23.14.28.28,0,0,0,.22-.14A.78.78,0,0,0,297.35,274.55Z" style="fill:#fff"></path><path d="M298.1,274.55a1,1,0,0,1,.16-.56.5.5,0,0,1,.89,0,1.08,1.08,0,0,1,0,1.13.5.5,0,0,1-.89,0A1,1,0,0,1,298.1,274.55Zm.94,0a.84.84,0,0,0-.11-.42c-.07-.1-.15-.15-.22-.14a.26.26,0,0,0-.23.14.75.75,0,0,0-.11.42.78.78,0,0,0,.11.43.25.25,0,0,0,.45,0A.88.88,0,0,0,299,274.55Z" style="fill:#fff"></path><path d="M442.34,274.55a1,1,0,0,1,.16-.56.53.53,0,0,1,.44-.27.52.52,0,0,1,.44.27,1,1,0,0,1,.16.56,1,1,0,0,1-.16.57.54.54,0,0,1-.44.27.56.56,0,0,1-.44-.27A1,1,0,0,1,442.34,274.55Zm.94,0a.84.84,0,0,0-.11-.42.26.26,0,0,0-.23-.14c-.07,0-.15,0-.22.14a.75.75,0,0,0-.12.42.78.78,0,0,0,.12.43.25.25,0,0,0,.45,0A.88.88,0,0,0,443.28,274.55Z" style="fill:#fff"></path><path d="M444.91,274.38a.58.58,0,0,1,.18.42.62.62,0,0,1-.59.59h0a.55.55,0,0,1-.41-.18.12.12,0,0,1,0-.19.14.14,0,0,1,.19,0,.29.29,0,0,0,.23.1.34.34,0,0,0,.32-.32.29.29,0,0,0-.1-.23.27.27,0,0,0-.22-.09.29.29,0,0,0-.23.09.14.14,0,0,1-.19,0l0,0h0v0h0v0l.07-.62a.15.15,0,0,1,.06-.09h0l.06,0h.7a.14.14,0,0,1,.14.14.13.13,0,0,1-.14.13h-.58l0,.24a.41.41,0,0,1,.16,0A.54.54,0,0,1,444.91,274.38Z" style="fill:#fff"></path><path d="M445.71,274.1a.18.18,0,1,1-.18.18A.18.18,0,0,1,445.71,274.1Zm0,.95a.18.18,0,0,1,.18.18.18.18,0,0,1-.36,0A.18.18,0,0,1,445.71,275.05Z" style="fill:#fff"></path><path d="M447,274.38a.58.58,0,0,1,.17.41.63.63,0,0,1-.17.42.59.59,0,0,1-.42.18.58.58,0,0,1-.42-.18.13.13,0,0,1,.19-.19.32.32,0,0,0,.23.09.31.31,0,0,0,.22-.09.29.29,0,0,0,.1-.23.34.34,0,0,0-.32-.32.12.12,0,0,1-.1,0h0a.13.13,0,0,1,0-.19l.25-.25h-.39a.13.13,0,0,1-.13-.14.13.13,0,0,1,.13-.13h.7a.13.13,0,0,1,.14.13.14.14,0,0,1,0,.07l0,0-.3.31A.66.66,0,0,1,447,274.38Z" style="fill:#fff"></path><path d="M448.38,274.38a.61.61,0,0,1,.17.42.58.58,0,0,1-.17.41.59.59,0,0,1-.42.18h0a.57.57,0,0,1-.41-.18.13.13,0,0,1,.19-.19.29.29,0,0,0,.23.1.32.32,0,0,0,.23-.1.31.31,0,0,0,.09-.22.32.32,0,0,0-.09-.23.31.31,0,0,0-.23-.09.29.29,0,0,0-.23.09.14.14,0,0,1-.19,0l0,0h0v0h0v0l.07-.62a.15.15,0,0,1,.06-.09h0l.06,0h.7a.14.14,0,0,1,.14.14.13.13,0,0,1-.14.13h-.58l0,.24a.44.44,0,0,1,.16,0A.58.58,0,0,1,448.38,274.38Z" style="fill:#fff"></path><path d="M436.77,173a3.86,3.86,0,0,1-1.2.5,4.16,4.16,0,1,1,1.2-.5Z" style="fill:#a6a6a6"></path><path d="M435.85,168.92a1.27,1.27,0,1,1-1.27-1.27A1.27,1.27,0,0,1,435.85,168.92Z" style="fill:#fff"></path><path d="M436.77,172.43V173a3.86,3.86,0,0,1-1.2.5,4.14,4.14,0,0,1-3.19-.5v-.52a2.2,2.2,0,1,1,4.39,0Z" style="fill:#fff"></path><rect x="448.07" y="166.19" width="5.56" height="1.09" style="fill:#a6a6a6"></rect><rect x="448.07" y="168.4" width="5.56" height="1.09" style="fill:#a6a6a6"></rect><rect x="448.07" y="170.62" width="5.56" height="1.09" style="fill:#a6a6a6"></rect><rect x="289.07" y="166.91" width="110.37" height="2.4" style="fill:#a6a6a6"></rect><rect x="289.07" y="171.67" width="49.67" height="1.88" style="fill:#c7c7c7"></rect><rect x="43.32" y="79.7" width="182.8" height="123.67" style="fill:#ebebeb"></rect><path d="M67,114.12a11,11,0,1,0,8.6-8.6A11,11,0,0,0,67,114.12Z" style="fill:#dbdbdb"></path><polygon points="129.32 177.27 226.12 177.27 177.72 129.48 129.32 177.27" style="fill:#fff"></polygon><polygon points="92.18 177.31 172.1 177.31 132.14 146.19 92.18 177.31" style="fill:#dbdbdb"></polygon><rect x="43.32" y="177.25" width="182.8" height="26.11" style="fill:#dbdbdb"></rect><rect x="43.32" y="188.47" width="182.8" height="14.89" style="fill:#c7c7c7"></rect><rect x="43.32" y="79.7" width="182.8" height="16.71" style="fill:#c7c7c7"></rect><circle cx="134.72" cy="141.53" r="16.6" transform="translate(-60.62 136.72) rotate(-45)" style="opacity:0.2"></circle><path d="M201.16,195H67a.86.86,0,0,0,0,1.72H201.16a.86.86,0,1,0,0-1.72Z" style="fill:#a6a6a6"></path><path d="M67,195a.86.86,0,0,0,0,1.72h91.8V195Z" style="fill:#fff;opacity:0.8"></path><path d="M157,195.81a1.72,1.72,0,1,1,1.72,1.72A1.72,1.72,0,0,1,157,195.81Z" style="fill:#fff"></path><polygon points="215.32 193.02 215.32 193.81 215.32 195.53 216.11 195.53 216.11 193.81 217.82 193.81 217.82 193.02 216.11 193.02 215.32 193.02" style="fill:#a6a6a6"></polygon><polygon points="220.47 193.02 218.76 193.02 218.76 193.81 220.47 193.81 220.47 195.53 221.26 195.53 221.26 193.81 221.26 193.02 220.47 193.02" style="fill:#a6a6a6"></polygon><polygon points="220.47 198.02 218.76 198.02 218.76 198.81 220.47 198.81 221.26 198.81 221.26 198.02 221.26 196.31 220.47 196.31 220.47 198.02" style="fill:#a6a6a6"></polygon><polygon points="216.11 196.31 215.32 196.31 215.32 198.02 215.32 198.81 216.11 198.81 217.82 198.81 217.82 198.02 216.11 198.02 216.11 196.31" style="fill:#a6a6a6"></polygon><polygon points="49.58 193.3 49.58 198.31 53.62 195.81 49.58 193.3" style="fill:#a6a6a6"></polygon><path d="M55.81,195.88a1,1,0,0,1,.16-.57.56.56,0,0,1,.44-.27.54.54,0,0,1,.44.27,1,1,0,0,1,.16.57,1,1,0,0,1-.16.57.53.53,0,0,1-.44.26.54.54,0,0,1-.44-.26A1.08,1.08,0,0,1,55.81,195.88Zm.94,0a.81.81,0,0,0-.12-.43.25.25,0,0,0-.22-.14.28.28,0,0,0-.22.14.81.81,0,0,0-.12.43.75.75,0,0,0,.12.42.3.3,0,0,0,.22.15.27.27,0,0,0,.22-.15A.75.75,0,0,0,56.75,195.88Z" style="fill:#a6a6a6"></path><path d="M57.5,195.88a1,1,0,0,1,.17-.57.54.54,0,0,1,.44-.27.56.56,0,0,1,.44.27,1,1,0,0,1,.16.57,1.08,1.08,0,0,1-.16.57.54.54,0,0,1-.44.26.53.53,0,0,1-.44-.26A1.09,1.09,0,0,1,57.5,195.88Zm.94,0a.81.81,0,0,0-.11-.43.25.25,0,0,0-.45,0,.91.91,0,0,0-.11.43.84.84,0,0,0,.11.42.24.24,0,0,0,.45,0A.75.75,0,0,0,58.44,195.88Z" style="fill:#a6a6a6"></path><path d="M59.43,195.42a.19.19,0,0,1,.18.18.19.19,0,0,1-.18.18.18.18,0,0,1-.18-.18A.19.19,0,0,1,59.43,195.42Zm0,1a.18.18,0,0,1,0,.36.18.18,0,1,1,0-.36Z" style="fill:#a6a6a6"></path><path d="M59.77,195.88a1,1,0,0,1,.16-.57.5.5,0,0,1,.89,0,1,1,0,0,1,.16.57,1.08,1.08,0,0,1-.16.57.51.51,0,0,1-.89,0A1.08,1.08,0,0,1,59.77,195.88Zm.94,0a.81.81,0,0,0-.11-.43.25.25,0,0,0-.45,0,.81.81,0,0,0-.11.43.75.75,0,0,0,.11.42.24.24,0,0,0,.45,0A.75.75,0,0,0,60.71,195.88Z" style="fill:#a6a6a6"></path><path d="M61.47,195.88a1,1,0,0,1,.16-.57.49.49,0,0,1,.88,0,1,1,0,0,1,.16.57,1.08,1.08,0,0,1-.16.57.5.5,0,0,1-.88,0A1,1,0,0,1,61.47,195.88Zm.94,0a.81.81,0,0,0-.12-.43.25.25,0,0,0-.22-.14.28.28,0,0,0-.22.14.81.81,0,0,0-.12.43.75.75,0,0,0,.12.42.3.3,0,0,0,.22.15.27.27,0,0,0,.22-.15A.75.75,0,0,0,62.41,195.88Z" style="fill:#a6a6a6"></path><path d="M205.71,195.88a1,1,0,0,1,.16-.57.54.54,0,0,1,.44-.27.56.56,0,0,1,.44.27,1,1,0,0,1,.16.57,1.08,1.08,0,0,1-.16.57.54.54,0,0,1-.44.26.53.53,0,0,1-.44-.26A1,1,0,0,1,205.71,195.88Zm.94,0a.81.81,0,0,0-.12-.43.28.28,0,0,0-.22-.14.31.31,0,0,0-.23.14.91.91,0,0,0-.11.43.84.84,0,0,0,.11.42.33.33,0,0,0,.23.15.3.3,0,0,0,.22-.15A.75.75,0,0,0,206.65,195.88Z" style="fill:#a6a6a6"></path><path d="M208.28,195.7a.57.57,0,0,1,.17.42.63.63,0,0,1-.17.42.61.61,0,0,1-.42.17h0a.63.63,0,0,1-.42-.17.14.14,0,0,1,0-.19.12.12,0,0,1,.19,0,.35.35,0,0,0,.23.09.33.33,0,0,0,.23-.09.35.35,0,0,0,.09-.23.31.31,0,0,0-.32-.32.35.35,0,0,0-.23.09.14.14,0,0,1-.19,0l0,0h0v0h0a0,0,0,0,1,0,0l.07-.62a.11.11,0,0,1,.06-.09h0l.07,0h.7a.13.13,0,0,1,.13.14.13.13,0,0,1-.13.13h-.59l0,.24a.47.47,0,0,1,.16,0A.57.57,0,0,1,208.28,195.7Z" style="fill:#a6a6a6"></path><path d="M209.07,195.42a.19.19,0,0,1,.18.18.18.18,0,0,1-.18.18.18.18,0,0,1-.17-.18A.18.18,0,0,1,209.07,195.42Zm0,1a.18.18,0,1,1,0,.36.18.18,0,0,1,0-.36Z" style="fill:#a6a6a6"></path><path d="M210.32,195.7a.54.54,0,0,1,.17.41.57.57,0,0,1-.17.42.58.58,0,0,1-.42.18.55.55,0,0,1-.41-.18.12.12,0,0,1,0-.19.14.14,0,0,1,.19,0,.28.28,0,0,0,.22.1.29.29,0,0,0,.23-.1.33.33,0,0,0,.1-.23.32.32,0,0,0-.1-.22.33.33,0,0,0-.23-.1.09.09,0,0,1-.09,0h0a.14.14,0,0,1,0-.19l.24-.25h-.38a.14.14,0,0,1-.14-.14.13.13,0,0,1,.14-.13h.7a.13.13,0,0,1,.13.13.15.15,0,0,1,0,.07l0,0-.3.31A.52.52,0,0,1,210.32,195.7Z" style="fill:#a6a6a6"></path><path d="M211.74,195.7a.58.58,0,0,1,.18.42.6.6,0,0,1-.6.59h0a.58.58,0,0,1-.41-.17.13.13,0,0,1,.19-.19.31.31,0,0,0,.22.09.32.32,0,0,0,.23-.09.37.37,0,0,0,.1-.23.29.29,0,0,0-.1-.23.32.32,0,0,0-.23-.09.31.31,0,0,0-.22.09.14.14,0,0,1-.19,0l0,0h0v0h0v0l.07-.62a.15.15,0,0,1,.06-.09h0a.08.08,0,0,1,.06,0h.7a.14.14,0,0,1,.14.14.13.13,0,0,1-.14.13h-.59l0,.24a.39.39,0,0,1,.15,0A.55.55,0,0,1,211.74,195.7Z" style="fill:#a6a6a6"></path><rect x="127.56" y="134.29" width="4.51" height="14.48" style="fill:#fff"></rect><rect x="137.37" y="134.29" width="4.51" height="14.48" style="fill:#fff"></rect><rect x="211.79" y="85.9" width="5.56" height="1.1" style="fill:#a6a6a6"></rect><rect x="211.79" y="88.12" width="5.56" height="1.09" style="fill:#a6a6a6"></rect><rect x="211.79" y="90.33" width="5.56" height="1.1" style="fill:#a6a6a6"></rect><rect x="52.09" y="85.28" width="103.65" height="2.26" style="fill:#a6a6a6"></rect><rect x="52.09" y="89.75" width="46.64" height="1.77" style="fill:#a6a6a6"></rect><path d="M287,108.14V240.08a6.5,6.5,0,0,1-6.24,6.74H219.22a6.5,6.5,0,0,1-6.25-6.74V108.14c0-7.59,2.79-8,6.25-8h12.33c.72,0,1.3.81,1.3,1.82v.44c0,2.36,1.3,2.37,2.89,2.37h28.52c1.61,0,2.89,0,2.89-2.37V102c0-1,.58-1.82,1.31-1.82h12.33C284.24,100.18,287,101.19,287,108.14Z" style="fill:#fff"></path><path d="M280.79,247.07H219.22a6.77,6.77,0,0,1-6.5-7V108.14c0-7.61,2.82-8.21,6.5-8.21h12.33c.86,0,1.55.93,1.55,2.07v.44c0,2.12,1.05,2.12,2.64,2.12h28.52c1.59,0,2.64,0,2.64-2.12V102c0-1.16.68-2.07,1.56-2.07h12.33c3.89,0,6.49,1.39,6.49,8.21V240.08A6.76,6.76,0,0,1,280.79,247.07ZM219.22,100.43c-3.09,0-6,0-6,7.71V240.08a6.26,6.26,0,0,0,6,6.49h61.57a6.26,6.26,0,0,0,6-6.49V108.14c0-7.12-3-7.71-6-7.71H268.46c-.59,0-1.06.7-1.06,1.57v.44c0,2.62-1.6,2.62-3.14,2.62H235.74c-1.54,0-3.14,0-3.14-2.62V102c0-.85-.48-1.57-1-1.57Z" style="fill:#263238"></path><g id="freepik--u5Zjqx--inject-467"><path d="M229.42,103.14l-.12.12-.07.07a1.6,1.6,0,0,0-1.14-.48,1.56,1.56,0,0,0-1.15.48l-.07-.07-.12-.12h0l.15-.13a2.12,2.12,0,0,1,.35-.23,1.9,1.9,0,0,1,.46-.15l.23,0h.2l.16,0a1.43,1.43,0,0,1,.42.1,1.51,1.51,0,0,1,.29.13l.28.19.12.12Z" style="fill:#a6a6a6"></path><path d="M227.31,103.7l-.18-.19a1.29,1.29,0,0,1,.76-.38,1.35,1.35,0,0,1,1.16.38l-.19.19a1.07,1.07,0,0,0-.77-.32A1.1,1.1,0,0,0,227.31,103.7Z" style="fill:#a6a6a6"></path><path d="M228.67,103.89l-.19.19a.54.54,0,0,0-.39-.17.54.54,0,0,0-.4.17l-.19-.19A.82.82,0,0,1,228.67,103.89Z" style="fill:#a6a6a6"></path><circle cx="228.09" cy="104.25" r="0.17" style="fill:#a6a6a6"></circle></g><path d="M217.8,103.5a.49.49,0,1,1,.49.49A.49.49,0,0,1,217.8,103.5Z" style="fill:#a6a6a6"></path><path d="M219.35,103.5a.49.49,0,1,1,.49.49A.49.49,0,0,1,219.35,103.5Z" style="fill:#a6a6a6"></path><path d="M220.89,103.5a.49.49,0,1,1,.49.49A.49.49,0,0,1,220.89,103.5Z" style="fill:#a6a6a6"></path><path d="M222.44,103.5a.49.49,0,1,1,.49.49A.49.49,0,0,1,222.44,103.5Z" style="fill:#a6a6a6"></path><path d="M224,103.5a.5.5,0,1,1,.49.49A.49.49,0,0,1,224,103.5Z" style="fill:#a6a6a6"></path><path d="M281.47,104.57h-4v-1.85h4Zm-3.79-.2h3.59v-1.45h-3.59Z" style="fill:#a6a6a6"></path><rect x="277.81" y="103.03" width="2.58" height="1.22" style="fill:#a6a6a6"></rect><rect x="281.47" y="103.15" width="0.36" height="0.99" style="fill:#a6a6a6"></rect><rect x="221.2" y="198.42" width="57.6" height="0.29" style="fill:#a6a6a6"></rect><rect x="221.2" y="198.42" width="9.35" height="0.29" style="fill:#FFC727"></rect><rect x="221.2" y="198.42" width="9.35" height="0.29" style="opacity:0.2"></rect><path d="M231.38,198.57a.83.83,0,1,1-.83-.83A.83.83,0,0,1,231.38,198.57Z" style="fill:#FFC727"></path><path d="M221.31,200.26a.68.68,0,0,1,.12-.4.38.38,0,0,1,.31-.19.41.41,0,0,1,.32.19.75.75,0,0,1,.11.4.76.76,0,0,1-.11.41.43.43,0,0,1-.32.19.4.4,0,0,1-.31-.19A.69.69,0,0,1,221.31,200.26Zm.67,0a.53.53,0,0,0-.08-.3c-.05-.07-.11-.11-.16-.1s-.11,0-.16.1a.6.6,0,0,0,0,.6.17.17,0,0,0,.32,0A.53.53,0,0,0,222,200.26Z" style="fill:#a6a6a6"></path><path d="M222.68,199.94a.12.12,0,0,1,.12.13.12.12,0,0,1-.12.12.12.12,0,0,1-.13-.12A.13.13,0,0,1,222.68,199.94Zm0,.68a.12.12,0,0,1,.12.12.12.12,0,0,1-.12.13.13.13,0,0,1-.13-.13A.12.12,0,0,1,222.68,200.62Z" style="fill:#a6a6a6"></path><path d="M223.83,200.54a.09.09,0,0,1-.1.09h0v.13a.1.1,0,0,1-.1.1.09.09,0,0,1-.09-.1v-.13H223s0,0-.05,0a.09.09,0,0,1,0-.13l.63-.78h.17v.69h0A.09.09,0,0,1,223.83,200.54Zm-.3-.51-.34.42h.34Z" style="fill:#a6a6a6"></path><path d="M224.84,200.45a.41.41,0,1,1-.81,0,.42.42,0,0,1,.18-.34.23.23,0,0,1-.06-.16.28.28,0,0,1,.29-.28.27.27,0,0,1,.27.28.28.28,0,0,1-.05.16A.42.42,0,0,1,224.84,200.45Zm-.19,0a.21.21,0,0,0-.21-.22.22.22,0,1,0,0,.44A.21.21,0,0,0,224.65,200.45Zm-.31-.5a.09.09,0,0,0,.1.09.09.09,0,0,0,.09-.09.1.1,0,0,0-.09-.1A.1.1,0,0,0,224.34,200Z" style="fill:#a6a6a6"></path><path d="M274.8,200.34a.1.1,0,0,1,.1-.1h.32a.1.1,0,0,1,.1.1.11.11,0,0,1-.1.1h-.32A.11.11,0,0,1,274.8,200.34Z" style="fill:#a6a6a6"></path><path d="M276.12,200.14a.42.42,0,0,1,.12.29.42.42,0,0,1-.12.3.44.44,0,0,1-.3.12.42.42,0,0,1-.3-.12.1.1,0,0,1,0-.14.12.12,0,0,1,.14,0,.2.2,0,0,0,.16.07.21.21,0,0,0,.16-.07.23.23,0,0,0-.16-.39.09.09,0,0,1-.07,0h0a.11.11,0,0,1,0-.14l.18-.17h-.28a.09.09,0,0,1-.09-.1.09.09,0,0,1,.09-.09h.5a.09.09,0,0,1,.1.09s0,0,0,.05l0,0-.21.22A.47.47,0,0,1,276.12,200.14Z" style="fill:#a6a6a6"></path><path d="M276.67,199.94a.13.13,0,0,1,.13.13.13.13,0,0,1-.26,0A.13.13,0,0,1,276.67,199.94Zm0,.68a.12.12,0,0,1,.13.12.13.13,0,0,1-.26,0A.12.12,0,0,1,276.67,200.62Z" style="fill:#a6a6a6"></path><path d="M277.68,200.76a.09.09,0,0,1-.09.1H277a.1.1,0,0,1-.06-.17l.5-.45a.21.21,0,0,0,.07-.16.2.2,0,0,0-.06-.15.2.2,0,0,0-.16-.07.3.3,0,0,0-.15,0l-.05.05a.09.09,0,0,1-.13,0,.09.09,0,0,1,0-.13l.05,0a.38.38,0,0,1,.27-.1.39.39,0,0,1,.3.13.43.43,0,0,1,.11.28.41.41,0,0,1-.14.3l-.32.29h.37A.09.09,0,0,1,277.68,200.76Z" style="fill:#a6a6a6"></path><path d="M278.68,200.76a.09.09,0,0,1-.1.1H278a.1.1,0,0,1-.06-.17l.5-.45a.21.21,0,0,0,.07-.16.2.2,0,0,0-.06-.15.2.2,0,0,0-.16-.07.3.3,0,0,0-.15,0l-.05.05a.09.09,0,1,1-.12-.14l.05,0a.38.38,0,0,1,.27-.1.39.39,0,0,1,.3.13.43.43,0,0,1,.11.28.41.41,0,0,1-.14.3l-.32.29h.36A.09.09,0,0,1,278.68,200.76Z" style="fill:#a6a6a6"></path><rect x="220.45" y="226.08" width="0.61" height="1.18" style="fill:#c7c7c7"></rect><polygon points="221.05 226.08 222.17 225.61 222.17 227.73 221.05 227.26 221.05 226.08" style="fill:#c7c7c7"></polygon><rect x="224" y="226.31" width="49" height="0.72" rx="0.3" style="fill:#c7c7c7"></rect><rect x="224" y="226.31" width="20.24" height="0.72" rx="0.3" style="fill:#FFC727"></rect><rect x="275.17" y="226.08" width="0.61" height="1.18" style="fill:#c7c7c7"></rect><polygon points="275.78 226.08 276.9 225.61 276.9 227.73 275.78 227.26 275.78 226.08" style="fill:#c7c7c7"></polygon><g id="freepik--u5zjqx--inject-467"><path d="M277.86,225.43l.3-.3a2.17,2.17,0,0,1,0,3.08l-.3-.3a1.76,1.76,0,0,0,0-2.48Z" style="fill:#c7c7c7"></path><path d="M277.52,226.67a.86.86,0,0,0-.26-.63l.3-.3a1.32,1.32,0,0,1,0,1.87l-.3-.31a.86.86,0,0,0,.26-.63" style="fill:#c7c7c7"></path></g><path d="M245.07,226.67a.83.83,0,1,1-.83-.83A.83.83,0,0,1,245.07,226.67Z" style="fill:#FFC727"></path><rect x="221.31" y="183.89" width="35.08" height="2.23" style="fill:#FFC727"></rect><rect x="221.31" y="188.32" width="15.79" height="1.75" style="fill:#a6a6a6"></rect><polygon points="245.96 216.47 245.96 208.6 254.04 212.53 245.96 216.47" style="fill:#FFC727"></polygon><polygon points="269.27 214.46 269.27 210.61 273.22 212.53 269.27 214.46" style="fill:#FFC727"></polygon><polygon points="266.12 214.46 266.12 210.61 270.07 212.53 266.12 214.46" style="fill:#FFC727"></polygon><polygon points="230.73 210.61 230.73 214.46 226.78 212.53 230.73 210.61" style="fill:#FFC727"></polygon><polygon points="233.88 210.61 233.88 214.46 229.93 212.53 233.88 210.61" style="fill:#FFC727"></polygon><path d="M276.35,189.2a.25.25,0,0,1-.5,0,.25.25,0,1,1,.5,0Z" style="fill:#a6a6a6"></path><path d="M277.54,189.2a.26.26,0,0,1-.26.25.25.25,0,0,1-.25-.25.26.26,0,0,1,.25-.26A.26.26,0,0,1,277.54,189.2Z" style="fill:#a6a6a6"></path><path d="M278.72,189.2a.25.25,0,0,1-.25.25.26.26,0,0,1-.26-.25.26.26,0,0,1,.26-.26A.26.26,0,0,1,278.72,189.2Z" style="fill:#a6a6a6"></path><rect x="224.58" y="125.14" width="50.84" height="50.84" style="fill:#FFC727"></rect><path d="M246.23,162.66a4.77,4.77,0,1,1-4.77-4.77A4.77,4.77,0,0,1,246.23,162.66Z" style="fill:#fff"></path><rect x="242.58" y="140.8" width="3.64" height="21.8" style="fill:#fff"></rect><path d="M261.66,157.89a4.77,4.77,0,1,1-4.77-4.77A4.78,4.78,0,0,1,261.66,157.89Z" style="fill:#fff"></path><rect x="258.01" y="137.92" width="3.64" height="19.92" style="fill:#fff"></rect><polygon points="261.66 137.97 242.58 144.01 242.58 140.8 261.66 134.76 261.66 137.97" style="fill:#fff"></polygon><polygon points="261.66 144.01 242.58 150.05 242.58 146.84 261.66 140.8 261.66 144.01" style="fill:#fff"></polygon></g><g id="freepik--Plant--inject-467"><path d="M403.47,340.88c15.62,15.29,18.24,38.95,14.95,59.67-.09.48-.82.35-.82-.09,0-4.72.15-9.4.13-14.06-.08-.21-.15-.41-.24-.63-4.08-3-7.82-6.31-10.15-10.9-2.61-5.13-3.63-10.92-5.63-16.28-.18-.51.36-.36.72-.09,9.5,7,12.53,14.55,15.26,24.62A84.45,84.45,0,0,0,416,367.43c-2.06-9.56-6.12-19-13-26.14A.29.29,0,0,1,403.47,340.88Z" style="fill:#263238"></path><path d="M400.53,342.66c-2.69.09-4.37,4.39-6.47,5.64a2,2,0,0,1-3-.47c-2.08-2.89.77-6.47,3.45-8.47-1.92.79-3.51,2.18-5.57,2.57a1.94,1.94,0,0,1-2.51-1.51c-.91-3.95,4-5.7,7.44-5.79-1.65-1.14-6.37-4.26-3.86-5.79s8.08,2.92,9.89,4.38c2.65,2.16,5.82,5.38,5.94,8.75C406,345.91,402.6,343.48,400.53,342.66Z" style="fill:#FFC727"></path><path d="M400.53,342.66c-2.69.09-4.37,4.39-6.47,5.64a2,2,0,0,1-3-.47c-2.08-2.89.77-6.47,3.45-8.47-1.92.79-3.51,2.18-5.57,2.57a1.94,1.94,0,0,1-2.51-1.51c-.91-3.95,4-5.7,7.44-5.79-1.65-1.14-6.37-4.26-3.86-5.79s8.08,2.92,9.89,4.38c2.65,2.16,5.82,5.38,5.94,8.75C406,345.91,402.6,343.48,400.53,342.66Z" style="opacity:0.1"></path><path d="M401.31,343.32c-3.44-1.56-10,.69-10.6-.61-1.14-2.65,4.14-4.46,7-4.82-2.62-.71-7.64-1.84-7.49-4.37.19-3.09,7.71-.43,11.51,2.49,4.8,3.67,4.77,7.22,4,7.93C404.6,344.91,401.87,343.58,401.31,343.32Z" style="fill:#FFC727"></path><path d="M439,339.36c-16.19,14.69-19.71,38.23-17.21,59.07.07.47.8.37.82-.07.18-4.71.21-9.39.4-14.05.1-.21.18-.41.27-.62,4.19-2.8,8.06-6,10.56-10.51,2.8-5,4-10.77,6.24-16.05.21-.5-.35-.37-.72-.12-9.76,6.64-13.07,14.06-16.18,24a84.41,84.41,0,0,1,2.25-15.62c2.41-9.48,6.83-18.8,14-25.63A.29.29,0,0,0,439,339.36Z" style="fill:#263238"></path><path d="M441.91,341.26c2.68.19,4.2,4.55,6.25,5.88a2,2,0,0,0,3-.36c2.18-2.81-.53-6.49-3.13-8.59,1.89.86,3.42,2.3,5.47,2.77a1.94,1.94,0,0,0,2.57-1.41c1.06-3.91-3.83-5.85-7.22-6.06,1.69-1.09,6.53-4,4.08-5.64s-8.19,2.6-10.05,4c-2.74,2-6,5.15-6.27,8.51C436.28,344.29,439.81,342,441.91,341.26Z" style="fill:#FFC727"></path><path d="M441.91,341.26c2.68.19,4.2,4.55,6.25,5.88a2,2,0,0,0,3-.36c2.18-2.81-.53-6.49-3.13-8.59,1.89.86,3.42,2.3,5.47,2.77a1.94,1.94,0,0,0,2.57-1.41c1.06-3.91-3.83-5.85-7.22-6.06,1.69-1.09,6.53-4,4.08-5.64s-8.19,2.6-10.05,4c-2.74,2-6,5.15-6.27,8.51C436.28,344.29,439.81,342,441.91,341.26Z" style="opacity:0.1"></path><path d="M441.11,341.89c3.49-1.43,10,1.07,10.61-.21,1.24-2.6-4-4.62-6.8-5.08,2.65-.61,7.71-1.55,7.66-4.08-.07-3.09-7.69-.73-11.6,2-4.93,3.5-5,7-4.27,7.78C437.76,343.35,440.53,342.12,441.11,341.89Z" style="fill:#FFC727"></path><path d="M422.48,378.16a158.48,158.48,0,0,1-5,23.22.58.58,0,0,1-1.13-.23c1.06-7.16,3-14.18,4.06-21.34a107.05,107.05,0,0,0,1.24-21.9c-.68-12.06-3.95-24.89-11.82-34.33-.17-.22.19-.54.37-.33,15.76,18.37,13.25,40.89,13.24,42.91,2.23-7.6,4.52-16.32,13-24.07.37-.33.65-.17.59.4-1.51,14.1-5.43,21.47-13.61,29C423.13,373.73,422.84,376,422.48,378.16Z" style="fill:#263238"></path><path d="M409.67,325.69c-2.84-1.26-6.75,2.35-9.55,2.6-1.49.13-2.59-.45-2.84-2-.7-4.05,4.05-6.32,7.84-7.05-2.39-.15-4.73.49-7.07-.14a2.24,2.24,0,0,1-1.85-2.83c1-4.55,7.07-3.88,10.64-2.26-1.14-2-4.47-7.63-1.1-7.95s6.92,7.09,8.06,9.52c1.67,3.58,3.34,8.51,1.77,12.07C413.75,331.83,411.4,327.59,409.67,325.69Z" style="fill:#FFC727"></path><path d="M409.67,325.69c-2.84-1.26-6.75,2.35-9.55,2.6-1.49.13-2.59-.45-2.84-2-.7-4.05,4.05-6.32,7.84-7.05-2.39-.15-4.73.49-7.07-.14a2.24,2.24,0,0,1-1.85-2.83c1-4.55,7.07-3.88,10.64-2.26-1.14-2-4.47-7.63-1.1-7.95s6.92,7.09,8.06,9.52c1.67,3.58,3.34,8.51,1.77,12.07C413.75,331.83,411.4,327.59,409.67,325.69Z" style="opacity:0.1"></path><path d="M410.14,326.77c-2.78-3.35-10.76-4.34-10.69-6,.15-3.32,6.54-2.55,9.67-1.48-2.36-2.06-7-5.76-5.57-8.31,1.75-3.11,8.21,3.43,10.69,8.38,3.12,6.22,1.31,9.89.13,10.23C412.75,330.08,410.6,327.32,410.14,326.77Z" style="fill:#FFC727"></path><path d="M432.85,382.4l6.95,53.09H397.51c.88-4.7,8.75-53.15,8.75-53.15Z" style="fill:#FFC727"></path></g><g id="freepik--Table--inject-467"><polygon points="44.35 435.49 95.76 435.25 147.18 435.16 250 435 352.82 435.16 404.24 435.25 455.65 435.49 404.24 435.74 352.82 435.83 250 435.99 147.18 435.82 95.76 435.74 44.35 435.49" style="fill:#263238"></polygon></g><g id="freepik--Character--inject-467"><polygon points="56.5 435.44 177.03 435.44 153 295.64 62.87 295.64 56.5 435.44" style="fill:#dbdbdb"></polygon><polygon points="56.5 435.44 67.07 435.44 73 295.64 62.87 295.64 56.5 435.44" style="fill:#a6a6a6"></polygon><path d="M108.8,275.53c-5.23,20.69-15,44.64-10.22,66.24,3.78,16.92,16.23,30.34,30,40.15,30.21,21.53,76.35,33,106.41,4.81,12-11.27,19.24-38.4,5.88-51.61-6.86-6.77-16-9.9-24.48-14.16-11.16-5.59-18.31-14-21.52-26.08-6.27-23.6-.92-38.85,1.81-62.43.49-4.38.35-8.82-3.15-13.31a30,30,0,0,0-12.17-10.46,29.8,29.8,0,0,0-13.6-5.21c-10.48-1-22.27,6.4-31.41,10.66s-14.24,9.79-16.93,19.74C115.65,247.7,112.33,261.65,108.8,275.53Z" style="fill:#263238"></path><path d="M104.2,284.85c6-18.66,12.39-37.17,18.65-55.73,0-.12.22-.08.19,0-4.71,15.42-9.2,30.9-14.11,46.27-4.82,15.06-10.8,30.22-14.28,45.65-7.8,34.64,25,56.15,55,60.52,1.36.2.89,2.35-.48,2.1C123,379,93.78,363.77,91.74,333.89,90.62,317.55,99.28,300.09,104.2,284.85Z" style="fill:#263238"></path><path d="M195.33,230.28a.29.29,0,0,1,.57.13c-3.05,19.3-8.43,41.52-1,60.42a49.53,49.53,0,0,0,18.39,22.86c6.58,4.4,14.14,6.22,21.35,9.24,28.17,11.8,20.31,51.51-4.21,62.59-.51.23-.93-.65-.42-.9C247.52,375.74,257,355,248,336.51c-7.19-14.83-26.9-14.64-38.88-24.32C184.27,292.15,189,257.93,195.33,230.28Z" style="fill:#263238"></path><path d="M158.73,312.93c4.87,30.41,29.82,104.8,49.51,113.42,17.42,7.63,65.24,9.84,82.7,5.8,8-1.86,5.05-58.29-7.31-59.14-15.44-1.05-37.2.59-50.95-2.38-4.87-1.06-23.27-24-56.33-62.16C164.06,294.27,156,295.8,158.73,312.93Z" style="fill:#f7a9a0"></path><path d="M267.53,429.37c1,.5,15,7.56,23.69,10.08,6.48,1.87,25.26,6.77,28-.15,1.9-4.72-8.81-8.9-16.31-12-3.95-1.65-8.82-5.79-7.66-8.33,2-4.44,12.21,0,18.91,3.91,12.94,7.52,30.17,21.05,38.08,14.49,3-2.49-.49-7-5.56-11.44,8.23,5.17,17,9.4,20.44,6.78,2-1.5,2.06-3.55,1-5.89,2.54.82,4.79.66,6.35-1,2.68-2.81,1.37-6.94-1.55-11.18a3.22,3.22,0,0,0,2.43-1.6c5.67-8.64-22.71-33.46-32.52-35.78-28.87-6.86-59.58-4.36-59.58-4.36C271.91,382,267.5,429.35,267.53,429.37Z" style="fill:#f7a9a0"></path><path d="M310,402.8a48.89,48.89,0,0,1,19.26,7.41c7.32,4.83,12.17,10.48,18.31,16.18a.17.17,0,0,1-.23.25c-2.92-2.7-15.05-12.88-18.18-15.19A46.61,46.61,0,0,0,310,402.91C309.88,402.9,309.9,402.78,310,402.8Z" style="fill:#263238"></path><path d="M315.36,390.55c7.59,2.07,15.36,4.17,22.4,7.76,7.71,3.93,13.74,10.33,19.67,16.49q5.34,5.55,10.44,11.33c.14.17-.08.42-.23.26q-9-9.56-18.62-18.54A61.58,61.58,0,0,0,328.59,395c-4.34-1.66-8.81-3-13.26-4.29C315.25,390.66,315.27,390.52,315.36,390.55Z" style="fill:#263238"></path><path d="M323.47,379.83c7.37,1.52,13.8,2.81,20.33,6.76,8.64,5.23,17,14,19.91,17.17,3.23,3.45,6.35,7,9.41,10.61.12.14-.13.37-.26.22a243.68,243.68,0,0,0-22.49-22.27,48.73,48.73,0,0,0-12.57-8.18,88.27,88.27,0,0,0-14.35-4.26S323.43,379.83,323.47,379.83Z" style="fill:#263238"></path><path d="M215.9,346.56l-49.64,5.31s-8.55-23.59-11.44-37.31c-3.83-18.16,2-23.84,20.2-10.17C187.19,313.53,215.9,346.56,215.9,346.56Z" style="fill:#FFC727"></path><path d="M172.32,351.23c-.54,0-5.66.34-6,.48-.94-2.8-1.84-5.62-2.8-8.41-.49-1.39-1-2.78-1.52-4.16s-1.17-3.27-1.68-4.62a.16.16,0,1,0-.3.09c.5,1.81.93,3.15,1.36,4.72.39,1.39.82,2.79,1.27,4.17,1,2.92,1.86,6.08,3,8.95.09.22,6.24-.88,6.76-1C172.44,351.38,172.41,351.24,172.32,351.23Z" style="fill:#263238"></path><path d="M210.36,342.39c-7.27.27-14.53.65-21.78,1.35q-5.43.52-10.83,1.21c-3.6.46-7.16,1.29-10.76,1.69a.16.16,0,0,0,0,.31c3.57-.59,7.26-.71,10.86-1.1s7.23-.79,10.84-1.15c7.22-.71,14.45-1.45,21.68-2C210.61,342.68,210.56,342.38,210.36,342.39Z" style="fill:#263238"></path><path d="M192,435.66,69,435.34s25.13-103.9,52.26-132.9c12.35-13.19,24.42-11.18,34.65-2.69,2.55,2.12,34.19,42.28,36.87,56.27,2.37,12.37-7.68,26.1-7.68,26.1Z" style="fill:#FFC727"></path><path d="M172.54,321c4,6.33,8.28,12.43,12.27,18.72a89.54,89.54,0,0,1,5.56,9.62A24.8,24.8,0,0,1,193.09,360a19,19,0,0,0-.21-5.63,26.23,26.23,0,0,0-1.69-5.4,73.63,73.63,0,0,0-5.4-9.87c-1.9-2.87-3.85-5.73-5.86-8.5-.33-1-.73-1.94-1.11-2.91a33.17,33.17,0,0,0-2.06-4.08,36,36,0,0,0,1.52,4.3c.19.39.36.77.52,1.17Q175.77,325,172.54,321Z" style="fill:#263238"></path><path d="M116.29,351.78a116,116,0,0,1-.91,11.81c-.52,3.14-1.36,6.47-3.66,8.7s-5.91,2.22-9,1.7a81.19,81.19,0,0,1-14.39-4.38l-1.57-.6-.14.33,1.59.61a80.52,80.52,0,0,0,14.45,4.45,17.11,17.11,0,0,0,4.9.19,7.57,7.57,0,0,0,4.48-2c2.44-2.37,3.28-5.78,3.81-8.93.56-3.81.75-7.62.94-11.43A4.35,4.35,0,0,0,116.29,351.78Zm37.44-31a77.78,77.78,0,0,0-13.1-1.81,27.79,27.79,0,0,0-9.71,1.2,18.51,18.51,0,0,0-8,5.64,23.8,23.8,0,0,0-4.42,8.71,52,52,0,0,0-1.72,9.63c-.23,2.35-.36,4.69-.47,7,.17.19.33.33.47.48.11-2.49.24-5,.5-7.47a50.2,50.2,0,0,1,1.72-9.51,23.25,23.25,0,0,1,4.35-8.53,17.75,17.75,0,0,1,7.72-5.48,26.18,26.18,0,0,1,9.52-1.2,84,84,0,0,1,13.26,1.78C153.82,321.14,153.78,321,153.73,320.81Zm21.72,4.33-.14-.22h0c-5.2-.61-10.28-1.72-15.41-2.83-1.9-.4-3.79-.81-5.71-1.2a2.46,2.46,0,0,1,.16.48l5.46,1.16c5.23,1.09,10.46,2.23,15.8,2.84Zm13.46,110.51a68.52,68.52,0,0,0-7.28-10.3,17.36,17.36,0,0,0-3.73-3.22,7.63,7.63,0,0,0-4.75-1.22c-3.38.35-6.13,2.47-8.52,4.65-3.34,3.11-6.26,6.61-9.27,10H156c2.92-3.32,5.74-6.68,8.93-9.68,2.35-2.15,5.08-4.22,8.27-4.54s6,2,8.13,4.29a67,67,0,0,1,7.12,10l.18.29.42-.05C189,435.81,189,435.73,188.91,435.65Zm-84.31-5.16a129.11,129.11,0,0,0-13.13-14.43c-4.29-3.85-9.36-7.21-15.1-8.39l-.09.33c5.65,1.17,10.66,4.52,14.93,8.37,4.8,4.33,8.91,9.38,13.05,14.4,1.29,1.55,2.58,3.12,3.88,4.67h.61C107.35,433.8,106,432.14,104.6,430.49Zm10.16-80.79c-4.34-4.1-9.55-7.67-15.5-8.88l-.65-.13a2.92,2.92,0,0,1-.13.34,6.4,6.4,0,0,1,.63.14c5.89,1.16,11,4.73,15.37,8.82.62.58,1.23,1.19,1.81,1.79,0-.18,0-.37,0-.57C115.81,350.7,115.3,350.18,114.76,349.7Zm78.16,7.58v0a22.41,22.41,0,0,0-5.24,3.58c-4.89,4.35-8.91,9.49-13.56,14a49.75,49.75,0,0,1-7.4,6.23,23.92,23.92,0,0,1-8.79,3.81,17.88,17.88,0,0,1-9.45-.73,26.68,26.68,0,0,1-8.09-5.14c-.92-.84-1.83-1.7-2.67-2.59a5.09,5.09,0,0,1-.4-.41c-3.52-3.64-6.61-7.64-9.76-11.6-3.44-4.32-6.89-8.71-10.76-12.7a5.17,5.17,0,0,0,0,.57,159.52,159.52,0,0,1,10.43,12.41c3.08,3.87,6.11,7.81,9.54,11.43a5.09,5.09,0,0,0,.4.41c.93,1,1.91,1.92,2.93,2.84a27,27,0,0,0,8.22,5.28,18.42,18.42,0,0,0,9.73.75,24,24,0,0,0,9-3.89,51.17,51.17,0,0,0,7.48-6.29c4.64-4.59,8.65-9.73,13.48-14.06a19.8,19.8,0,0,1,5-3.41h0C193,357.58,193,357.43,192.92,357.28ZM152,311.88a35,35,0,0,1,.11-14.88l-.33-.19A35.5,35.5,0,0,0,151.6,312a86.34,86.34,0,0,0,2.13,8.85l.45.08A88.85,88.85,0,0,1,152,311.88Zm10.57,37.49c-1-6.48-3.2-12.63-5.25-18.79-1-3.06-2.07-6.13-3-9.21a3.26,3.26,0,0,1-.47-.09c.94,3.19,2,6.33,3,9.45,2,6.15,4.22,12.31,5.18,18.7A26.24,26.24,0,0,1,162,359a17.67,17.67,0,0,1-4.56,8.31,23.56,23.56,0,0,1-8,5.28,51.07,51.07,0,0,1-9.27,2.79c-.95.22-1.89.39-2.84.58a5.4,5.4,0,0,0-.58.11c-5.23.94-10.55,1.58-15.74,3-3.08.89-6.37,2.11-8.43,4.78a7.56,7.56,0,0,0-1.5,4.68,18.08,18.08,0,0,0,.78,4.86c1.87,6.28,5.12,12,8.06,17.75s6,11.56,8,17.74a34.06,34.06,0,0,1,1.47,6.62h.29a35.09,35.09,0,0,0-1.46-6.71c-2-6.22-5-12-7.95-17.8s-6.15-11.5-8-17.71c-.86-3-1.34-6.59.67-9.17s5.17-3.75,8.22-4.61c5.23-1.4,10.66-2,16-3,.19-.05.38-.07.58-.11.84-.14,1.7-.33,2.55-.52a50.24,50.24,0,0,0,9.35-2.79,23.89,23.89,0,0,0,8.18-5.39,18.17,18.17,0,0,0,4.67-8.56A27,27,0,0,0,162.58,349.37Z" style="fill:#fff"></path><path d="M149.72,379.34A103.76,103.76,0,0,1,165,380.93c2.5.49,5,1.08,7.41,1.74,1.23.32,2.46.6,3.69.88a15.86,15.86,0,0,0,3.93.5.1.1,0,0,1,0,.19,22.2,22.2,0,0,1-7.36-.31c-2.53-.47-5-1.06-7.58-1.55-5.1-1-10.21-2-15.38-2.62C149.45,379.74,149.48,379.33,149.72,379.34Z" style="fill:#263238"></path><path d="M137.42,384.59A110.66,110.66,0,0,1,150,383.24c2.11-.1,4.21-.08,6.32,0,1,0,2,.09,3,.16s2.2.3,3.31.36c.11,0,.12.18,0,.18-1,0-2.1.13-3.14.16l-3.15.11c-2.11.07-4.21.16-6.31.22-4.21.1-8.41.25-12.61.5C137.21,385,137.21,384.62,137.42,384.59Z" style="fill:#263238"></path><path d="M138.46,296.41c-.13,2.38,6.22,20,16.53,22.49,3.36.81,8.64-17.32,8.64-17.32l.69-1.25,9.73-17.51L156.21,262.2l-2.63-2.81s-2.35,5-5.2,11.18c-.14.28-.27.57-.41.88s-.34.67-.48,1c-.44.92-.89,1.87-1.31,2.82-.32.72-.64,1.42-1,2.19s-.64,1.51-1,2.27C141.12,287.34,138.54,295.41,138.46,296.41Z" style="fill:#f7a9a0"></path><path d="M148.38,270.57a40.2,40.2,0,0,0,15.94,29.76l9.73-17.51L156.21,262.2l-2.63-2.81S151.23,264.35,148.38,270.57Z" style="fill:#263238"></path><path d="M206.94,256.38c-1.14,35.12-22.3,38.41-29.87,38.15-6.88-.23-30.26-1.88-32.76-36.93S158.5,212,174.25,211.67,208.08,221.26,206.94,256.38Z" style="fill:#f7a9a0"></path><path d="M202.18,250.16a23,23,0,0,1-2.34-.63,3.9,3.9,0,0,1-2.27-1.1,1.25,1.25,0,0,1,.08-1.52,3.1,3.1,0,0,1,3.09-.56,4.56,4.56,0,0,1,2.77,1.76A1.34,1.34,0,0,1,202.18,250.16Z" style="fill:#263238"></path><path d="M178.12,248.77a21.38,21.38,0,0,0,2.4-.37,4,4,0,0,0,2.38-.84A1.26,1.26,0,0,0,183,246a3.13,3.13,0,0,0-3-.89A4.59,4.59,0,0,0,177,246.6,1.33,1.33,0,0,0,178.12,248.77Z" style="fill:#263238"></path><path d="M183.22,257.69c0-.09-.19.11-.19.2,0,2.4-.4,5.14-2.59,5.87-.07,0-.07.14,0,.13C183.11,263.6,183.6,260,183.22,257.69Z" style="fill:#263238"></path><path d="M181.16,255.12c-3.84-.41-4.38,7.3-.82,7.68S184.37,255.47,181.16,255.12Z" style="fill:#263238"></path><path d="M179.62,255.42c-.71.39-1.42,1.12-2.24,1.14s-1.59-.83-2.15-1.65c-.06-.08-.13,0-.14.08-.13,1.48.33,3,1.9,3.36s2.56-.93,3-2.39C180.11,255.69,179.9,255.27,179.62,255.42Z" style="fill:#263238"></path><path d="M196.52,258.12c0-.09.18.12.17.22-.27,2.38-.17,5.15,1.93,6.11.07,0,0,.15,0,.13C196,264,195.89,260.33,196.52,258.12Z" style="fill:#263238"></path><path d="M198.84,255.79c3.86,0,3.56,7.73,0,7.72S195.61,255.78,198.84,255.79Z" style="fill:#263238"></path><path d="M200.43,256.36c.6.43,1.17,1.2,1.9,1.28s1.5-.73,2.07-1.51c.06-.08.11,0,.11.09,0,1.48-.56,3-2,3.23s-2.2-1.1-2.5-2.58C200,256.59,200.19,256.19,200.43,256.36Z" style="fill:#263238"></path><path d="M181.57,277.26c.5.62,1,1.45,1.84,1.63a6.34,6.34,0,0,0,2.62-.31.09.09,0,0,1,.09.14,3.23,3.23,0,0,1-3.17.94,2.53,2.53,0,0,1-1.62-2.32C181.31,277.2,181.49,277.17,181.57,277.26Z" style="fill:#263238"></path><path d="M191,273.9a9.81,9.81,0,0,1-3.9,3.05,4.36,4.36,0,0,1-2.66.17c-1.93-.5-2-2.27-1.64-3.78a10.16,10.16,0,0,1,.86-2.32A12.61,12.61,0,0,0,191,273.9Z" style="fill:#263238"></path><path d="M187.14,277a4.36,4.36,0,0,1-2.66.17c-1.93-.5-2-2.27-1.64-3.78C184.91,273.54,187,274.94,187.14,277Z" style="fill:#ff9cbd"></path><path d="M192.06,269.21s.28,3.59.18,5.28c0,.16-.42.21-1,.21,0,0,0,0-.07,0a8,8,0,0,1-7.59-3.44c-.11-.17.12-.33.26-.22a12,12,0,0,0,7.19,2.52c.14-.46-.7-6.14-.43-6.14a14.22,14.22,0,0,1,3.77,1.09c-.38-7.51-1.95-14.9-2.21-22.38a.23.23,0,0,1,.44-.08c2.2,7.62,2.82,16.25,3.41,24C196.1,271,192.71,269.53,192.06,269.21Z" style="fill:#263238"></path><path d="M146.83,260.4c3.82-.24,13.73-10.79,14-29.24,0,0-1.36,16.55-2.6,19s5.54-5.93,5.94-20.81c0,0,8.26,5.92,15.3,7.86s11.33,1.86,11.83,1.35-9.85-3.73-12.66-6.94c0,0,18.72,8.62,27.34,9.24,1,.07,2.11-20.43-11.24-29.07s-34.42.82-40.07,6.32c0,0-6.66,1-13.86,10.86S142.72,260.66,146.83,260.4Z" style="fill:#263238"></path><path d="M175.86,269a11,11,0,1,1,12.81-11.8h0A11,11,0,0,1,178.6,269.1,10.85,10.85,0,0,1,175.86,269Zm3.4-20.3a9.91,9.91,0,0,0-2.38-.1,9.56,9.56,0,1,0,2.38.1Z" style="fill:#37474f"></path><path d="M201.14,270.1c-4.16-.7-7.22-5.6-6.94-11.34a13.17,13.17,0,0,1,2.7-7.59,6.87,6.87,0,0,1,11.75.58,13.17,13.17,0,0,1,1.95,7.81c-.3,6.07-4.22,10.83-8.74,10.61A5.85,5.85,0,0,1,201.14,270.1Zm2.28-20.42a4.87,4.87,0,0,0-.55-.06,5.89,5.89,0,0,0-4.82,2.47,11.82,11.82,0,0,0-2.38,6.74c-.25,5.26,2.54,9.69,6.26,9.87s6.94-3.95,7.2-9.21a11.69,11.69,0,0,0-1.71-6.94A6.07,6.07,0,0,0,203.42,249.68Z" style="fill:#37474f"></path><path d="M188.24,258.45l-.89-1.17c1.73-1.32,5.69-3,8.24,0l-1.13,1C192.18,255.52,188.4,258.33,188.24,258.45Z" style="fill:#37474f"></path><path d="M139,258.88l-1.27-.74c.34-.59,3.46-5.82,6.78-6.19,3.1-.34,22.74,2.48,23.58,2.6L167.9,256c-5.63-.82-20.81-2.86-23.21-2.59C142.51,253.66,139.86,257.45,139,258.88Z" style="fill:#37474f"></path><path d="M143.83,270.54a6.75,6.75,0,0,0,1.57.61,5.17,5.17,0,0,0,1.64.24,4.76,4.76,0,0,0,2.09-.41,5.85,5.85,0,0,0,1.44-.86,6.77,6.77,0,0,0,1.55-1.8l-.81-9.55S145,247,139.73,249.1,138.28,267.7,143.83,270.54Z" style="fill:#f7a9a0"></path><path d="M140.94,253.79a.08.08,0,0,0-.05.15c3.87,2.13,5.56,6.16,6.59,10.25-1-1.65-2.58-2.67-4.77-1.47-.11.06,0,.24.09.23a3.65,3.65,0,0,1,3.84,1.74,17.26,17.26,0,0,1,1.53,3.46c.14.39.82.27.74-.16l0-.1C149.61,262.71,146.44,255,140.94,253.79Z" style="fill:#263238"></path><path d="M144.49,269.13a1.63,1.63,0,1,0,1.49-1.75A1.63,1.63,0,0,0,144.49,269.13Z" style="fill:#fff"></path><path d="M141.46,266.3a1.15,1.15,0,1,0,1.06-1.24A1.15,1.15,0,0,0,141.46,266.3Z" style="fill:#fff"></path><path d="M115.17,308.74c-23.93,37.09-55.43,99.13-38.28,111,28.19,19.56,106.44,25.82,124.34,26.52,7.72.31,19-50.92,13.38-57s-87.67-4-88.65-9c-.55-2.81,4.12-27.73,9.65-58.72C142,285.88,122,298.12,115.17,308.74Z" style="fill:#f7a9a0"></path><path d="M200.89,386.27s23.42-2.07,38.81-2.7c8.58-.35,23.34.35,29.76,3,9.61,3.92,47.28,26.47,42,35.72-4.77,8.38-34.67-15.11-34.67-15.11s32.27,21,24.67,30.06-37.86-22-37.86-22,32.67,22.35,23.37,30.42c-7,6.1-36-20.46-36-20.46s27.95,19.41,21,26c-7.7,7.28-36-15.56-36-15.56-20.52,13.76-35.91,11.91-46.71,9.3C186.62,444.28,200.89,386.27,200.89,386.27Z" style="fill:#f7a9a0"></path><path d="M266.1,399.18c3.88,2.33,7.82,4.66,11.48,7.33s7.23,5.47,10.63,8.47c8.32,7.35,12.39,13.26,12.1,12.92-6.88-8-19.83-17.74-23.49-20.41S269.65,402,266,399.31C265.9,399.24,266,399.12,266.1,399.18Z" style="fill:#263238"></path><path d="M256.22,412.21c4.83,3.2,9.74,6.19,14.42,9.6s8.79,7,13.21,10.72c.34.28.08.37-.28.1-4.56-3.53-9.05-6.43-13.65-9.9s-9.08-7.12-13.78-10.41C256.06,412.27,256.15,412.17,256.22,412.21Z" style="fill:#263238"></path><path d="M245.73,421.88c7.62,4.5,14.41,10.41,20.93,16.36.32.29,0,.37-.38.09-6.86-5.57-12.19-10-20.71-16.18C245.44,422.05,245.57,421.79,245.73,421.88Z" style="fill:#263238"></path><path d="M84.57,355.81l49.74-4.27s3.9-24.79,4.12-38.81c.28-18.55-6.54-23-21.78-6.12C106.46,317.91,84.57,355.81,84.57,355.81Z" style="fill:#FFC727"></path><path d="M128.25,352.08c.53-.14,5.62-.75,6-.69.38-2.93.73-5.86,1.15-8.78.2-1.46.44-2.92.69-4.38s.52-3.43.77-4.85c0-.22.32-.2.3,0-.14,1.87-.3,3.27-.43,4.89-.12,1.44-.27,2.9-.45,4.34-.38,3.05-.66,6.32-1.2,9.34,0,.24-6.29.33-6.82.28C128.16,352.25,128.17,352.1,128.25,352.08Z" style="fill:#263238"></path><path d="M89.22,350.66c7.19-1.12,14.39-2.14,21.64-2.83,3.61-.35,7.23-.65,10.86-.88s7.28-.11,10.89-.4a.16.16,0,0,1,0,.31c-3.62.1-7.26.7-10.87,1s-7.24.62-10.86.95c-7.22.68-14.46,1.33-21.66,2.17C89,351,89,350.69,89.22,350.66Z" style="fill:#263238"></path><path d="M311.47,422.27a4.19,4.19,0,0,0-.17-3.76,15.83,15.83,0,0,0-2-3.33,46.09,46.09,0,0,0-5.4-5.69,124.85,124.85,0,0,0-12.42-9.67c-4.34-3-8.71-5.91-13.19-8.6a44.77,44.77,0,0,0-7-3.48c-1.2-.46-2.44-.82-3.71-1.2a27.06,27.06,0,0,0-3.75-.94,74.11,74.11,0,0,0-7.77-.83c-2.61-.16-5.23-.27-7.86-.3-5.25-.09-10.5,0-15.76.18s-10.51.46-15.76.8-10.5.75-15.76,1.15h0c-5.14-.47-10.28-.91-15.42-1.42,5.15.22,10.31.51,15.47.77h-.06c5.24-.6,10.49-1.11,15.74-1.56s10.52-.81,15.79-1.05,10.55-.36,15.83-.31a97.42,97.42,0,0,1,15.87,1.15,28.58,28.58,0,0,1,3.9,1c1.25.38,2.54.76,3.79,1.25a46.48,46.48,0,0,1,7.14,3.63c4.54,2.74,8.86,5.78,13.13,8.88A116.75,116.75,0,0,1,304.31,409a46.38,46.38,0,0,1,5.24,6,15.74,15.74,0,0,1,1.94,3.47A4.3,4.3,0,0,1,311.47,422.27Z" style="fill:#263238"></path></g><g id="freepik--Device--inject-467"><rect x="183.09" y="447.76" width="122.6" height="5.5" style="fill:#455a64"></rect><rect x="243.99" y="447.76" width="61.71" height="5.5" style="fill:#37474f"></rect><polygon points="247.73 453.26 367.21 453.26 382.83 372.11 263.35 372.11 247.73 453.26" style="fill:#37474f"></polygon><polygon points="252.59 453.26 372.07 453.26 387.69 372.11 268.21 372.11 252.59 453.26" style="fill:#455a64"></polygon><path d="M312.87,412.68A6.56,6.56,0,0,0,319.5,420a8.1,8.1,0,0,0,7.91-7.28,6.56,6.56,0,0,0-6.63-7.27A8.1,8.1,0,0,0,312.87,412.68Z" style="fill:#fff"></path></g></svg>