<svg xmlns="http://www.w3.org/2000/svg" viewBox="0 0 500 500"><g id="freepik--background-complete--inject-109"><path d="M443.26,408a29,29,0,0,1-43.19-18.29A29,29,0,1,1,443.26,408Z" style="fill:#ebebeb"></path><path d="M437.17,379.9a8.82,8.82,0,1,1-8.72-8.93A8.84,8.84,0,0,1,437.17,379.9Z" style="fill:#fff"></path><path d="M443.3,404.31l0,3.64a29,29,0,0,1-30.49-.38l.05-3.62a15.24,15.24,0,1,1,30.48.36Z" style="fill:#fff"></path><path d="M76.54,108.94a18.53,18.53,0,0,1-5.5,2.23,19,19,0,1,1,5.5-2.23Z" style="fill:#ebebeb"></path><path d="M72.56,90.57a5.78,5.78,0,1,1-5.71-5.85A5.78,5.78,0,0,1,72.56,90.57Z" style="fill:#fff"></path><path d="M76.57,106.56l0,2.38a18.53,18.53,0,0,1-5.5,2.23,18.86,18.86,0,0,1-14.46-2.47l0-2.38a10,10,0,0,1,20,.24Z" style="fill:#fff"></path><path d="M220.47,327.3H52.41V182.66H220.47Zm-167.06-1H219.47V183.66H53.41Z" style="fill:#ebebeb"></path><path d="M60.79,188.2a2,2,0,1,1-2-2A2,2,0,0,1,60.79,188.2Z" style="fill:#a6a6a6"></path><path d="M69.14,188.2a2,2,0,1,1-2-2A2,2,0,0,1,69.14,188.2Z" style="fill:#ebebeb"></path><path d="M77.49,188.2a2,2,0,1,1-2-2A2,2,0,0,1,77.49,188.2Z" style="fill:#FFC727"></path><rect x="52.91" y="192.68" width="167.06" height="1" style="fill:#ebebeb"></rect><g id="freepik--aiZGp2--inject-109"><path d="M270,158.46a49.56,49.56,0,0,0-3.36,15.33H253.07v-.38c0-.34.08-.69.11-1a38.55,38.55,0,0,1,.9-5.35,41.64,41.64,0,0,1,3-8.37.3.3,0,0,1,.33-.19H270Z" style="fill:#ebebeb"></path><path d="M269.6,192.71H257.12a.28.28,0,0,1-.3-.19,38.86,38.86,0,0,1-3.71-14.21,1,1,0,0,0,0-.17v-.37l.21,0h13.14c.24,0,.23,0,.25.25.08,1.09.15,2.18.26,3.27a42.64,42.64,0,0,0,.83,5.14,46.28,46.28,0,0,0,1.78,6.1C269.56,192.57,269.57,192.63,269.6,192.71Z" style="fill:#ebebeb"></path><path d="M322.07,196.66a1.6,1.6,0,0,1-.11.19,38.22,38.22,0,0,1-3.53,4.58,35,35,0,0,1-5.18,4.78,37,37,0,0,1-5.91,3.65,36.56,36.56,0,0,1-6.23,2.43,38.49,38.49,0,0,1-5.2,1.11c-.17,0-.34.06-.51.09h-.3l-.29-.19.33-.23a39.86,39.86,0,0,0,9.84-9.55,45.08,45.08,0,0,0,4-6.67.3.3,0,0,1,.31-.19h12.76Z" style="fill:#ebebeb"></path><path d="M309.59,173.78H292.06V158.47h13.69a.24.24,0,0,1,.27.18,42.6,42.6,0,0,1,2.79,9,44.35,44.35,0,0,1,.67,4.86C309.52,172.9,309.55,173.33,309.59,173.78Z" style="fill:#ebebeb"></path><path d="M309.48,177.87c0,.36,0,.72-.05,1.08-.07.85-.13,1.71-.25,2.56-.17,1.17-.35,2.34-.58,3.51a42.35,42.35,0,0,1-2.27,7.47.3.3,0,0,1-.32.23H292V177.87Z" style="fill:#ebebeb"></path><path d="M288.11,158.56V173.9H271c0-.39,0-.77.07-1.15.09-.86.16-1.72.3-2.57.21-1.3.43-2.6.71-3.89a40.17,40.17,0,0,1,2.47-7.55.27.27,0,0,1,.29-.19h13.27Z" style="fill:#ebebeb"></path><path d="M288.13,178.07v14.64H274.45a.28.28,0,0,1-.3-.2,39.35,39.35,0,0,1-2.33-7.73c-.25-1.36-.45-2.73-.62-4.11-.12-.9-.14-1.81-.2-2.71,0,0,0-.05,0-.1h.2c5.57,0,11.14,0,16.71,0C288.09,177.85,288.13,177.9,288.13,178.07Z" style="fill:#ebebeb"></path><path d="M328.17,173.89H313.81a50,50,0,0,0-3.34-15.43h13.38a.29.29,0,0,1,.31.18,37.52,37.52,0,0,1,3.31,9.6,40.76,40.76,0,0,1,.7,5.39A2.25,2.25,0,0,1,328.17,173.89Z" style="fill:#ebebeb"></path><path d="M328.19,177.75c0,.35,0,.68-.05,1a38.58,38.58,0,0,1-.48,3.87,37.67,37.67,0,0,1-2.63,8.62c-.2.44-.41.88-.61,1.33a.2.2,0,0,1-.21.13H310.87l.47-1.35a46.93,46.93,0,0,0,1.78-7,45.41,45.41,0,0,0,.61-5.21c0-.41,0-.82.07-1.23,0-.11,0-.17.15-.16h14.24Z" style="fill:#ebebeb"></path><path d="M321.68,154.55l0,.06H308.91a.28.28,0,0,1-.3-.18,43.17,43.17,0,0,0-6.24-9.23,34.39,34.39,0,0,0-4.78-4.41c-.86-.66-1.75-1.28-2.62-1.92l-.15-.11.17-.11a2.55,2.55,0,0,0-.08-.28,37.63,37.63,0,0,1,26.77,16.18Z" style="fill:#ebebeb"></path><path d="M285.68,213.31a1.48,1.48,0,0,1-.36.06,35.32,35.32,0,0,1-4.1-.79A37.22,37.22,0,0,1,266.5,205a35.61,35.61,0,0,1-4.47-4.47,36.69,36.69,0,0,1-2.78-3.86l-.06-.12h11.9a.28.28,0,0,1,.3.19,42.62,42.62,0,0,0,9.33,12.58,39.43,39.43,0,0,0,4.85,3.9Z" style="fill:#ebebeb"></path><path d="M285.52,138.75c-.53.39-1.16.83-1.77,1.3a43.47,43.47,0,0,0-5.66,5.27,39.78,39.78,0,0,0-5.95,8.49c-.1.19-.19.39-.3.58a.29.29,0,0,1-.19.11c-.21,0-.42,0-.63,0H259.58a37.37,37.37,0,0,1,25.81-16.06l-.07.15Z" style="fill:#ebebeb"></path><path d="M304.36,196.67a40.58,40.58,0,0,1-5.79,7.83,36.29,36.29,0,0,1-6.61,5.61V196.67Z" style="fill:#ebebeb"></path><path d="M288.11,196.68v13.18a38.17,38.17,0,0,1-11.9-13.18Z" style="fill:#ebebeb"></path><path d="M304,154.49h-11.9V141.94a36.51,36.51,0,0,1,6.67,5.59A41.94,41.94,0,0,1,304,154.49Z" style="fill:#ebebeb"></path><path d="M288.11,142.33V154.6H276.69A36,36,0,0,1,288.11,142.33Z" style="fill:#ebebeb"></path></g></g><g id="freepik--Shadow--inject-109"><ellipse cx="236.09" cy="458.74" rx="143.19" ry="11.09" style="fill:#ebebeb"></ellipse></g><g id="freepik--Plant--inject-109"><path d="M453.73,377.59c-8,10.9-16.43,23.54-18.47,37.2a.18.18,0,0,0,.35.07,82.21,82.21,0,0,1,3.56-10.94c5.29-1.45,10.48-2.65,13.25-7.9s2.48-12.43,1.94-18.31C454.32,377.4,453.89,377.38,453.73,377.59Z" style="fill:#FFC727"></path><path d="M439.25,403.82c3.61-8.11,8.25-16.25,14.15-22.92,0,0,.1,0,.06.06a97.6,97.6,0,0,0-9.66,15.19c2.67-2.71,5.59-5.13,8.11-8,0,0,.13,0,.08.09-2.51,3-5.24,6.27-8.5,8.49-.88,1.62-1.76,3.24-2.66,4.86.22-.13.45-.23.67-.35,0,0,.08,0,0,.06-.25.13-.5.26-.75.37l-1.28,2.3C439.41,404.14,439.17,404,439.25,403.82Z" style="fill:#263238"></path><path d="M441.94,401a48,48,0,0,0,6.17-4.12c.05,0,.13,0,.08.07a32.54,32.54,0,0,1-6.16,4.2C441.93,401.19,441.84,401.05,441.94,401Z" style="fill:#263238"></path><path d="M434.33,412.76a.15.15,0,0,0,.29,0c0-4.5,0-9,.07-13.54,1.15-2.33,3.63-3.62,5.35-5.48a23.8,23.8,0,0,0,3.21-4.47A32.09,32.09,0,0,0,447,376.85c.47-4.81-1.35-20.69-3.38-20.14-1,.29-4.46,8.15-5.36,10.75a74.62,74.62,0,0,0-3.2,13.19C433.38,391.23,433.52,402.11,434.33,412.76Z" style="fill:#FFC727"></path><path d="M434.29,393.35l0,0c.25-5.69,1.53-11.44,2.73-17,1.3-5.95,2.81-11.55,5.87-16.85.06-.1.2,0,.15.09a62.7,62.7,0,0,0-4.71,12.93c.2-.32.45-.62.67-.92.08-.12.28,0,.19.11a8.61,8.61,0,0,1-.95,1.35l0,0c-1.06,4.25-1.81,8.6-2.46,12.94l.15-.17s.08,0,.06.05-.17.29-.26.43c-.32,2.2-.62,4.4-.93,6.58a31,31,0,0,0,9.16-12.17,0,0,0,0,1,0,0c-1.86,5.05-4.77,9.54-9.26,12.6-.08.59-.17,1.17-.25,1.76,0,.12-.21.09-.21,0,0-.52,0-1,.05-1.56A.12.12,0,0,1,434.29,393.35Z" style="fill:#263238"></path><path d="M436.14,385.1a90.19,90.19,0,0,0,8-13.75c0-.06.12,0,.1,0a44.65,44.65,0,0,1-7.94,13.83C436.22,385.3,436.08,385.19,436.14,385.1Z" style="fill:#263238"></path><path d="M440.12,370.24c1.24-2.19,2.55-4.33,3.72-6.57,0-.06.12,0,.09.06a34.4,34.4,0,0,1-3.62,6.63A.11.11,0,0,1,440.12,370.24Z" style="fill:#263238"></path><path d="M439.64,371.2s0,0,0,0A0,0,0,1,1,439.64,371.2Z" style="fill:#263238"></path><path d="M431.28,399.75a46.22,46.22,0,0,1-1,8.86c0,.32.09.64.14,1A42,42,0,0,0,432,399.7a.27.27,0,0,0,0-.3h0A66.17,66.17,0,0,0,431,386c-1.4-8.27-4.44-16.2-10.21-22.4a.42.42,0,0,0-.64.13c-2.32,5.92-1.51,13,.47,18.88a34.83,34.83,0,0,0,4.57,9C427.15,394.36,429.67,396.71,431.28,399.75Z" style="fill:#FFC727"></path><path d="M421.45,366.37c5.47,8.87,9.27,19.38,9.74,29.86,0,.19-.31.24-.33,0-.13-.95-.28-1.88-.43-2.81h0a35.87,35.87,0,0,1-6.2-7.16s0-.1.08-.06a76.33,76.33,0,0,0,6,6.56c-.39-2.32-.85-4.6-1.4-6.84l-.43-.51c-.1-.11.06-.27.16-.16l.13.14a78.19,78.19,0,0,0-2.86-9.07,27.78,27.78,0,0,1-4-5.09s0-.09.08,0c.81,1.14,1.6,2.29,2.52,3.35.37.42.77.82,1.16,1.23a70.47,70.47,0,0,0-4.48-9.33C421.16,366.36,421.37,366.24,421.45,366.37Z" style="fill:#263238"></path><path d="M422.56,377.31c1.77,2.38,3.78,4.65,5.42,7.1,0,.07-.06.15-.11.09a36.25,36.25,0,0,1-5.43-7.12C422.39,377.3,422.51,377.24,422.56,377.31Z" style="fill:#263238"></path><path d="M428.23,385l.07.08c.05,0,0,.13-.08.08l-.07-.08C428.09,385,428.17,384.91,428.23,385Z" style="fill:#263238"></path><path d="M412.89,383.42A27.23,27.23,0,0,0,418.66,397a14.57,14.57,0,0,0,4.67,3.65c2,1,4.15,2.15,6.25,3a40.88,40.88,0,0,1,2.21,7.85c.06-.23.13-.47.2-.7-1.35-11.55-8.82-21.43-18.39-27.76A.46.46,0,0,0,412.89,383.42Z" style="fill:#FFC727"></path><path d="M416.2,386.83c-.07-.06,0-.18.09-.12a39,39,0,0,1,12.19,15c.07.16-.15.3-.24.14-.44-.78-.9-1.53-1.36-2.28h0a13.17,13.17,0,0,1-5.87-3.4s0-.11.07-.07a13.21,13.21,0,0,0,2.76,1.94c.89.45,1.85.74,2.78,1.1-.81-1.28-1.66-2.51-2.54-3.71a25.39,25.39,0,0,1-6.56-3.69c-.06,0,0-.14.07-.1a64.9,64.9,0,0,0,6.09,3.26,53.54,53.54,0,0,0-4.3-5c-.74-.39-1.5-.79-2.22-1.2,0,0,0-.14.05-.12a7.67,7.67,0,0,1,1.7.84C418,388.53,417.15,387.67,416.2,386.83Z" style="fill:#263238"></path><path d="M416.4,390.82c.13.09.25.16.37.26a0,0,0,0,1,0,.07c-.14-.07-.25-.14-.38-.22S416.33,390.78,416.4,390.82Z" style="fill:#263238"></path><polygon points="446.91 436.44 420.71 436.44 422.82 412.58 423.29 407.32 444.33 407.32 444.8 412.58 446.91 436.44" style="fill:#455a64"></polygon><polygon points="444.8 412.58 422.82 412.58 423.29 407.32 444.33 407.32 444.8 412.58" style="fill:#263238"></polygon><rect x="422.03" y="403.64" width="23.55" height="5.21" style="fill:#455a64"></rect></g><g id="freepik--Floor--inject-109"><polygon points="40.63 436.44 92.97 436.2 145.31 436.11 250 435.94 354.69 436.11 407.03 436.2 459.37 436.44 407.03 436.69 354.69 436.77 250 436.94 145.31 436.77 92.97 436.69 40.63 436.44" style="fill:#263238"></polygon></g><g id="freepik--character-4--inject-109"><rect x="281.31" y="222.14" width="166.62" height="143.48" style="fill:#fff"></rect><path d="M448.19,365.87H281.06v-144H448.19Zm-166.63-.5H447.69v-143H281.56Z" style="fill:#a6a6a6"></path><rect x="281.31" y="221.95" width="166.62" height="9.4" style="fill:#455a64"></rect><path d="M289.46,226.65a2,2,0,1,1-2-2A2.05,2.05,0,0,1,289.46,226.65Z" style="fill:#c7c7c7"></path><path d="M297.81,226.65a2,2,0,1,1-2.05-2A2.05,2.05,0,0,1,297.81,226.65Z" style="fill:#fff"></path><path d="M306.16,226.65a2,2,0,1,1-2.05-2A2.05,2.05,0,0,1,306.16,226.65Z" style="fill:#FFC727"></path><path d="M347.72,291.87c-1.86-2.81-3.29-5.76-3.05-9.21a16.58,16.58,0,0,1,3.33-8.51,16.55,16.55,0,0,0-2.07,5.32c-1.3,7.39,5.57,12.27,6.86,19a9.82,9.82,0,0,1-.89,6,33.12,33.12,0,0,0-2.47,5.74,12.25,12.25,0,0,0,2,9.83c2.34,3.25,6,4.69,9.89,5.21a25.83,25.83,0,0,0,12.84-1.22,17.07,17.07,0,0,0,8.5-6.94,14.6,14.6,0,0,0,1.87-5.31c.33-2,.39-4.06.85-6.05a9,9,0,0,1,3.37-5.4c1.59-1.21,3.44-2,5.13-3.09l0,0c.49-.16,1-.32,1.47-.5a11.52,11.52,0,0,0,5.27-3.53,14,14,0,0,0,2.61-6.21,12.82,12.82,0,0,0-.62-7.38,35.56,35.56,0,0,0-2.64-4.79c-.95-1.83-2.33-3.54-2.71-5.61-.44-2.35,2.41-8.81.9-13.48a8.53,8.53,0,0,0-6.41-6,14.88,14.88,0,0,0-2.41-3.81c-5.65-6.47-14.66-9.95-22.38-7.31-5,1.72-7.4,5.26-9.66,8.14-2.69,3.45-2.59,7.67-2.77,11.83a18.47,18.47,0,0,1-1.21,6.37,31.43,31.43,0,0,1-2.76,5l-.49.76a46.48,46.48,0,0,0-3.49,4.64,15.75,15.75,0,0,0-2.45,8.4c.18,6.74,6.94,10.75,7.53,17.34,0,.14.22.14.21,0C351.76,297.6,349.58,294.7,347.72,291.87Zm47.22,4.68a16.89,16.89,0,0,0,5.39-6.92,18.42,18.42,0,0,0,1.31-9.73,16.51,16.51,0,0,0-.73-3l.06.12a17.14,17.14,0,0,1,1.87,4.33,15.15,15.15,0,0,1-1.29,9.57,11.22,11.22,0,0,1-6.48,5.59Z" style="fill:#263238"></path><path d="M369.74,296.91c-3.64,7.51-26.36,33.84-49.58,38.91-7.88,1.73-37.62-26.67-44.66-38.47-5.05-8.47,13.31-17.68,19.11-17.65,7.25,0,25.08,25.89,30.08,25.22,8-1.08,22-9.18,37.91-15.34C370.81,286.41,372.54,291.13,369.74,296.91Z" style="fill:#f7a9a0"></path><path d="M276.75,299.28c-2.21-2.84-13.25-18.94-14.88-23.36s-5.4-17.52-2.13-19.11,4.67,2.15,4.67,2.15-.71-5.78,2.72-7.08,5.43,4.59,5.43,4.59-.3-6,3.22-7.05,4.53,5.21,4.53,5.21-.53-5.46,2.73-5.11c3.93.42,3.77,10.6,5.94,15.35C289.47,266,300.51,286,300.51,286Z" style="fill:#f7a9a0"></path><path d="M280.22,254.1c-.1,7.48,1.15,10.77,5,17,.08.13-.09.27-.18.15-4.33-5.81-6.5-9.71-5.19-17.23C279.92,253.7,280.22,253.74,280.22,254.1Z" style="fill:#263238"></path><path d="M272.58,255.87c.58,7.78,1.91,11.37,5.46,18.24,0,.1-.11.2-.17.1-4.05-6.45-6.12-10.39-5.68-18.25C272.21,255.61,272.55,255.52,272.58,255.87Z" style="fill:#263238"></path><path d="M264.6,259.3c1.11,7.5,2.39,11.49,6.7,17.72a.14.14,0,0,1-.22.17c-5-5.93-6.65-10.89-6.7-17.83C264.38,258.89,264.54,258.83,264.6,259.3Z" style="fill:#263238"></path><rect x="258.56" y="230.39" width="33.28" height="52.48" transform="translate(-47.29 450.52) rotate(-74.02)" style="fill:#FFC727"></rect><g style="opacity:0.1"><path d="M305,247.86c-2.6,1.36-5.21,2.63-7.81,4s-5.22,2.57-7.84,3.83-5.46,2.6-8.19,3.89l-.25.13L273.67,263l-.36.16-.21-.32-4.36-6.71-.15-.24c-1.64-2.53-3.28-5.08-4.89-7.65s-3.09-4.91-4.62-7.38-3-5-4.52-7.5c1.69,2.29,3.31,4.66,5,7s3.27,4.71,4.88,7.09q2.71,4,5.38,8s0,0,0,0c1.34,2,2.67,4,4,6,2.19-1,4.39-2,6.58-3l0,0c2.93-1.32,5.85-2.64,8.79-3.93,2.63-1.15,5.26-2.3,7.89-3.42S302.36,248.9,305,247.86Z"></path><path d="M269.66,256.21l-.08,0-1,.44c-1.57.71-3.16,1.36-4.76,2-2,.76-3.94,1.47-5.92,2.16s-4,1.33-6,1.93-4,1.18-6.1,1.65c1.91-.91,3.86-1.7,5.82-2.46s3.94-1.47,5.92-2.16,4-1.34,6-1.94c1.6-.48,3.23-.94,4.87-1.34.38-.1.75-.19,1.14-.27Z"></path><path d="M296,278.79c-1.5-1.49-2.93-3.05-4.31-4.63s-2.73-3.19-4.07-4.81-2.63-3.29-3.88-5q-1.54-2-3-4.18l-.6-.91-.05-.07.07.06.82.84c1.18,1.21,2.31,2.46,3.42,3.72,1.39,1.58,2.73,3.19,4.06,4.82s2.63,3.28,3.88,5S294.87,277,296,278.79Z"></path></g><path d="M306.14,288.24s-1.12-9.31-2.52-13.3-12.06-16.9-15-14.76c-3.77,2.77.91,11.44,3.76,15.39,0,0-8.73,6.4-6.71,13.35S306.14,288.24,306.14,288.24Z" style="fill:#f7a9a0"></path><path d="M287.85,261.28c-1.62,5,2.46,10,4.94,14a.42.42,0,0,1-.26.66c-3.48,2.93-7.54,8.07-7.1,12.85a.11.11,0,0,1-.22,0c-1.16-5.06,2.41-10.44,6.43-13.4-2.6-4.1-6.47-9.24-3.84-14.16C287.82,261.24,287.86,261.25,287.85,261.28Z" style="fill:#263238"></path><path d="M314,293.9,290,317.54s19.29,19.34,28.45,19.5,35.49-16.66,47.4-32.81,5.39-19.65-9.48-12.87-29.26,12.84-31.93,12.22S314,293.9,314,293.9Z" style="fill:#FFC727"></path><path d="M365.44,302.81a4,4,0,0,1,0-1.58,4.16,4.16,0,0,1,.57,1.47,4.34,4.34,0,0,1,0,1.57A4.11,4.11,0,0,1,365.44,302.81ZM345.9,318.88a4,4,0,0,0,0-1.58,4.11,4.11,0,0,0-.57-1.46,4.35,4.35,0,0,0,0,1.57A4.23,4.23,0,0,0,345.9,318.88Zm-16.47-9.24a4.18,4.18,0,0,0,0-1.58,4.14,4.14,0,0,0-.58-1.46,4.35,4.35,0,0,0,0,1.57A4.23,4.23,0,0,0,329.43,309.64Zm-20.07-7a3.94,3.94,0,0,0,0-1.57,4.23,4.23,0,0,0-.57-1.47,4.4,4.4,0,0,0,0,1.58A4.11,4.11,0,0,0,309.36,302.68Zm6.75,23.74a3.94,3.94,0,0,0,0-1.57,4.16,4.16,0,0,0-.57-1.47,4.33,4.33,0,0,0,0,1.57A4.09,4.09,0,0,0,316.11,326.42Zm-18.62-3.16a4.51,4.51,0,0,0-.6-3,4.51,4.51,0,0,0,.6,3Zm64.29-32.16a4.18,4.18,0,0,0-1.58,0,4,4,0,0,0-1.46.58,4.35,4.35,0,0,0,1.57,0A4.23,4.23,0,0,0,361.78,291.1Zm-9.08,16.68a4.59,4.59,0,0,0-3,.61,4.59,4.59,0,0,0,3-.61Zm-33.35,25.55a4.13,4.13,0,0,0-1.57,0,4.23,4.23,0,0,0-1.47.57,4.18,4.18,0,0,0,1.58,0A4.11,4.11,0,0,0,319.35,333.33Zm14.79-14.59a4.34,4.34,0,0,0-1.57,0,4.16,4.16,0,0,0-1.47.57,3.93,3.93,0,0,0,1.57,0A4.09,4.09,0,0,0,334.14,318.74ZM308,320.42a4.51,4.51,0,0,0-3,.6,4.13,4.13,0,0,0,1.57,0A4.58,4.58,0,0,0,308,320.42Zm11.26-15.12a4.33,4.33,0,0,0-1.57,0,4.09,4.09,0,0,0-1.47.57,3.94,3.94,0,0,0,1.57,0A4.16,4.16,0,0,0,319.27,305.3Zm5.33,22.42a4.13,4.13,0,0,0,1.08-1.13,4.26,4.26,0,0,0,.64-1.44,4.17,4.17,0,0,0-1.09,1.13A4.24,4.24,0,0,0,324.6,327.72Zm-14.22-14.36a4.43,4.43,0,0,0,1.72-2.58,4.31,4.31,0,0,0-1.08,1.14A4.26,4.26,0,0,0,310.38,313.36Zm26.21,14.24a4.31,4.31,0,0,0,1.08-1.14,4.17,4.17,0,0,0,.64-1.44,3.93,3.93,0,0,0-1.09,1.14A4.08,4.08,0,0,0,336.59,327.6Zm8-26a4.21,4.21,0,0,0,1.09-1.14,4.26,4.26,0,0,0,.63-1.44,4.21,4.21,0,0,0-1.09,1.14A4.35,4.35,0,0,0,344.62,301.62Zm24.47-4.48a4,4,0,0,0,1.08-1.14,4.09,4.09,0,0,0,.64-1.44,4.06,4.06,0,0,0-1.09,1.14A4.16,4.16,0,0,0,369.09,297.14Zm-30.33,11.09a4.51,4.51,0,0,0,2.58,1.72,4.21,4.21,0,0,0-1.14-1.09A4.26,4.26,0,0,0,338.76,308.23Zm-33,19.92a4.65,4.65,0,0,0,2.58,1.72,3.93,3.93,0,0,0-1.14-1.09A4.08,4.08,0,0,0,305.74,328.15Zm49.4-28.22a4.35,4.35,0,0,0,1.14,1.09,4.24,4.24,0,0,0,1.44.63,4,4,0,0,0-1.14-1.08A4.09,4.09,0,0,0,355.14,299.93ZM320.3,316a4.31,4.31,0,0,0,1.14,1.08,4,4,0,0,0,1.44.63,4,4,0,0,0-1.14-1.08A4.08,4.08,0,0,0,320.3,316ZM300,310.57a4.51,4.51,0,0,0,2.58,1.72,4.17,4.17,0,0,0-1.14-1.08A4.26,4.26,0,0,0,300,310.57Zm28.38,22.49a2.83,2.83,0,0,0,.69.73c.16-.08.33-.15.5-.25A3.91,3.91,0,0,0,328.37,333.06Z" style="fill:#fff"></path><path d="M295.79,320.75c2.51-2.9,5.25-5.62,7.94-8.35s5.42-5.35,8.2-7.95c1.61-1.51,3.25-3,4.85-4.48.05-.05.14,0,.09.09-2.73,2.7-5.36,5.5-8.06,8.23s-5.4,5.37-8.13,8c-1.57,1.54-3.13,3.1-4.77,4.56C295.83,320.93,295.72,320.82,295.79,320.75Z" style="fill:#263238"></path><path d="M365.88,304.22c-11.91,16.16-38.24,33-47.4,32.82a10.12,10.12,0,0,1-2.84-.53l54.91-47.81C373.39,290.36,372.38,295.4,365.88,304.22Z" style="opacity:0.1"></path><path d="M381,287.73c-.33,1.14-6.24,8.35-11.51,7.82-1.71-.18-1.17-9.58-1.17-9.58l-.12-.7-1.66-9.84,11.81-6.72,1.7-.89s.28,2.73.59,6.12c0,.16,0,.31,0,.48a5.62,5.62,0,0,1,.06.56c.06.5.11,1,.15,1.53s.06.78.08,1.19,0,.82.08,1.24A64.75,64.75,0,0,1,381,287.73Z" style="fill:#f7a9a0"></path><path d="M380.65,273.94a20,20,0,0,1-12.44,11.33l-1.66-9.84,11.81-6.72,1.7-.89S380.34,270.55,380.65,273.94Z" style="fill:#263238"></path><path d="M354.28,257.57c-4.12,17,5.61,21.42,9.28,22.3,3.34.8,14.79,3.11,20.64-13.4s-.76-23.8-8.28-26S358.39,240.55,354.28,257.57Z" style="fill:#f7a9a0"></path><path d="M357.78,254.71a8.17,8.17,0,0,0,1.21-.05,1.93,1.93,0,0,0,1.22-.28.62.62,0,0,0,.13-.75,1.55,1.55,0,0,0-1.44-.61,2.31,2.31,0,0,0-1.54.55A.66.66,0,0,0,357.78,254.71Z" style="fill:#263238"></path><path d="M369.21,257.22a11.07,11.07,0,0,1-1.13-.45,1.93,1.93,0,0,1-1.06-.67.63.63,0,0,1,.13-.75,1.55,1.55,0,0,1,1.56-.1,2.28,2.28,0,0,1,1.27,1A.67.67,0,0,1,369.21,257.22Z" style="fill:#263238"></path><path d="M366.17,260.93s.08.07.07.12c-.26,1.17-.37,2.54.62,3.14,0,0,0,.07,0,.06C365.58,263.82,365.74,262,366.17,260.93Z" style="fill:#263238"></path><path d="M367.45,259.91c1.91.22,1.33,4-.44,3.82S365.85,259.72,367.45,259.91Z" style="fill:#263238"></path><path d="M368.17,260.22c.3.27.57.7,1,.8s.87-.23,1.23-.56c0,0,.07,0,.06.05-.1.73-.5,1.44-1.29,1.43s-1.15-.74-1.22-1.5C367.9,260.3,368.05,260.12,368.17,260.22Z" style="fill:#263238"></path><path d="M359.33,259.4s-.1.05-.11.09c-.13,1.19-.48,2.53-1.61,2.76,0,0,0,.07,0,.07C358.94,262.33,359.39,260.55,359.33,259.4Z" style="fill:#263238"></path><path d="M358.45,258c-1.87-.42-2.57,3.36-.83,3.75S360,258.37,358.45,258Z" style="fill:#263238"></path><path d="M357.62,258.12c-.34.15-.7.46-1.06.41s-.65-.51-.84-.95c0-.05-.06,0-.07,0-.15.72,0,1.51.62,1.78s1.19-.29,1.49-1C357.82,258.28,357.75,258.06,357.62,258.12Z" style="fill:#263238"></path><path d="M364.64,270.14c-.32.25-.64.6-1.07.59a3.32,3.32,0,0,1-1.25-.43s-.08,0-.06.05a1.63,1.63,0,0,0,1.44.81,1.3,1.3,0,0,0,1.05-1C364.77,270.14,364.68,270.11,364.64,270.14Z" style="fill:#263238"></path><path d="M360.42,265.08s-.53,1.71-.67,2.54c0,.08.18.15.46.21,0,0,0,0,0,0a4,4,0,0,0,4.07-.84c.07-.07,0-.17-.1-.14a6,6,0,0,1-3.77.44c0-.24,1-2.91.88-2.94a7.38,7.38,0,0,0-1.95.12c1-3.61,2.58-7,3.53-10.64a.12.12,0,0,0-.21-.09A60.82,60.82,0,0,0,358.4,265C358.26,265.5,360.06,265.16,360.42,265.08Z" style="fill:#263238"></path><path d="M360.38,267.54a4.83,4.83,0,0,0,1.62,1.87,2.2,2.2,0,0,0,1.29.35c1-.06,1.2-.93,1.17-1.71a5.2,5.2,0,0,0-.2-1.22A6.29,6.29,0,0,1,360.38,267.54Z" style="fill:#263238"></path><path d="M362,269.41a2.2,2.2,0,0,0,1.29.35c1-.06,1.2-.93,1.17-1.71A2.27,2.27,0,0,0,362,269.41Z" style="fill:#ff9cbd"></path><path d="M367.2,242.28a7.53,7.53,0,0,0,0,4.47c1.64,3.94,6.33,3.16,7.84,4.76s.75,4.43,2,5.93c1.76,2.07,4.34,1.43,4.58,2.77s.91,5.63,2.58,6.25,10.86-27.15-11.35-27.37c0,0-3-1.4-7.82.74s-8.56,11.08-8.56,11.08a13.54,13.54,0,0,0,1.44-1c1.12-.89,1.57-1.74,2.39-2.31,1.28-.9,1.94-.5,3.26-1.37A14.55,14.55,0,0,0,367.2,242.28Z" style="fill:#263238"></path><path d="M367.6,241.07a14.6,14.6,0,0,0-.82,3.36,6.12,6.12,0,0,0,.31,3.32,4.64,4.64,0,0,0,2.44,2.1c1,.44,2.19.61,3.3,1.12a3.41,3.41,0,0,1,1.43,1.19,4.57,4.57,0,0,1,.57,1.74A6.17,6.17,0,0,0,375.9,257a3.83,3.83,0,0,0,2.91,1.4c1.12.06,2.37-.19,3.43.35-1.1-.45-2.26-.11-3.43-.08a4.15,4.15,0,0,1-3.22-1.39,6.17,6.17,0,0,1-1.25-3.32,4,4,0,0,0-.52-1.54,3.05,3.05,0,0,0-1.22-1c-1-.48-2.17-.67-3.27-1.15a6.37,6.37,0,0,1-1.53-.94,3.63,3.63,0,0,1-1.1-1.46,6.41,6.41,0,0,1-.19-3.52A14.85,14.85,0,0,1,367.6,241.07Z" style="fill:#263238"></path><path d="M367.12,242.06a12.23,12.23,0,0,1-1.23,3,5.65,5.65,0,0,1-2.34,2.33,8.65,8.65,0,0,1-1.56.52,2.68,2.68,0,0,0-1.24.74,8,8,0,0,1-1,1.26,3.6,3.6,0,0,1-1.45.75,4,4,0,0,0,1.26-.94,8,8,0,0,0,.88-1.32,2.78,2.78,0,0,1,1.42-1,9,9,0,0,0,1.47-.51,6,6,0,0,0,2.22-2.09A23.37,23.37,0,0,0,367.12,242.06Z" style="fill:#263238"></path><path d="M382,266.2s4.6-4.84,6.85-3.12-1.79,9.13-4.83,9.76a3,3,0,0,1-3.68-2.17Z" style="fill:#f7a9a0"></path><path d="M387.59,265.18c.05,0,0,.07,0,.08-2.14.51-3.49,2.22-4.53,4.05a1.64,1.64,0,0,1,2.49-.08c.05,0,0,.12-.07.1a1.83,1.83,0,0,0-2.08.33,8.35,8.35,0,0,0-1.19,1.46c-.12.16-.44,0-.34-.18l0,0C382.24,268.32,384.79,265,387.59,265.18Z" style="fill:#263238"></path><path d="M346,365.57h65.56s-10.64-60.69-24.65-75.9a20.89,20.89,0,0,0-1.65-1.62c-.86-.72-.74-6.47-1.14-6.86s-17.43,1.8-17.65,2.22-1.09,5.83-1.09,5.83c-3.86,4.92-16.29,21.95-17.75,29S350.73,333,350.73,333Z" style="fill:#FFC727"></path><path d="M369.23,319.91a4.19,4.19,0,0,1,.27-1.55,4.19,4.19,0,0,1,.27,1.55,4.26,4.26,0,0,1-.27,1.55A4.26,4.26,0,0,1,369.23,319.91Zm-8.76,19.23a4.58,4.58,0,0,0,0-3.1,4,4,0,0,0-.28,1.55A4.24,4.24,0,0,0,360.47,339.14Zm22.75.59a4.58,4.58,0,0,0,0-3.1,4.58,4.58,0,0,0,0,3.1Zm-11.89,17.94a4.22,4.22,0,0,0,.27-1.55,4,4,0,0,0-.27-1.55,4.58,4.58,0,0,0,0,3.1ZM392.92,365a4.2,4.2,0,0,0,.28-1.55,4.07,4.07,0,0,0-.28-1.55,4.26,4.26,0,0,0-.27,1.55A4.19,4.19,0,0,0,392.92,365Zm-17.71-63.7a4.19,4.19,0,0,0,.27-1.55,4.26,4.26,0,0,0-.27-1.55,4.26,4.26,0,0,0-.27,1.55A4.19,4.19,0,0,0,375.21,301.26Zm14.24,17.52a4,4,0,0,0,.28-1.55,4.07,4.07,0,0,0-.28-1.55,4.26,4.26,0,0,0-.27,1.55A4.19,4.19,0,0,0,389.45,318.78Zm14.7,28.29a4.26,4.26,0,0,0,.27-1.55,4.19,4.19,0,0,0-.27-1.55,4,4,0,0,0-.28,1.55A4.07,4.07,0,0,0,404.15,347.07Zm-51.52-35.43a4.26,4.26,0,0,0,.27-1.55,4.19,4.19,0,0,0-.27-1.55,4.19,4.19,0,0,0-.27,1.55A4.26,4.26,0,0,0,352.63,311.64Zm28.1,2.94a4.07,4.07,0,0,0-1.55-.28,4,4,0,0,0-1.55.28,4.19,4.19,0,0,0,1.55.27A4.26,4.26,0,0,0,380.73,314.58Zm1.55,34.51a4.26,4.26,0,0,0-1.55-.27,4.19,4.19,0,0,0-1.55.27,4,4,0,0,0,1.55.28A4.27,4.27,0,0,0,382.28,349.09ZM354.63,320.6a4,4,0,0,0-1.55-.28,4.07,4.07,0,0,0-1.55.28,4.26,4.26,0,0,0,1.55.27A4.19,4.19,0,0,0,354.63,320.6Zm38.18-18.88a4.19,4.19,0,0,0-1.55-.27,4.26,4.26,0,0,0-1.55.27,4.07,4.07,0,0,0,1.55.28A4,4,0,0,0,392.81,301.72Zm.11,26.74a4.19,4.19,0,0,0-1.55-.27,4.26,4.26,0,0,0-1.55.27,4.07,4.07,0,0,0,1.55.28A4,4,0,0,0,392.92,328.46Zm10.82,27.39a4.19,4.19,0,0,0-1.55-.27,3.88,3.88,0,0,0-1.55.27,4.26,4.26,0,0,0,1.55.27A4.19,4.19,0,0,0,403.74,355.85Zm-42.27-53.76a4.19,4.19,0,0,0-1.55-.27,4.26,4.26,0,0,0-1.55.27,4.26,4.26,0,0,0,1.55.27A4.19,4.19,0,0,0,361.47,302.09ZM371.6,331a4.19,4.19,0,0,0-1.55-.27,4.06,4.06,0,0,0-1.55.27,4.26,4.26,0,0,0,1.55.27A4.19,4.19,0,0,0,371.6,331ZM349.47,364.4a4.43,4.43,0,0,0-3.1,0,4.58,4.58,0,0,0,3.1,0Zm12.82-15a4.43,4.43,0,0,0-3.1,0,4.58,4.58,0,0,0,3.1,0Zm-2.65,13.87a4,4,0,0,0,1.29-.9,4.17,4.17,0,0,0,.91-1.29,4.15,4.15,0,0,0-1.29.9A4.42,4.42,0,0,0,359.64,363.24Zm41.46-27.46a4.25,4.25,0,0,0,1.28-.91,4.17,4.17,0,0,0,.91-1.29,4.17,4.17,0,0,0-1.29.91A4,4,0,0,0,401.1,335.78Zm-22.57-9a4.32,4.32,0,0,0,1.29-.9,4.42,4.42,0,0,0,.91-1.29,4,4,0,0,0-1.29.9A4.17,4.17,0,0,0,378.53,326.81Zm12.41,23.65a4.05,4.05,0,0,0,1.28-.9,4.17,4.17,0,0,0,.91-1.29,4,4,0,0,0-1.29.9A4.21,4.21,0,0,0,390.94,350.46Zm19.91,12.86a2.06,2.06,0,0,0,.33-.17l-.06-.32A2.12,2.12,0,0,0,410.85,363.32Zm-16.62-52.14a4.05,4.05,0,0,0,1.28-.9,4.17,4.17,0,0,0,.91-1.29,4,4,0,0,0-1.29.9A4.21,4.21,0,0,0,394.23,311.18Zm-25.83-1.85a4,4,0,0,0,1.29-.9,4.17,4.17,0,0,0,.91-1.29,4.15,4.15,0,0,0-1.29.9A4.42,4.42,0,0,0,368.4,309.33Zm-17.14,35.74a4.17,4.17,0,0,0,1.29-.91,4,4,0,0,0,.9-1.29,4.42,4.42,0,0,0-1.29.91A4.32,4.32,0,0,0,351.26,345.07Zm28.37-50.19a4.17,4.17,0,0,0,1.29-.91,4,4,0,0,0,.9-1.29,4.42,4.42,0,0,0-1.29.91A4.15,4.15,0,0,0,379.63,294.88ZM359.2,327.41a4.42,4.42,0,0,0,1.29-.91,4,4,0,0,0,.9-1.29,4.17,4.17,0,0,0-1.29.91A4,4,0,0,0,359.2,327.41Zm0-14.57a4.49,4.49,0,0,0,2.19,2.19,4.21,4.21,0,0,0-.9-1.29A4.59,4.59,0,0,0,359.2,312.84Zm33.93,25.79a4.15,4.15,0,0,0,.9,1.29,4.42,4.42,0,0,0,1.29.91,4,4,0,0,0-.9-1.29A4.17,4.17,0,0,0,393.13,338.63Zm-42.69-6.14a4.21,4.21,0,0,0,.9,1.29,4,4,0,0,0,1.29.9,4.32,4.32,0,0,0-.9-1.29A4.21,4.21,0,0,0,350.44,332.49Zm29.76,26.9a4.17,4.17,0,0,0,.91,1.29,4.25,4.25,0,0,0,1.28.91,4,4,0,0,0-.9-1.29A4.17,4.17,0,0,0,380.2,359.39Zm1.93-52.87a4.21,4.21,0,0,0,.9,1.29,4,4,0,0,0,1.29.9,4.17,4.17,0,0,0-.91-1.29A4.05,4.05,0,0,0,382.13,306.52Zm-11.62,36.35a4,4,0,0,0,.9,1.29,4.17,4.17,0,0,0,1.29.91,4,4,0,0,0-.9-1.29A4.42,4.42,0,0,0,370.51,342.87Zm-19.62,11.7a4.32,4.32,0,0,0,.9,1.29,4.21,4.21,0,0,0,1.29.9,4.21,4.21,0,0,0-.9-1.29A4.32,4.32,0,0,0,350.89,354.57Zm47.32-33a4.42,4.42,0,0,0,.91,1.29,4,4,0,0,0,1.29.9,4.17,4.17,0,0,0-.91-1.29A4,4,0,0,0,398.21,321.58Zm-32.8-26.7a4.6,4.6,0,0,0,2.19,2.19,4.49,4.49,0,0,0-2.19-2.19Z" style="fill:#fff"></path><path d="M382.63,287.18a13.06,13.06,0,0,0-.11-4.61,13.06,13.06,0,0,0,.11,4.61Z" style="fill:#263238"></path><path d="M379.57,287.53a13.06,13.06,0,0,0-.11-4.61,13.06,13.06,0,0,0,.11,4.61Z" style="fill:#263238"></path><path d="M376.51,287.88a13.06,13.06,0,0,0-.11-4.61,12,12,0,0,0-.15,2.31A12.1,12.1,0,0,0,376.51,287.88Z" style="fill:#263238"></path><path d="M373.45,288.22a12,12,0,0,0,.15-2.31,12.1,12.1,0,0,0-.26-2.3,12.06,12.06,0,0,0-.15,2.31A11.92,11.92,0,0,0,373.45,288.22Z" style="fill:#263238"></path><path d="M370.39,288.57a11.21,11.21,0,0,0,.14-2.31,12,12,0,0,0-.25-2.3,12,12,0,0,0-.15,2.31A11.18,11.18,0,0,0,370.39,288.57Z" style="fill:#263238"></path><path d="M367.33,288.92a13.72,13.72,0,0,0-.11-4.61,13.06,13.06,0,0,0,.11,4.61Z" style="fill:#263238"></path><path d="M359.87,331.39a38.84,38.84,0,0,1,10,1.67c3.27.93,10.51,3.79,12.32,4.5a0,0,0,1,1,0,.07,60.72,60.72,0,0,1-7-2.1c-3.21-1.09-6.44-2.07-9.73-2.93a44.7,44.7,0,0,0-5.64-1A.1.1,0,0,1,359.87,331.39Z" style="fill:#263238"></path><path d="M353.89,333.11a31.22,31.22,0,0,1,10.54.94s0,.08,0,.07c-1.75-.21-3.49-.41-5.24-.56s-3.53-.23-5.29-.35A.05.05,0,0,1,353.89,333.11Z" style="fill:#263238"></path><path d="M394.38,294.74C412,312.55,434.06,350,429.94,357.62c-4.59,8.46-29.06-16.51-29-18,.07-1.1-8.54-23.86-15.07-40.41S390,290.34,394.38,294.74Z" style="fill:#f7a9a0"></path><path d="M400.81,339.68c-.75-2.44-12.46-32.45-15.81-41.94s-.25-12.42,9.32-3.73,30.52,37.73,35.3,53.14c4.61,14.85-3,14.85-13.12,8C408.24,349.55,400.81,339.68,400.81,339.68Z" style="fill:#FFC727"></path><path d="M407.62,324a4.17,4.17,0,0,0-1.37-.76,3.92,3.92,0,0,0,1,1.18,4.19,4.19,0,0,0,1.37.77A4,4,0,0,0,407.62,324Zm-4.56,17.13a4.17,4.17,0,0,0-1.37-.76,3.92,3.92,0,0,0,1,1.18,4.19,4.19,0,0,0,1.37.77A4,4,0,0,0,403.06,341.11Zm19.75,10.72a4.14,4.14,0,0,0-1.38-.77,4.13,4.13,0,0,0,1,1.19,4.07,4.07,0,0,0,1.37.76A4.22,4.22,0,0,0,422.81,351.83ZM402,311.91a4.14,4.14,0,0,0-.77,1.38,4.26,4.26,0,0,0,1.19-1,4.14,4.14,0,0,0,.77-1.38A4.12,4.12,0,0,0,402,311.91Zm-13-12.37a4.14,4.14,0,0,0-.77,1.38,4.26,4.26,0,0,0,1.19-1,4.14,4.14,0,0,0,.77-1.38A4.12,4.12,0,0,0,389,299.54Zm39.31,43.94a4,4,0,0,0-1.11,1,4.35,4.35,0,0,0-.76,1.37,4.08,4.08,0,0,0,1.19-1,4.45,4.45,0,0,0,.71-1.24S428.29,343.51,428.28,343.48Zm-16.93-7.82a4.14,4.14,0,0,0-.77,1.38,4.26,4.26,0,0,0,1.19-1,4,4,0,0,0,.76-1.38A4.22,4.22,0,0,0,411.35,335.66Zm1.32-19.17a4.11,4.11,0,0,0-1.16,0,4,4,0,0,0-1.52.43,4.22,4.22,0,0,0,1.57.11,5.05,5.05,0,0,0,1.26-.31Zm7.52,22.66a4,4,0,0,0-1.51.43,4.22,4.22,0,0,0,1.57.11,4.4,4.4,0,0,0,1.51-.43A4,4,0,0,0,420.19,339.15Zm-19.13-8.65a5.78,5.78,0,0,0-.93,0,5.25,5.25,0,0,0-.55.09l-.21.05a3.57,3.57,0,0,0-.6.21l-.16.08.24.06a3.36,3.36,0,0,0,.77.08h.24l.32,0a4,4,0,0,0,1.06-.24,2,2,0,0,0,.46-.19A3,3,0,0,0,401.06,330.5Zm-3.7-25.42a4,4,0,0,0-1.52.43,4.58,4.58,0,0,0,3.09-.32A4.22,4.22,0,0,0,397.36,305.08Zm33.33,50.32a4.22,4.22,0,0,0-.11,1.57s0,.08,0,.12a5.8,5.8,0,0,0,.29-1.21h0A2.14,2.14,0,0,0,430.69,355.4Zm-15.8-9a4,4,0,0,0-.43-1.51,4.22,4.22,0,0,0-.11,1.57,4.4,4.4,0,0,0,.43,1.51A4,4,0,0,0,414.89,346.38Zm1.74-18a4,4,0,0,0-.43-1.52,4.22,4.22,0,0,0-.11,1.57,4.3,4.3,0,0,0,.43,1.52A4.22,4.22,0,0,0,416.63,328.4Zm-19.28-8.63a4,4,0,0,0-.43-1.51,4.19,4.19,0,0,0-.11,1.57,4.4,4.4,0,0,0,.43,1.51A4,4,0,0,0,397.35,319.77Zm-3.3-25.09a4.69,4.69,0,0,0-.27-1.15l0-.09c0-.09-.08-.18-.13-.27a.94.94,0,0,0,0,.16v0a4.08,4.08,0,0,0-.07,1.39,4,4,0,0,0,.43,1.51A4.19,4.19,0,0,0,394.05,294.68Z" style="fill:#fff"></path><path d="M400.81,339.68c-1.21-2.6-2.31-5.24-3.4-7.88s-2.13-5.31-3.15-8-2-5.35-2.93-8.05l-1.39-4.06c-.43-1.37-.89-2.72-1.29-4.1.61,1.3,1.16,2.62,1.75,3.93l1.65,4c1.09,2.64,2.12,5.3,3.14,8s2,5.35,2.93,8.06S400,336.93,400.81,339.68Z" style="fill:#263238"></path><path d="M388.65,310a11.67,11.67,0,0,1,1.16,1.61c.33.56.64,1.11,1,1.71a2.63,2.63,0,0,1-.8-.64,5.21,5.21,0,0,1-.61-.81A5.41,5.41,0,0,1,388.65,310Z" style="fill:#263238"></path><path d="M429.94,357.62c-4,5.65-14.73,6.73-41.58,12-3.72.73-15.91-24.11-12-25.09,4.95-1.24,24.42-5,25.88-5.06C414.55,338.68,432.62,353.78,429.94,357.62Z" style="fill:#f7a9a0"></path><path d="M381.75,343.29s-11.38,1.72-17.07,4.48c-7.63,3.68-12.7,10-14.67,12.79-4.1,5.8-10,22.65-5.44,25.2,4.13,2.31,9.29-15.23,9.29-15.23s-8.22,17-2.74,18.88,10.32-18.84,10.32-18.84-8.05,17.67-2.1,18.7c4.5.77,9.94-17.73,9.94-17.73s-6.81,15.24-2.22,16.23c5.08,1.11,11.17-15.66,11.17-15.66,12.1.57,18.09-4.11,22-7.94C401.13,363.24,381.75,343.29,381.75,343.29Z" style="fill:#f7a9a0"></path><path d="M356.32,364.47c-1,2-2.1,3.94-3,6s-1.64,4.13-2.31,6.25a37.69,37.69,0,0,0-1.8,8.49c.86-5.09,3.83-12.48,4.68-14.53s1.62-4.13,2.47-6.17C356.43,364.44,356.35,364.42,356.32,364.47Z" style="fill:#263238"></path><path d="M363.78,367.43c-1.22,2.57-2.52,5.07-3.62,7.69s-1.91,5.17-2.83,7.85c-.07.2.07.17.14,0,1-2.64,2.17-5,3.23-7.62s2-5.29,3.14-7.86A0,0,0,1,0,363.78,367.43Z" style="fill:#263238"></path><path d="M370.64,368.83A62.83,62.83,0,0,0,366,381c-.06.21.11.15.18-.05,1.47-4.08,2.59-7.29,4.59-12.05C370.8,368.83,370.68,368.75,370.64,368.83Z" style="fill:#263238"></path><path d="M379.38,343.29l23.53,26.2S426.7,364,430.2,357.93c2.31-4-15.6-20.29-29.12-18.39Z" style="fill:#FFC727"></path><path d="M398.88,363.21a4,4,0,0,0-.43-1.51,4.22,4.22,0,0,0-.11,1.57,4.4,4.4,0,0,0,.43,1.51A4,4,0,0,0,398.88,363.21ZM396,346.38a4,4,0,0,0-.43-1.51,4.22,4.22,0,0,0-.11,1.57,4.4,4.4,0,0,0,.43,1.51A4,4,0,0,0,396,346.38Zm18.89,0a4,4,0,0,0-.43-1.51,4.22,4.22,0,0,0-.11,1.57,4.4,4.4,0,0,0,.43,1.51A4,4,0,0,0,414.89,346.38ZM411.53,365a4,4,0,0,0-1.51.43,4.55,4.55,0,0,0,3.08-.32A4.19,4.19,0,0,0,411.53,365ZM394,354.17a4,4,0,0,0-1.51.43,4.55,4.55,0,0,0,3.08-.32A4.19,4.19,0,0,0,394,354.17Zm19.77,2.45a4,4,0,0,0-1.51.43,4.55,4.55,0,0,0,3.08-.32A4.19,4.19,0,0,0,413.72,356.62Zm-27.48-11.73a4.14,4.14,0,0,0-.77,1.38,4.26,4.26,0,0,0,1.19-1,4,4,0,0,0,.76-1.38A4.22,4.22,0,0,0,386.24,344.89Zm18.43,4.39a4.35,4.35,0,0,0-.76,1.37,4.08,4.08,0,0,0,1.19-1,4.25,4.25,0,0,0,.76-1.37A4.08,4.08,0,0,0,404.67,349.28Zm19.23,12.77a3.91,3.91,0,0,0-.5.77l.94-.45h0a4.14,4.14,0,0,0,.74-1.34A4.26,4.26,0,0,0,423.9,362.05Zm-1.09-10.22a4.14,4.14,0,0,0-1.38-.77,4.13,4.13,0,0,0,1,1.19,4.07,4.07,0,0,0,1.37.76A4.22,4.22,0,0,0,422.81,351.83Zm-18.23,5.63a4.17,4.17,0,0,0-1.37-.76,3.92,3.92,0,0,0,1,1.18,4.19,4.19,0,0,0,1.37.77A4,4,0,0,0,404.58,357.46Zm-1.52-16.35a4.17,4.17,0,0,0-1.37-.76,3.92,3.92,0,0,0,1,1.18,4.19,4.19,0,0,0,1.37.77A4,4,0,0,0,403.06,341.11Z" style="fill:#fff"></path><path d="M417.21,343.8a23.43,23.43,0,0,0-16.15-4.28c-.07,0-.07.12,0,.12,5.9-.17,13.87,2.92,16.1,4.26C417.22,343.94,417.26,343.84,417.21,343.8Z" style="fill:#263238"></path><path d="M409.34,365.11c-2.43-3-5-5.91-7.62-8.79s-5.2-5.77-7.88-8.58c-1.51-1.59-3-3.2-4.57-4.73,0,0-.12,0-.08.06,2.42,3,5,5.92,7.58,8.81s5.2,5.77,7.84,8.62c1.49,1.61,3,3.19,4.58,4.73C409.27,365.31,409.41,365.2,409.34,365.11Z" style="fill:#263238"></path><path d="M379.34,343a34.36,34.36,0,0,1,4.41-1c1.48-.28,3-.53,4.46-.77,3-.48,9.2-1.82,14.68-1.81.06,0-.25.3-.31.29-2.61-.14-21.3,3.58-22.84,3.69a3.07,3.07,0,0,1,.17.31c0,.08-.05.17-.13.12s-.33-.29-.51-.43A.22.22,0,0,1,379.34,343Z" style="fill:#263238"></path></g><g id="freepik--character-3--inject-109"><rect x="297.9" y="50.49" width="166.62" height="143.48" style="fill:#fff"></rect><path d="M464.78,194.22H297.65v-144H464.78Zm-166.63-.5H464.28v-143H298.15Z" style="fill:#a6a6a6"></path><rect x="297.9" y="50.3" width="166.62" height="9.4" style="fill:#455a64"></rect><path d="M306.05,55A2,2,0,1,1,304,53,2,2,0,0,1,306.05,55Z" style="fill:#c7c7c7"></path><path d="M314.4,55a2,2,0,1,1-2-2A2,2,0,0,1,314.4,55Z" style="fill:#fff"></path><path d="M322.74,55a2,2,0,1,1-2-2A2,2,0,0,1,322.74,55Z" style="fill:#FFC727"></path><path d="M392.88,128.73c-16.64,16-36.27,32.63-45.76,31.53-7.39-.86-34.3-15-42.09-30.07-1.71-3.33,24.65-13.61,26.33-11.58,4.94,6,20.33,14.61,21.53,14.11,1.57-.66,20.42-9.82,33.21-15.37C403.32,109.87,401.49,120.44,392.88,128.73Z" style="fill:#d3766a"></path><path d="M298.6,125.76c2.94,5.37,13.25,14,16.54,15.13S333.69,125,333,121.47s-11.94-20.83-17.71-23.23S295.56,120.19,298.6,125.76Z" style="fill:#d3766a"></path><path d="M331.64,118.18a50.56,50.56,0,0,1,.39-14.76c1.22-5.77,3.68-14.21.6-15-6.33-1.58-12.45,19.46-12.45,19.46s-1.21,9.72,4.91,11.84A6.44,6.44,0,0,0,331.64,118.18Z" style="fill:#d3766a"></path><path d="M323.46,103.72c-1.7,2.76-3.88,1.22-3.88,1.22s4.68,4.21,3.25,7.49-5.83.57-6.15.38c.25.23,4.45,4.21,2.67,7.36s-5.86-.1-6.12-.32c.17.29,2.29,4.09.39,6.18-3.27,3.58-9-6-12.81-6.8,0,0-2.11,6.36-2.21,6.53,0,0-5.61-9-4.23-14.13a3.39,3.39,0,0,1,3.39-2.56s-2.13-2.7-.81-5.23c.69-1.29,3.37-1.35,3.37-1.35a4.24,4.24,0,0,1-.3-4.41c1.05-1.74,3.58-1.53,3.58-1.53S293.24,87,295.42,84c3.76-5.18,24.77,16.43,27.56,16C324.36,99.79,324.2,102.52,323.46,103.72Z" style="fill:#d3766a"></path><path d="M304,96.53c-.05,0,0-.1,0-.09A30.22,30.22,0,0,1,319.8,105c.13.14.27,1,.11.88C316,102.14,309.85,98.72,304,96.53Z" style="fill:#263238"></path><path d="M300.25,102.42c-.06,0,0-.13.05-.11a28.28,28.28,0,0,1,16.62,10.44c.14.19.07.5-.1.29C313.86,109.54,305.53,104.37,300.25,102.42Z" style="fill:#263238"></path><path d="M313.38,120.34c-4.08-5.2-9.4-8.56-15.37-11.23-.08,0,0-.14.05-.13,3.27.51,6.9,2.61,9.59,4.48a17.38,17.38,0,0,1,5.91,6.74C313.61,120.3,313.47,120.45,313.38,120.34Z" style="fill:#263238"></path><path d="M319.69,104.93c.16.17-.56.22-.41.4,1.64,1.94,4.41,5.54,3.14,7.23-1,1.35-3.55.92-4.45.37l-2.28-1.37,1.66,2.08a11.09,11.09,0,0,1,1.75,3.06,3.93,3.93,0,0,1,0,3.19,2.23,2.23,0,0,1-2.52,1.21,6.6,6.6,0,0,1-2.95-1.63l-2.37-2.09,1.55,2.74a10.34,10.34,0,0,1,1,2.41,4.22,4.22,0,0,1,0,2.44,2,2,0,0,1-1.63,1.33,4.4,4.4,0,0,1-2.37-.73,34.83,34.83,0,0,1-4.35-3.3c-.71-.59-1.43-1.18-2.17-1.74a6.55,6.55,0,0,0-2.44-1.3,7.06,7.06,0,0,1,2.28,1.5c.69.6,1.35,1.24,2,1.88a29.21,29.21,0,0,0,4.27,3.61,5.18,5.18,0,0,0,2.81,1,2.84,2.84,0,0,0,2.49-1.88,5.11,5.11,0,0,0,.06-3,11.12,11.12,0,0,0-1.05-2.7l-.82.64a7.73,7.73,0,0,0,3.46,2,3.17,3.17,0,0,0,2.17-.26,3.62,3.62,0,0,0,1.51-1.54,4.93,4.93,0,0,0,0-4,12,12,0,0,0-2-3.34l-.62.71c1.18.66,3.95,1.45,5.8-.45C325.29,110.45,320.61,105.73,319.69,104.93Z" style="fill:#263238"></path><path d="M334.12,120.38l-21.84,25.1S338.57,162,348.81,161.2s34.19-20.1,45.86-33.81c11.92-14,.91-15-8.12-10.63s-33.09,15.18-33.76,15.14S334.12,120.38,334.12,120.38Z" style="fill:#455a64"></path><path d="M329.91,136.08c1.46-1.74,2.92-3.48,4.39-5.2s2.89-3.52,4.48-5.13c.07-.07.21,0,.15.11-1.23,1.8-2.67,3.49-4,5.21s-2.89,3.62-4.35,5.43c-2.88,3.57-5.89,7-9,10.42-.08.09-.18,0-.12-.11C324.21,143.17,327,139.58,329.91,136.08Z" style="fill:#263238"></path><path d="M394.66,127.39c-11.66,13.7-35.61,33.05-45.85,33.81-2.38.17-5.65-.58-9.23-1.86L396,114.47C400.56,114.81,402.25,118.48,394.66,127.39Z" style="opacity:0.1"></path><path d="M435.38,194H368.53c-.3-2.75,12.59-68.77,20-78.38,1.58-2,6.78-2.62,11.2-2.07a19.38,19.38,0,0,1,3.41.69l.11,0a7.57,7.57,0,0,1,2.5,1.23C421.1,128.65,436,193.3,435.38,194Z" style="fill:#455a64"></path><path d="M403.87,125.82c2.83,11.48,22.11,52.05,23.46,54.42,0,0,25.29,19.88,28.66,4.21s-26.78-45.93-40.55-61.1C407.15,114.22,401.9,117.86,403.87,125.82Z" style="fill:#455a64"></path><path d="M425.24,175.68c-1.62-3-3.16-6.06-4.67-9.12s-3-6.16-4.42-9.25-2.82-6.22-4.15-9.37-2.62-6.31-3.73-9.54c1.4,3.12,2.83,6.21,4.26,9.31l4.3,9.29,4.26,9.32C422.49,169.43,423.9,172.54,425.24,175.68Z" style="fill:#263238"></path><path d="M408.62,142.26c.5.6.93,1.24,1.39,1.86l.68.93a7,7,0,0,0,.74.89,6.32,6.32,0,0,1-1.62-1.68A13.88,13.88,0,0,1,408.62,142.26Z" style="fill:#263238"></path><path d="M410.14,173.93c-3.46,1.56-17.25,25.06-11.67,25.25,26.24.89,50.71-6.11,54.58-9.57,5.07-4.54,3.38-12.87,0-15.74C448.09,169.71,413.56,172.39,410.14,173.93Z" style="fill:#d3766a"></path><path d="M410.14,173.93l-9.47,32.56c26-.4,48.51-13.42,52.38-16.88,5.07-4.54,3.38-12.87,0-15.74C448.09,169.71,413.56,172.39,410.14,173.93Z" style="fill:#455a64"></path><path d="M412.87,188.82q1.06-3.57,2.16-7.11c.74-2.35,1.39-4.77,2.29-7.06,0-.11.22-.08.2,0-.46,2.33-1.18,4.65-1.8,6.95s-1.33,4.88-2,7.31c-1.35,4.82-2.89,9.57-4.5,14.31,0,.12-.2.05-.17-.06C410.2,198.38,411.44,193.58,412.87,188.82Z" style="fill:#263238"></path><path d="M439.79,171.52a142.72,142.72,0,0,0-28.75,2c-.26,0-.49.52-.34.51,2.62-.09,14.66-2.07,29-2.18C439.8,171.88,439.88,171.53,439.79,171.52Z" style="fill:#263238"></path><polygon points="395.36 133.13 392.16 126.9 388.03 131.4 389.04 135.89 393.12 136.41 395.36 133.13" style="fill:#263238"></polygon><polygon points="395.06 182.23 388.4 193.97 385.58 193.97 381.71 182.32 389.04 135.89 393.11 136.41 395.06 182.23" style="fill:#263238"></polygon><path d="M390.83,126.33c3.88,1.4,11.41-3.92,14.67-8.55.22-.32.11-3.94.18-8.35.05-2.68.17-5.66.48-8.37l-17.47,2.2a43.28,43.28,0,0,1,.46,10.6,6.3,6.3,0,0,1-.24,1.1c0,.05,0,.11-.05.18C388.28,117.21,387.08,125,390.83,126.33Z" style="fill:#d3766a"></path><path d="M404.93,101.22c-.9,3.53-4.6,15.09-14.33,14.21a9.53,9.53,0,0,1-1.74-.3.68.68,0,0,0,0-.17,5.46,5.46,0,0,0,.25-1.11,43.27,43.27,0,0,0-.46-10.59Z" style="fill:#263238"></path><path d="M410.09,80.14c1.59,6.15-2.36,23.52-6.83,27.24-6.49,5.4-16.75,5.5-21.24-2.22-4.35-7.48,1.19-30,6.16-33.37C395.49,66.86,407.73,71.08,410.09,80.14Z" style="fill:#d3766a"></path><path d="M392.91,90.45s.08.07.07.12c-.3,1.16-.45,2.55.53,3.17,0,0,0,.08,0,.06C392.23,93.34,392.44,91.5,392.91,90.45Z" style="fill:#263238"></path><path d="M394.23,89.46c1.91.27,1.22,4.08-.55,3.83S392.62,89.23,394.23,89.46Z" style="fill:#263238"></path><path d="M385.94,88.94s-.1,0-.11.08c-.17,1.19-.57,2.52-1.71,2.72,0,0-.05.07,0,.07C385.45,91.86,386,90.09,385.94,88.94Z" style="fill:#263238"></path><path d="M385.11,87.51c-1.87-.49-2.71,3.3-1,3.75S386.68,87.92,385.11,87.51Z" style="fill:#263238"></path><path d="M396.05,88a15.45,15.45,0,0,1-1.38-.79,2.6,2.6,0,0,1-1.26-1.07.83.83,0,0,1,.31-1,2,2,0,0,1,2,.16,3,3,0,0,1,1.46,1.58A.88.88,0,0,1,396.05,88Z" style="fill:#263238"></path><path d="M384,85.33c.54,0,1-.08,1.58-.12a2.56,2.56,0,0,0,1.6-.43.82.82,0,0,0,.13-1,2,2,0,0,0-1.92-.74,3,3,0,0,0-2,.8A.88.88,0,0,0,384,85.33Z" style="fill:#263238"></path><path d="M391.86,101.39c-.33.22-.68.55-1.11.51a3.09,3.09,0,0,1-1.22-.53s-.08,0-.06,0a1.63,1.63,0,0,0,1.38.92,1.29,1.29,0,0,0,1.12-.88C392,101.4,391.91,101.35,391.86,101.39Z" style="fill:#263238"></path><path d="M391.26,97.63a4.07,4.07,0,0,1-3,1.3,4.81,4.81,0,0,1-1.46-.2,1.07,1.07,0,0,1-.27-.08l-.25-.08a.3.3,0,0,1-.19-.31h0a.53.53,0,0,1,0-.12h0l0-.1c.14-.92.48-2.28.48-2.28-.36.1-2.19.56-2.08.09a61.31,61.31,0,0,1,3.77-11.89.11.11,0,0,1,.21.07c-.77,3.78-2.19,7.39-3,11.17a6.84,6.84,0,0,1,2-.23c.12.06-.7,2.63-.73,3a.07.07,0,0,0,0,.05,5.65,5.65,0,0,0,4.39-.54C391.27,97.45,391.35,97.55,391.26,97.63Z" style="fill:#263238"></path><path d="M387.42,98.52a4.77,4.77,0,0,0,1.72,1.75,2.2,2.2,0,0,0,1.3.26c1-.12,1.13-1,1.05-1.76a5.42,5.42,0,0,0-.27-1.2A6.28,6.28,0,0,1,387.42,98.52Z" style="fill:#263238"></path><path d="M389.14,100.27a2.2,2.2,0,0,0,1.3.26c1-.12,1.13-1,1.05-1.76A2.25,2.25,0,0,0,389.14,100.27Z" style="fill:#ff9cbd"></path><path d="M409.06,95s5.55-10.17,4.73-15.86c-.37-2.57-4-4.16-4-4.16a5.84,5.84,0,0,0-2.12-5.79c-3.18-2.74-10.56-1.76-10.56-1.76s-5.11-6.71-11.78-3.66-1.89,10.56-1.89,10.56-2.33,3.65,3.88,6.14c6,2.42,18-.78,18-.78a42.46,42.46,0,0,0,.76,12.54A3.84,3.84,0,0,0,409.06,95Z" style="fill:#263238"></path><path d="M396,67.59a11.86,11.86,0,0,1,4.73-1.09,12.72,12.72,0,0,1,4.34.48c2.48.76,4.73,2.46,5.26,5.13a5,5,0,0,1-.77,3.8,0,0,0,0,1-.07-.06c1.48-2,.52-5-1.18-6.55C406.37,67.54,403.54,67,401,67a21,21,0,0,0-5,.75A.07.07,0,1,1,396,67.59Z" style="fill:#263238"></path><path d="M380.66,67.28a5.81,5.81,0,0,1,3.85-3.89,9.87,9.87,0,0,1,6.44-.06A12.44,12.44,0,0,1,396.38,67s0,.1-.06.06a11,11,0,0,0-10.67-3.43,6.06,6.06,0,0,0-4.22,3.17,6,6,0,0,0,.38,5A11.22,11.22,0,0,0,386.38,76a0,0,0,0,1,0,.07,11.48,11.48,0,0,1-4.52-3.52A6.47,6.47,0,0,1,380.66,67.28Z" style="fill:#263238"></path><path d="M385.9,80.86a20.41,20.41,0,0,0,8.6,1.1,42.32,42.32,0,0,0,8.93-1.64c1.7-.49,3.38-1,5.05-1.64,0,0,.07.06,0,.09A45.54,45.54,0,0,1,399.44,82a22.9,22.9,0,0,1-8.88.32,19.24,19.24,0,0,1-4.69-1.42S385.86,80.85,385.9,80.86Z" style="fill:#263238"></path><path d="M405.74,94.26s4.31-5.41,6.79-3.84-1,9.58-4.1,10.52a3.07,3.07,0,0,1-4-1.91Z" style="fill:#d3766a"></path><path d="M411.47,92.69a0,0,0,0,1,0,.08c-2.17.73-3.4,2.62-4.31,4.6a1.7,1.7,0,0,1,2.56-.31.06.06,0,0,1-.06.11,1.9,1.9,0,0,0-2.12.53,10,10,0,0,0-1.1,1.62c-.11.18-.44.06-.36-.15l0,0C406.23,96.42,408.56,92.78,411.47,92.69Z" style="fill:#263238"></path><path d="M388.91,114.77l3.72,10.28,13-12.27L409,117S396,136.79,396,135.87L392.14,127l-6.22,5.81L387,117.69Z" style="fill:#37474f"></path><path d="M386,125.32c.26-2.49.45-5,.83-7.49,0-.09.15-.12.17,0,.41,2.44-.63,12-.71,14.27l0,0c.26-.25,5.75-5.1,5.8-5,.85,1.41,3.66,7.85,3.85,8.43,2.05-3.14,9.92-14.55,12.33-17.51a.09.09,0,0,1,.15.1c-1.84,3.33-12.27,18.7-12.41,18.65a96.67,96.67,0,0,1-4-9.34c-.94,1.06-6.51,6.57-6.51,6.19A78.14,78.14,0,0,1,386,125.32Z" style="fill:#263238"></path><rect x="384.28" y="188.76" width="62.13" height="2.79" style="fill:#c7c7c7"></rect><rect x="384.28" y="188.76" width="31.27" height="2.79" style="fill:#a6a6a6"></rect><polygon points="412.19 191.54 351.63 191.54 343.72 150.42 404.27 150.42 412.19 191.54" style="fill:#c7c7c7"></polygon><path d="M381.64,171a3.32,3.32,0,0,1-3.37,3.68,4.09,4.09,0,0,1-4-3.68,3.32,3.32,0,0,1,3.36-3.69A4.11,4.11,0,0,1,381.64,171Z" style="fill:#ebebeb"></path><path d="M404.37,194.46c-4.33,2.34-9.57,7.94-13.18,8.57a4.21,4.21,0,0,1-4.55-2.1s-1.61,3.72-5,3.75c-1.73,0-3.28-2.74-3.28-2.74S377,204.86,374,204.7c-2.38-.12-3.57-2.86-3.57-2.86s-2.68,2.16-5.07,1.25c-4.84-1.84-5.92-22.32,1.46-25.89,3.43-1.66,3.43,3.36,3.43,3.36s1.75-7.21,6-7.54S380,179.2,380,179.2s1.76-7,6.17-6.87c4.59.1,3.07,6.55,3.07,6.55s2.85-4.72,6.2-3.87c5.55,1.4-.74,12.1.56,16.54h7.33Z" style="fill:#d3766a"></path><path d="M398.13,198.46c4.3-1.86,6.35,1.2,10.84.62,5-.65,3.36-6.49-5.39-7.53H396Z" style="fill:#d3766a"></path><path d="M370.13,201.43a.05.05,0,0,1-.1,0,35.63,35.63,0,0,1,.14-21.17c.08-.22.46-.19.43.06A73,73,0,0,0,370.13,201.43Z" style="fill:#263238"></path><path d="M378.35,202c0,.08-.13.1-.15,0-2-6.87-1.95-15.79,1.59-23.09.13-.25.49-.35.37-.05C378.17,184,377.43,195.47,378.35,202Z" style="fill:#263238"></path><path d="M389.65,178.43c-3.12,7.13-3.65,14.54-3.1,22.22,0,.11-.14.1-.17,0-1.29-3.69-1.13-8.62-.68-12.45a20.52,20.52,0,0,1,3.7-9.9C389.49,178.21,389.72,178.28,389.65,178.43Z" style="fill:#263238"></path></g><g id="freepik--character-2--inject-109"><rect x="75.43" y="33.79" width="166.62" height="139.55" style="fill:#fff"></rect><path d="M242.3,173.59H75.18v-140H242.3Zm-166.62-.5H241.8V34H75.68Z" style="fill:#a6a6a6"></path><rect x="75.43" y="33.6" width="166.62" height="9.14" style="fill:#455a64"></rect><path d="M83.57,38.18a2,2,0,1,1-2-2A2,2,0,0,1,83.57,38.18Z" style="fill:#c7c7c7"></path><path d="M91.92,38.18a2,2,0,1,1-2-2A2,2,0,0,1,91.92,38.18Z" style="fill:#fff"></path><path d="M100.27,38.18a2,2,0,1,1-2-2A2,2,0,0,1,100.27,38.18Z" style="fill:#FFC727"></path><path d="M135.78,59c-8,5.83-11.79,16.9-11.79,16.9s-8.45,10.43-7.55,16.93a11.47,11.47,0,0,0,6,8.8l-.13-3.55s1.55,4.77,8.74,7.72,17.42,2.18,23,.38a19.94,19.94,0,0,0,8.58-5.47l-2.7,4.71s7.28.87,12.79-6.17-5.14-20-5.82-22.59.7-20.15-18.06-20C148.82,56.69,141.31,55,135.78,59Z" style="fill:#263238"></path><path d="M119.88,100.79a11.82,11.82,0,0,1-4-5.81,10.75,10.75,0,0,1-.09-7c.94-2.73,2.81-5,4.63-7.18s3.94-4.41,5.78-6.71c.1-.13-.09-.28-.21-.18a64.88,64.88,0,0,0-5.47,5.28,30.84,30.84,0,0,0-4.55,5.58A11.59,11.59,0,0,0,114.09,91a11.23,11.23,0,0,0,1.54,5.16,24,24,0,0,0,4.13,4.76A.09.09,0,1,0,119.88,100.79Z" style="fill:#263238"></path><path d="M175.47,91.59c-1.19-6.74-6.32-11.7-8.95-17.83-1.43-3.32-2.38-6.9-4.44-9.9-.05-.08-.19,0-.14.09,1.66,2.68,2.39,5.71,3.43,8.64A47,47,0,0,0,169.64,81c3,4.92,6.49,10.74,4.71,16.69-.82,2.75-3,5.61-6,6-.11,0-.08.2,0,.18a9.11,9.11,0,0,0,5.81-4.27A11.62,11.62,0,0,0,175.47,91.59Z" style="fill:#263238"></path><path d="M175.47,93.36a12,12,0,0,0-.52-7.2,16.82,16.82,0,0,0-4.47-5.69c-2-1.88-4.24-3.7-5.32-6.34,0-.11-.21,0-.16.08,1.68,4.34,5.78,6.88,8.23,10.69,2.79,4.36,1.93,9.93-1.09,13.95a19.66,19.66,0,0,1-7.14,5.7c-.05,0,0,.09,0,.07C169.8,102.45,174.29,98.68,175.47,93.36Z" style="fill:#263238"></path><path d="M149.11,118c5.38,10,25.89,41.74,37.11,42.87,7.37.74,36.1-5.37,40.32-12.81,1.84-3.24-4.21-23.71-8-22.44s-26.72,7-29.68,6.49-27.2-22.76-35.9-28C138,95.08,146.21,112.59,149.11,118Z" style="fill:#c95f50"></path><path d="M209.59,125.07l4.18,31.3s-22.55,6.82-32.83,4.13C168.46,157.24,147.77,121,144.85,115c-4.78-9.85-4.15-16.09,1.64-15,2.24.4,5.27,1.91,9.06,4.76,4,3,26.92,22.45,34,25.92C193.44,132.58,209.59,125.07,209.59,125.07Z" style="fill:#FFC727"></path><path d="M207.78,155.71c-.75-4.61-3.16-23.58-3.4-27.71,0-.29.16-.37.22-.07,2.59,13.75,2.85,23.19,3.37,27.74C208,155.79,207.8,155.83,207.78,155.71Z" style="fill:#263238"></path><path d="M204.17,158.83c-7.4,1.63-17.33,3.21-23.23,1.68C168.46,157.24,147.77,121,144.86,115c-4.79-9.85-4.16-16.08,1.63-15l.54.12Z" style="opacity:0.1"></path><path d="M200.24,175.81a4.21,4.21,0,0,0-.09-.49c0,.21.09.4.11.61C200.25,175.89,200.25,175.85,200.24,175.81Z" style="fill:#FFC727"></path><path d="M172.29,173.34l-1.65-9.68-2.39-17.19s5.62-9.54,2.36-16.39c-1.65-3.47-16.09-25.05-22.17-29.34-5.7-4-14,.28-17.06,3.44-11.87,12.15-17.47,36.29-21.74,69.16h62.65Z" style="fill:#FFC727"></path><path d="M148.94,110.76q2.59,4.38,4.94,8.9c1.55,3,3.07,6.06,4.4,9.2.65,1.57,1.28,3.16,1.79,4.8a11.69,11.69,0,0,1,.64,5.2,13.56,13.56,0,0,1-1.71,4.95,20.37,20.37,0,0,1-3.11,4.18l.14-.38c.42,4.28.84,8.57,1.19,12.86.18,2.14.39,4.28.54,6.43l.46,6.44-.86-6.4c-.29-2.13-.53-4.27-.79-6.41-.54-4.27-1-8.54-1.46-12.82l0-.21.16-.17a16.73,16.73,0,0,0,4.51-8.59,10.75,10.75,0,0,0-.56-4.81c-.47-1.6-1.08-3.18-1.71-4.74q-1.9-4.69-4.1-9.28C151.93,116.84,150.45,113.8,148.94,110.76Z" style="fill:#263238"></path><path d="M159,124.54a.86.86,0,0,1-.74,1,.88.88,0,0,1-1-.72.86.86,0,0,1,.74-1A.88.88,0,0,1,159,124.54Z" style="fill:#263238"></path><path d="M155.22,117.22a.87.87,0,0,1-.74,1,.88.88,0,0,1-1-.72.86.86,0,0,1,.74-1A.88.88,0,0,1,155.22,117.22Z" style="fill:#263238"></path><path d="M162.77,133.83a.86.86,0,0,1-.74,1,.88.88,0,0,1-1-.72.86.86,0,0,1,.74-1A.88.88,0,0,1,162.77,133.83Z" style="fill:#263238"></path><path d="M162.48,143.19a.87.87,0,0,1-.75,1,.87.87,0,1,1-.27-1.71A.9.9,0,0,1,162.48,143.19Z" style="fill:#263238"></path><path d="M159.54,151.52a.87.87,0,0,1-.74,1,.89.89,0,0,1-1-.72.87.87,0,0,1,.75-1A.88.88,0,0,1,159.54,151.52Z" style="fill:#263238"></path><path d="M160.57,160.36a.87.87,0,0,1-.74,1,.89.89,0,0,1-1-.73.85.85,0,0,1,.74-1A.88.88,0,0,1,160.57,160.36Z" style="fill:#263238"></path><path d="M161.6,169.2a.86.86,0,0,1-.74,1,.88.88,0,0,1-1-.72.86.86,0,0,1,.74-1A.88.88,0,0,1,161.6,169.2Z" style="fill:#263238"></path><path d="M200.15,175.32c0,.21.09.4.11.61,0,0,0-.08,0-.12A4.21,4.21,0,0,0,200.15,175.32Z" style="fill:#FFC727"></path><path d="M200.15,175.32c0,.21.09.4.11.61,0,0,0-.08,0-.12A4.21,4.21,0,0,0,200.15,175.32Z" style="fill:#FFC727"></path><path d="M200.15,175.32c0,.21.09.4.11.61,0,0,0-.08,0-.12A4.21,4.21,0,0,0,200.15,175.32Z" style="fill:#dbdbdb"></path><polygon points="209.54 156.16 173.38 162.56 182.06 113.18 218.22 106.78 209.54 156.16" style="fill:#ebebeb"></polygon><path d="M220.42,115.22c2.33,3.75,7.63,8.13,8.39,11.32a3.75,3.75,0,0,1-1.62,4.18s3.41,1.24,3.62,4.25c.11,1.55-2.27,3.09-2.27,3.09a4.5,4.5,0,0,1,2.72,3.8c0,2.14-2.37,3.36-2.37,3.36s2.09,2.27,1.4,4.46c-1.38,4.43-19.64,6.53-23.24.13-1.67-3,2.82-3.26,2.82-3.26s-6.55-1.17-7.08-4.93,5.33-3.75,5.33-3.75-6.34-1.19-6.5-5.14c-.16-4.11,5.7-3.1,5.7-3.1s-4.38-2.29-3.81-5.34c1-5,9.34.2,13.25-1.22l1.45-6.87Z" style="fill:#c95f50"></path><path d="M224.74,120.56c-1.9-3.74,2.38-9.12,1.08-13-1.77-5.19-7.16.72-7.61,8.6l.73,6.18Z" style="fill:#c95f50"></path><path d="M228.54,145.47a0,0,0,1,1,0,.09,31.87,31.87,0,0,1-18.95,1c-.19-.05-.19-.4,0-.38A65.32,65.32,0,0,0,228.54,145.47Z" style="fill:#263238"></path><path d="M228.64,138.09c.07,0,.09.1,0,.12-6,2.19-14,2.62-20.74-.15-.23-.09-.34-.41-.07-.32C212.46,139.24,222.81,139.26,228.64,138.09Z" style="fill:#263238"></path><path d="M206.89,129.27c6.55,2.41,13.21,2.47,20.05,1.56.09,0,.1.11,0,.14-3.23,1.36-7.66,1.49-11.11,1.3a18.33,18.33,0,0,1-9.05-2.77C206.7,129.43,206.75,129.22,206.89,129.27Z" style="fill:#263238"></path><path d="M126.48,109.54C108.81,129.49,89,163,97.72,170c8,6.41,36.67-.09,54.68-7.37,3.43-1.38-4.54-32-8.35-30.95-6.57,1.83-17,6.26-17.41,6.39-1,.28,3.75-11.63,9.59-26.06C142.73,96,136.58,98.13,126.48,109.54Z" style="fill:#c95f50"></path><path d="M182.5,130.87a4.68,4.68,0,0,1-2.44,3.69,6.55,6.55,0,0,1,2.39,3.74c.47,2.65-3.48,4.55-3.48,4.55a8.07,8.07,0,0,1,1.9,4.35c.19,2.59-3.52,5.07-3.52,5.07a7.05,7.05,0,0,1-.75,4.88c-2.36,3.87-25.22,6.83-28.32,7.11l-5.5-31.91s19.45-9.73,24.65-9.1C171.8,123.78,182.91,126.17,182.5,130.87Z" style="fill:#c95f50"></path><path d="M180,134.45c-4.52-1.67-9.43-2.26-14.18-2.78a.08.08,0,0,0,0,.16c4.72.46,9.44,2.2,14.14,2.85A.12.12,0,0,0,180,134.45Z" style="fill:#263238"></path><path d="M178.87,142.48a12.78,12.78,0,0,0-3.26-.41c-1.16-.07-2.33-.12-3.49-.15-2.33-.06-4.66-.07-7,0-.11,0-.13.16,0,.17,2.32.06,4.64.16,7,.32q1.74.12,3.48.27a14.45,14.45,0,0,0,3.28.13A.17.17,0,0,0,178.87,142.48Z" style="fill:#263238"></path><path d="M177.25,152.26a8.89,8.89,0,0,0-3-.22q-1.59,0-3.18,0c-2.13,0-4.25-.07-6.37-.18-.11,0-.13.16,0,.16,2.16.13,4.31.28,6.47.38l3.17.13a8.24,8.24,0,0,0,2.89-.13A.06.06,0,0,0,177.25,152.26Z" style="fill:#263238"></path><path d="M135.19,100.74c-12.86,7.93-45.92,54.6-39.84,67.44s47.55-1.29,47.55-1.29L139.23,132s-10.9,6.13-11.27,5.58,6-16.48,8.58-23S142,96.51,135.19,100.74Z" style="fill:#FFC727"></path><path d="M137.65,164.91c-.77-4.6-3.22-23.57-3.48-27.7,0-.29.16-.37.22-.07,2.63,13.75,2.91,23.18,3.44,27.74C137.84,165,137.66,165,137.65,164.91Z" style="fill:#263238"></path><path d="M139,132.05a25.7,25.7,0,0,0-3.5,1.61c-1,.51-2.05,1-3.07,1.56-2.21,1.14-4.39,2.34-6.57,3.56s-4.33,2.45-6.47,3.72-4.2,2.65-6.34,3.92c-.1.06,0,.21.1.15,2.17-1.23,4.43-2.32,6.63-3.5l6.47-3.48,6.48-3.46,3.15-1.72a26.34,26.34,0,0,0,3.34-1.93A.24.24,0,0,0,139,132.05Z" style="fill:#263238"></path><path d="M135.32,122c-.67.86-1.33,1.72-2,2.61l-.33.5.51-1.37a46.46,46.46,0,0,0,1.73-4.84c0-.08-.09-.11-.13,0a50,50,0,0,0-2.18,4.9c-.68,1.6-1.38,3.21-2,4.82s-1.32,3.24-1.94,4.87a34.21,34.21,0,0,0-1.66,4.88c0,.1.11.13.16,0a36.26,36.26,0,0,0,2.25-4.86c.67-1.62,1.3-3.25,1.94-4.87.27-.68.53-1.37.79-2.05.11-.15.22-.31.34-.46.31-.43.6-.87.89-1.31.58-.92,1.13-1.85,1.67-2.79C135.38,122,135.34,122,135.32,122Z" style="fill:#263238"></path><path d="M143,166.12c0-.23-.14-.28-.18,0s0,.39-.06.52c-1.41.38-6.58,2-7.83,2.33q-4,1.19-8,2.07c-2.71.6-5.42,1.11-8.15,1.54s-5.48.88-8.22,1a.09.09,0,0,0,0,.17c2.8-.14,5.58-.22,8.38-.54s5.45-.77,8.14-1.34,5.46-1.27,8.14-2.09c1.34-.41,2.66-.85,4-1.32a20.19,20.19,0,0,0,3.73-1.5.28.28,0,0,0,.13-.26Z" style="fill:#263238"></path><path d="M137.51,101.42c.19,1.14,5.14,8.81,10.43,9,1.72,0,2.37-9.1,2.37-9.1l.21-.66,2.88-9.29-10.87-7.93L141,82.33s-.61,2.59-1.35,5.82c0,.15-.07.3-.1.47s-.1.35-.13.52c-.12.48-.23,1-.34,1.47s-.16.74-.23,1.13-.16.79-.24,1.18A61.36,61.36,0,0,0,137.51,101.42Z" style="fill:#c95f50"></path><path d="M139.6,88.15a19.67,19.67,0,0,0,10.92,12.46l2.88-9.29-10.87-7.93L141,82.33S140.34,84.92,139.6,88.15Z" style="fill:#263238"></path><path d="M166.09,73.66c3.76,16.63-6.06,20.7-9.75,21.49C153,95.86,141.49,97.87,136,81.7s1.26-23.13,8.83-25.15S162.33,57,166.09,73.66Z" style="fill:#c95f50"></path><path d="M162.76,70.54c-.42,0-.8,0-1.21-.05a2,2,0,0,1-1.22-.28.6.6,0,0,1-.13-.73,1.57,1.57,0,0,1,1.45-.59,2.32,2.32,0,0,1,1.54.54A.65.65,0,0,1,162.76,70.54Z" style="fill:#263238"></path><path d="M150.87,70.92a9.71,9.71,0,0,0,1.14-.41,1.92,1.92,0,0,0,1.07-.63.6.6,0,0,0-.11-.73,1.6,1.6,0,0,0-1.56-.13,2.27,2.27,0,0,0-1.29,1A.65.65,0,0,0,150.87,70.92Z" style="fill:#263238"></path><path d="M154.33,76.43s-.08.07-.07.12c.24,1.14.31,2.48-.68,3,0,0,0,.08,0,.07C154.86,79.25,154.74,77.47,154.33,76.43Z" style="fill:#263238"></path><path d="M153.07,75.41c-1.92.18-1.41,3.89.36,3.73S154.67,75.27,153.07,75.41Z" style="fill:#263238"></path><path d="M152.35,75.71c-.31.25-.59.66-1,.75s-.86-.24-1.22-.57c0,0-.06,0-.06,0,.09.71.47,1.41,1.26,1.41s1.16-.69,1.25-1.43C152.61,75.79,152.47,75.61,152.35,75.71Z" style="fill:#263238"></path><path d="M161.19,75.1s.1,0,.11.08c.12,1.16.47,2.46,1.59,2.69,0,0,0,.07,0,.07C161.56,77.94,161.12,76.21,161.19,75.1Z" style="fill:#263238"></path><path d="M162.07,73.75c1.88-.4,2.56,3.28.82,3.66S160.49,74.09,162.07,73.75Z" style="fill:#263238"></path><path d="M162.91,73.85c.33.15.69.45,1.05.41s.66-.5.85-.93c0,0,.06,0,.07,0,.15.7,0,1.48-.63,1.74s-1.19-.29-1.49-1C162.7,74,162.77,73.8,162.91,73.85Z" style="fill:#263238"></path><path d="M155.94,85.37c.31.24.63.59,1.06.59a3.16,3.16,0,0,0,1.26-.4,0,0,0,0,1,.05.06,1.6,1.6,0,0,1-1.45.75,1.23,1.23,0,0,1-1-.94C155.81,85.36,155.9,85.33,155.94,85.37Z" style="fill:#263238"></path><path d="M160.27,80.53s.49,1.68.61,2.49c0,.07-.18.14-.46.19h0a4.09,4.09,0,0,1-4.06-.9c-.06-.07,0-.17.11-.13a6.18,6.18,0,0,0,3.76.5c0-.23-.95-2.85-.82-2.88a7.93,7.93,0,0,1,2,.15c-.93-3.53-2.43-6.88-3.3-10.41a.11.11,0,0,1,.21-.08,58.39,58.39,0,0,1,4,11.07C162.42,81,160.62,80.62,160.27,80.53Z" style="fill:#263238"></path><path d="M160.11,82.94a4.61,4.61,0,0,1-1.58,1.75,2.23,2.23,0,0,1-1.26.31c-1-.06-1.15-.88-1.12-1.61a4.71,4.71,0,0,1,.2-1.16A6.26,6.26,0,0,0,160.11,82.94Z" style="fill:#263238"></path><path d="M158.53,84.69a2.23,2.23,0,0,1-1.26.31c-1-.06-1.15-.88-1.12-1.61A2.2,2.2,0,0,1,158.53,84.69Z" style="fill:#ff9cbd"></path><path d="M137.51,80.59c3.15.26,3.65-6.94,3.65-6.94s13.24-2.82,13.91-13.72a18.41,18.41,0,0,0,9.69,9.66s-1-11.88-10.5-13.8c0,0-11.88-3.77-18.08,5.8S135.4,80.41,137.51,80.59Z" style="fill:#263238"></path><path d="M155.09,59.12a12,12,0,0,1-.39,5,12.44,12.44,0,0,1-2.33,4.49,9.68,9.68,0,0,1-.87.94l-.44.46-.49.4c-.34.26-.66.53-1,.78s-.72.44-1.09.65l-.55.31-.57.25-1.16.5c-.79.26-1.6.47-2.4.68.75-.37,1.52-.65,2.26-1l1.08-.58.54-.29.5-.35c.33-.24.67-.47,1-.69s.61-.52.92-.78l.46-.39L151,69c.26-.31.57-.57.8-.9a14.15,14.15,0,0,0,2.37-4.2,15.39,15.39,0,0,0,.65-2.35A14.26,14.26,0,0,0,155.09,59.12Z" style="fill:#263238"></path><path d="M139.53,82s-4.49-4.79-6.78-3.17,1.59,8.91,4.62,9.59a3,3,0,0,0,3.73-2Z" style="fill:#c95f50"></path><path d="M133.92,80.85a0,0,0,0,0,0,.08c2.13.54,3.44,2.23,4.44,4a1.66,1.66,0,0,0-2.48-.12c-.05,0,0,.11.07.1a1.85,1.85,0,0,1,2.07.36,8,8,0,0,1,1.16,1.44c.12.16.43,0,.34-.17l0,0C139.2,84,136.72,80.75,133.92,80.85Z" style="fill:#263238"></path><path d="M150.6,100.13l-2.53,7.93-10.58-8.85L135,102.56s10.84,14.56,10.84,13.86l2.7-6.87,5.06,4.19-1.34-11.49Z" style="fill:#FFC727"></path><path d="M153.25,108c-.29-1.89-.52-3.8-.9-5.68,0-.06-.12-.08-.13,0-.24,1.87.89,9.09,1,10.83l0,0c-.21-.18-4.68-3.67-4.71-3.6-.62,1.11-2.6,6.11-2.72,6.57-1.72-2.32-8.25-10.71-10.23-12.86a.07.07,0,0,0-.12.07c1.55,2.47,10.22,13.77,10.33,13.73a73.65,73.65,0,0,0,2.81-7.26c.77.77,5.31,4.75,5.31,4.46A59.44,59.44,0,0,0,153.25,108Z" style="fill:#263238"></path></g><g id="freepik--character-1--inject-109"><path d="M81.22,436.36l158,.68c38.4-30.15,42.36-74.82,15-101.89-16.58-16.38-37.63-13.07-57.67-15.68h-.06a59.29,59.29,0,0,1-20.33-6c-20.64-10.89-32.27-36.58-49.64-58.18-2.16-2.71-4.42-5.35-6.79-7.88-14.28-15.25-42.7-15.75-57.57,5.69C24.32,307.59,41.63,388.65,81.22,436.36Z" style="fill:#FFC727"></path><path d="M77.72,311.74c4.14,64.81,79,89,125.72,69.59,40.65-16.89,27.34-55.41-7-61.86h-.06a59.29,59.29,0,0,1-20.33-6c-20.64-10.89-32.27-36.58-49.64-58.18C100.59,241.88,74.68,264.29,77.72,311.74Z" style="opacity:0.1"></path><path d="M206.62,464c-2.39-1-55.44-47.22-56.35-50.26-.35-1.15,5.93-9.27,13.8-18.87,1.7-2.07,3.46-4.2,5.27-6.35,11.71-14,24.47-28.56,24.47-28.56l35.58,30.82-25.45,27.71-5.58,6.09s12.4,26.78,13,30.22S209,465,206.62,464Z" style="fill:#ad6359"></path><path d="M206.62,464c-2.39-1-55.44-47.22-56.35-50.26-.42-1.41,8.94-13.1,19.07-25.22l34.6,30-5.58,6.09s12.4,26.78,13,30.22S209,465,206.62,464Z" style="fill:#fff"></path><path d="M206.62,464c-2.39-1-55.44-47.22-56.35-50.26-.35-1.15,5.93-9.27,13.8-18.87l34.29,29.71s12.4,26.78,13,30.22S209,465,206.62,464Z" style="fill:#37474f"></path><path d="M207.71,461.17c-8.7-8-44.56-39.28-53.76-46.5-.08-.06-.12,0,0,.06,8.45,8.08,44.56,39.1,53.69,46.58C207.78,461.47,207.9,461.33,207.71,461.17Z" style="fill:#263238"></path><path d="M209.64,449.87a9.44,9.44,0,0,0-7.21-2.46,9.14,9.14,0,0,0-6.12,3c-.05.06.05.14.11.1a10.94,10.94,0,0,1,13.13-.54A.07.07,0,1,0,209.64,449.87Z" style="fill:#263238"></path><path d="M201,428.42c-3.52-3.15-8.74-5.49-13.49-4.51-.18,0-.13.3,0,.34a64.83,64.83,0,0,1,13.14,4.66A.3.3,0,0,0,201,428.42Z" style="fill:#263238"></path><path d="M202.85,431.88c-3.51-3.15-8.74-5.49-13.49-4.5-.18,0-.12.29,0,.33a66.07,66.07,0,0,1,13.14,4.66A.3.3,0,0,0,202.85,431.88Z" style="fill:#263238"></path><path d="M204.67,435.35c-3.52-3.15-8.74-5.49-13.49-4.51-.18,0-.13.3,0,.34a65,65,0,0,1,13.14,4.66A.3.3,0,0,0,204.67,435.35Z" style="fill:#263238"></path><path d="M206.48,438.81c-3.52-3.15-8.74-5.49-13.49-4.5-.18,0-.12.3,0,.33a66.07,66.07,0,0,1,13.14,4.66A.3.3,0,0,0,206.48,438.81Z" style="fill:#263238"></path><path d="M163.57,408.2c-4-3.47-9.4,2.75-5.39,6.22S167.58,411.67,163.57,408.2Z" style="fill:#fff"></path><path d="M213.16,422.27c-.5-3.06-4-3.58-6.51-3a24.8,24.8,0,0,0-11.16,6.29.12.12,0,0,0,0,.19.58.58,0,0,0,.39.85c4.06.45,8.35,1.44,12.43.64C210.71,426.77,213.63,425.17,213.16,422.27Zm-11,3.76c-2-.18-4-.45-6-.55a73.19,73.19,0,0,1,6.6-3.53,27,27,0,0,1,3.39-1.26c1.8-.51,7.88-.44,4.86,3.74C209.4,426.74,204.59,426.24,202.2,426Z" style="fill:#263238"></path><path d="M185.5,419.17c2.68,3.18,6.65,5.08,10.1,7.26a.58.58,0,0,0,.84-.42.12.12,0,0,0,.14-.14,24.8,24.8,0,0,0-4.8-11.88c-1.56-2-4.65-3.8-6.95-1.72S183.93,417.32,185.5,419.17Zm-.39-3.9c.25-5.15,5-1.4,6.14.11a26.35,26.35,0,0,1,1.86,3.11,74.53,74.53,0,0,1,2.95,6.88c-1.63-1.18-3.35-2.2-5-3.32C189,420.72,185,418.11,185.11,415.27Z" style="fill:#263238"></path><path d="M269,336.06c-3.34,19-52.83,72.24-58.55,78.35l-1.3,1.38L171.4,384.17l.47-.56,36.25-43.51-102.41-5,40.18-28.58s3.08,1.95,9.68,1.27c22.74-2.35,74-7.51,86-6.51C257.07,302.61,272,318.6,269,336.06Z" style="fill:#263238"></path><path d="M221.17,323.91a44.88,44.88,0,0,0-3.74,4.39c-1.28,1.54-2.58,3.06-3.86,4.6l0,.05c.24-.46.47-.92.71-1.37.83-1.55,1.51-3.16,2.48-4.64a.08.08,0,0,0-.14-.09c-1,1.46-2.13,2.85-3,4.4-.41.73-.8,1.46-1.16,2.22-.2.41-.4.82-.58,1.24a5.39,5.39,0,0,0-.25.6c-.58.72-1.14,1.44-1.7,2.17-1.22,1.63-2.32,3.35-3.56,5-.07.08.07.17.14.09,1.25-1.51,2.64-2.91,3.91-4.41s2.52-3.1,3.74-4.69,2.36-3.11,3.54-4.66a47.44,47.44,0,0,0,3.59-4.79C221.29,323.93,221.22,323.86,221.17,323.91Z" style="fill:#37474f"></path><path d="M214.73,407c-2.15-2-4.45-3.82-6.71-5.67s-4.55-3.71-6.85-5.54c-4.58-3.67-9.14-7.37-13.78-11-2.54-2-5.1-3.94-7.75-5.78-.12-.08-.25.11-.15.2,4.34,4,9,7.56,13.55,11.22s9.19,7.32,13.83,10.92c2.54,2,5.07,4,7.72,5.81C214.7,407.23,214.82,407.07,214.73,407Z" style="fill:#37474f"></path><path d="M134.48,249.73c5.61,10.81,25.65,41.1,41.52,47,8.75,3.22,53.55,11.34,60.23,6.68,7.82-5.45,5.69-29.94.16-30.88-16.88-2.87-48.74.09-56.36-2.66-3.45-1.25-20.67-15.82-39.49-28.13C133.42,237,130.86,242.76,134.48,249.73Z" style="fill:#ad6359"></path><path d="M220.24,270.1s-.23,37-2,36.46-39.81-5.47-49.37-10.94-24.64-27.47-33.36-42-.41-17.59,8.81-10.29,35.09,24.65,36.76,24.81S220.24,270.1,220.24,270.1Z" style="fill:#455a64"></path><path d="M213.12,302.48c-.19-5-.31-10-.21-15,.05-2.49.13-5,.26-7.48s.5-5,.59-7.45c0-.14.23-.12.21,0-.22,2.48-.1,5-.18,7.49s-.16,5-.22,7.48c-.11,5-.23,10-.23,14.95C213.34,302.63,213.13,302.61,213.12,302.48Z" style="fill:#263238"></path><path d="M166.23,293.78c-9.53-7.5-22.75-26.92-30.69-40.11-6.22-10.33-3.77-14.88,1.49-14Z" style="fill:#37474f"></path><rect x="152.68" y="304.57" width="65.94" height="2.96" style="fill:#c7c7c7"></rect><polygon points="166.79 304.57 164.53 307.53 218.62 307.53 218.62 304.57 166.79 304.57" style="fill:#a6a6a6"></polygon><polygon points="169.61 307.52 233.87 307.52 239.22 263.88 174.96 263.88 169.61 307.52" style="fill:#c7c7c7"></polygon><path d="M200.5,285.7a3.83,3.83,0,0,0,3.84,3.92,4,4,0,0,0,4-3.92,3.83,3.83,0,0,0-3.84-3.91A4,4,0,0,0,200.5,285.7Z" style="fill:#fff"></path><path d="M238.7,268.1c2.42,3.74,8.4,8.11,9.22,11.32a3.79,3.79,0,0,1-1.57,4.25s3.47,1.2,3.73,4.23c.14,1.56-2.23,3.15-2.23,3.15s2.73,1.08,2.8,3.79c.06,2.16-2.33,3.43-2.33,3.43s2.15,2.25,1.5,4.47c-1.32,4.5-19.71,6.94-23.45.54-1.74-3,2.78-3.34,2.78-3.34s-6.63-1.07-7.22-4.85,5.31-3.87,5.31-3.87-6.42-1.1-6.64-5.08c-.24-4.14,5.69-3.23,5.69-3.23s-4.46-2.23-3.93-5.32c.86-5.1,11.35.32,15.27-1.17Z" style="fill:#ad6359"></path><path d="M248,298.52a.05.05,0,0,1,0,.1,32.25,32.25,0,0,1-19.1,1.37c-.2-.05-.2-.4,0-.38A66.16,66.16,0,0,0,248,298.52Z" style="fill:#263238"></path><path d="M247.94,291.08c.07,0,.1.1,0,.13-6.05,2.31-14.1,2.88-20.93.2-.23-.09-.35-.41-.07-.32C231.64,292.52,242.08,292.37,247.94,291.08Z" style="fill:#263238"></path><path d="M225.85,282.56c6.65,2.31,13.37,2.26,20.26,1.22.09,0,.1.12,0,.15-3.24,1.43-7.7,1.63-11.19,1.5a18.52,18.52,0,0,1-9.18-2.64C225.66,282.73,225.71,282.51,225.85,282.56Z" style="fill:#263238"></path><path d="M158.92,320.54s-73.66,11.18-74,10.72,10.47-79.39,35.75-92c4-2,13.55-3,17.49,1.3C149.36,252.7,159.92,319.5,158.92,320.54Z" style="fill:#455a64"></path><path d="M158.36,314,85.84,324.14c.34-2.17.78-4.76,1.32-7.67l70.09-9.85C157.7,309.4,158.07,311.88,158.36,314Z" style="fill:#37474f"></path><path d="M156.59,302.73l-68.66,9.65q.38-1.94.81-4L155.92,299C156.16,300.24,156.38,301.51,156.59,302.73Z" style="fill:#37474f"></path><path d="M135.27,254.66c-4.09.17-9.65-7.09-11.38-12.44-.11-.36,1.07-3.77,2.3-8,.75-2.55,1.51-5.41,2-8.07l15.9,7.25a43.33,43.33,0,0,0-3.56,9.9,6.29,6.29,0,0,0-.1,1.12,1.21,1.21,0,0,1,0,.18C140.38,246.77,139.22,254.49,135.27,254.66Z" style="fill:#ad6359"></path><path d="M144.12,233.43a43.08,43.08,0,0,0-3.57,9.91,5.33,5.33,0,0,0-.1,1.11,1.21,1.21,0,0,1,0,.18,9.43,9.43,0,0,1-1.73-.24c-9.66-2.08-10.1-14.62-10-18Z" style="fill:#263238"></path><path d="M129.84,204.62c-3,5.56-3.14,23.25.32,27.87,5,6.7,14.91,9.17,21,2.75,5.92-6.22,5.76-29.27,1.73-33.65C147,195.16,134.2,196.41,129.84,204.62Z" style="fill:#ad6359"></path><path d="M144.85,218.58s-.09.06-.09.11c.05,1.18-.1,2.54-1.16,2.95,0,0,0,.07,0,.06C144.91,221.51,145.08,219.7,144.85,218.58Z" style="fill:#263238"></path><path d="M143.78,217.36c-1.91-.13-2,3.69-.25,3.81S145.37,217.46,143.78,217.36Z" style="fill:#263238"></path><path d="M151.79,218.77s.09.06.09.11c-.07,1.18.05,2.55,1.1,3,0,0,0,.07,0,.06C151.67,221.69,151.54,219.88,151.79,218.77Z" style="fill:#263238"></path><path d="M152.89,217.57c1.9-.09,1.94,3.73.17,3.81S151.29,217.64,152.89,217.57Z" style="fill:#263238"></path><path d="M142.32,215.57a13.09,13.09,0,0,0,1.5-.48,2.58,2.58,0,0,0,1.43-.77.83.83,0,0,0-.11-1,2,2,0,0,0-2-.26,3,3,0,0,0-1.73,1.22A.86.86,0,0,0,142.32,215.57Z" style="fill:#263238"></path><path d="M154.42,215.69a13.06,13.06,0,0,1-1.51-.44,2.48,2.48,0,0,1-1.45-.74.8.8,0,0,1,.08-1,2,2,0,0,1,2-.32,2.91,2.91,0,0,1,1.76,1.18A.86.86,0,0,1,154.42,215.69Z" style="fill:#263238"></path><path d="M143.3,229c.21.33.4.76.81.89a3.21,3.21,0,0,0,1.31,0s.06,0,0,.07a1.6,1.6,0,0,1-1.6.29,1.27,1.27,0,0,1-.68-1.23C143.17,229,143.26,229,143.3,229Z" style="fill:#263238"></path><path d="M144.88,225.64a4.06,4.06,0,0,0,2.64,1.87,5,5,0,0,0,1.44.1,3.19,3.19,0,0,0,.54-.05.31.31,0,0,0,.25-.26h0s0-2.53,0-2.53c.33.18,2,1,2,.51A60.1,60.1,0,0,0,150.52,213c0-.13-.22-.1-.22,0,0,3.79.61,7.57.63,11.38a6.82,6.82,0,0,0-1.88-.63c-.07,0,.08,3.1.08,3.13a5.58,5.58,0,0,1-4.13-1.42C144.91,225.46,144.81,225.54,144.88,225.64Z" style="fill:#263238"></path><path d="M148.6,227.41a5.06,5.06,0,0,1-2.13,1.39,2.21,2.21,0,0,1-1.37,0c-1-.33-.93-1.24-.68-2a5.28,5.28,0,0,1,.53-1.15A6.55,6.55,0,0,0,148.6,227.41Z" style="fill:#263238"></path><path d="M146.47,228.8a2.21,2.21,0,0,1-1.37,0c-1-.33-.93-1.24-.68-2A2.33,2.33,0,0,1,146.47,228.8Z" style="fill:#ff9cbd"></path><path d="M126.92,220.37c4.55.73,7.43-4.52,6.75-9,0,0,12,2.7,13.5-7a11.12,11.12,0,0,0,8,5.32l.52,3.51c1.28-.25,2.93-3.69.12-6.74,0,0,.23-4.9-3.1-8.15a6.71,6.71,0,0,0-7.08-1.64,10.08,10.08,0,0,0-7.18-2.46,8.64,8.64,0,0,0-6.76,4.1s-6.13.61-7.54,4.81a9,9,0,0,0,.54,7.27s-1.66,1.54-1.22,5.27C123.8,218,125.55,220.15,126.92,220.37Z" style="fill:#263238"></path><path d="M147,203.44a11.86,11.86,0,0,1-.18,2.39,9.7,9.7,0,0,1-.65,2.27,6.16,6.16,0,0,1-3.13,3.26,10.07,10.07,0,0,1-4.6.73c-.78-.1-1.58-.14-2.37-.27s-1.57-.33-2.37-.46c.76.26,1.54.48,2.31.73s1.6.28,2.4.43a9.76,9.76,0,0,0,4.86-.65,6.43,6.43,0,0,0,3.3-3.61A9.78,9.78,0,0,0,147,203.44Z" style="fill:#263238"></path><path d="M152.75,209.65a12.66,12.66,0,0,1-3.52-2.32,7.48,7.48,0,0,1-1.29-1.61,9.16,9.16,0,0,1-.86-1.94,5.16,5.16,0,0,0,.47,2.14,5.7,5.7,0,0,0,1.29,1.82,7.17,7.17,0,0,0,1.82,1.27A6.42,6.42,0,0,0,152.75,209.65Z" style="fill:#263238"></path><path d="M142.05,224.33a5.14,5.14,0,1,1,5.77-5.71h0a5.15,5.15,0,0,1-4.5,5.72A4.9,4.9,0,0,1,142.05,224.33Zm1.24-9.51a4.57,4.57,0,0,0-1.11,0,4.48,4.48,0,1,0,1.11,0Z" style="fill:#FFC727"></path><path d="M153.85,224.43c-1.95-.26-3.46-2.49-3.43-5.17a6.11,6.11,0,0,1,1.14-3.58,3.2,3.2,0,0,1,5.48.07,6.14,6.14,0,0,1,1,3.61c0,2.84-1.79,5.12-3.9,5.09Zm.72-9.55a1.1,1.1,0,0,0-.26,0,2.72,2.72,0,0,0-2.2,1.23,5.47,5.47,0,0,0-1,3.18c0,2.46,1.35,4.47,3.08,4.5s3.17-2,3.2-4.42a5.45,5.45,0,0,0-.91-3.2A2.8,2.8,0,0,0,154.57,214.88Z" style="fill:#FFC727"></path><path d="M147.64,219.22l-.44-.54c.79-.64,2.61-1.5,3.85-.14l-.51.47C149.43,217.78,147.71,219.16,147.64,219.22Z" style="fill:#FFC727"></path><path d="M125.72,220.44l-.6-.33c.15-.28,1.52-2.77,3-3s9.63.58,10,.62l-.07.68a90.19,90.19,0,0,0-9.84-.61C127.26,218,126.09,219.75,125.72,220.44Z" style="fill:#FFC727"></path><path d="M131.27,220.41s-2.92-6.21-5.67-5.26-1.23,9.48,1.53,11.09a3,3,0,0,0,4.3-.92Z" style="fill:#ad6359"></path><path d="M126.1,217.58s-.07,0,0,.08c1.92,1.2,2.68,3.3,3.1,5.43a1.68,1.68,0,0,0-2.4-.89c-.06,0,0,.13,0,.12a1.88,1.88,0,0,1,1.92,1,8.44,8.44,0,0,1,.69,1.81c.07.21.42.17.39-.06v0C130.3,222.39,128.88,218.34,126.1,217.58Z" style="fill:#263238"></path><path d="M141,247.33s0,0,0,0c0,3.33-.24,11.06-5.42,10.26-2.09-.32-3.92-1.75-5.44-3.14a29.41,29.41,0,0,1-4.14-4.77,42.6,42.6,0,0,1-3.75-6c0-.09-.18,0-.14.08,1.11,2.11,2,4.29,3.32,6.29a25.29,25.29,0,0,0,4.46,5.27c1.63,1.43,3.58,2.87,5.8,3.11a4.22,4.22,0,0,0,4.48-2.9A18.5,18.5,0,0,0,141,247.33Z" style="fill:#263238"></path><path d="M111.23,256.26c-5,28.34-.16,49.57,4.65,52.2,13,7.08,44.09-7.28,52.87-10.13,3.55-1.16-12.63-28.3-16.25-26.62-8.54,3.94-20.49,10.64-21,10.59-1-.1-2.08-7.34-7-28.42C120.48,236.82,113.28,244.67,111.23,256.26Z" style="fill:#ad6359"></path><path d="M197,258.28c.89,3.56-8.07,5-8.07,5a6.77,6.77,0,0,1,3.55,2.94c1.31,2.46-2,5.59-2,5.59a8.3,8.3,0,0,1,3.25,3.69c1,2.48-1.86,6.11-1.86,6.11a7.34,7.34,0,0,1,.82,5.05c-1.1,4.57-8.1,6.37-12.22,8.34-4.41,2.11-11.71,2.89-15,4.38L151.15,273.1s13.86-14.68,21.77-17C177.31,254.88,195.69,252.84,197,258.28Z" style="fill:#ad6359"></path><path d="M188.87,263.2c-5-.22-10,.76-14.87,1.76-.1,0-.07.19,0,.16,4.81-1,10-.83,14.85-1.68A.12.12,0,0,0,188.87,263.2Z" style="fill:#263238"></path><path d="M190.31,271.48a12.71,12.71,0,0,0-3.34.62c-1.17.3-2.33.62-3.49,1-2.32.69-4.62,1.42-6.9,2.22-.1,0-.07.2,0,.17,2.31-.68,4.63-1.32,7-1.89q1.75-.44,3.51-.84a15.36,15.36,0,0,0,3.28-.92A.17.17,0,0,0,190.31,271.48Z" style="fill:#263238"></path><path d="M191.82,281.64a8.73,8.73,0,0,0-3,.72l-3.15,1c-2.11.64-4.21,1.28-6.34,1.84-.11,0-.07.2,0,.17,2.17-.56,4.34-1.1,6.5-1.68l3.17-.88a8.58,8.58,0,0,0,2.81-1.05S191.87,281.64,191.82,281.64Z" style="fill:#263238"></path><path d="M131.52,282.3c3.39-2,6.84-3.84,10.29-5.7l5.22-2.7,2.63-1.33a26.28,26.28,0,0,1,2.76-1.22l-.18.1c2.32-2.25,4.64-4.48,7.09-6.57,1.22-1.05,2.46-2.09,3.74-3.07a27.83,27.83,0,0,1,4-2.68,33,33,0,0,0-3.81,2.94c-1.22,1.05-2.42,2.11-3.59,3.21-2.33,2.21-4.68,4.4-6.94,6.68l-.05.05-.12.05c-.8.29-1.73.78-2.6,1.18l-2.64,1.28-5.25,2.63C138.58,278.88,135.07,280.63,131.52,282.3Z" style="fill:#263238"></path><path d="M150.07,271.09,165.69,303s-42.23,17.24-50.32,7.89-7.81-40.68-4-57.81,12.13-8.83,14,.63,5.33,27.54,6.17,27.33S150.07,271.09,150.07,271.09Z" style="fill:#455a64"></path><path d="M145.59,276.9c2.29,4.1,4.52,8.23,6.56,12.47,1,2.11,2,4.23,3,6.38s1.69,4.38,2.68,6.5a.1.1,0,0,1-.19.08c-.87-2.17-2-4.24-3-6.36s-2-4.25-3-6.36c-2-4.23-4-8.46-6.16-12.64C145.35,276.86,145.53,276.79,145.59,276.9Z" style="fill:#263238"></path><path d="M150.71,272.39l-.73-1.26.14.05c-2.15,1.36-4.35,2.63-6.53,3.93s-4.42,2.51-6.65,3.72-4.48,2.41-6.75,3.55-4.54,2.28-6.86,3.32c2.13-1.39,4.31-2.69,6.51-4s4.4-2.53,6.62-3.76,4.47-2.42,6.72-3.59,4.53-2.3,6.84-3.37l.1-.05,0,.09Z" style="fill:#263238"></path><path d="M126.81,261.12c1,3.29,1.76,6.62,2.49,10l1,5,.51,2.51a12.41,12.41,0,0,0,.69,2.45,9,9,0,0,1-1.16-2.32c-.29-.81-.56-1.63-.79-2.45-.49-1.65-.89-3.32-1.25-5A75.58,75.58,0,0,1,126.81,261.12Z" style="fill:#263238"></path><path d="M128.69,262.5a8,8,0,0,1,.31,2.93,6.45,6.45,0,0,1-.8,2.84c.06-.5.14-1,.19-1.45s.09-.95.12-1.43C128.58,264.44,128.6,263.48,128.69,262.5Z" style="fill:#263238"></path><path d="M109.32,267.06c0,2,0,4,0,6s0,4,.09,6c.12,4,.27,8,.7,12A69.64,69.64,0,0,0,112,302.81a26.14,26.14,0,0,0,2.08,5.55A9.94,9.94,0,0,0,118,312.7a9.71,9.71,0,0,1-4.36-4.1,26.44,26.44,0,0,1-2.39-5.58,44.27,44.27,0,0,1-1.37-5.9c-.36-2-.62-4-.82-6-.34-4-.51-8-.47-12.05S108.87,271.05,109.32,267.06Z" style="fill:#263238"></path><path d="M108.42,269.59a11.45,11.45,0,0,1,.44,2,19.45,19.45,0,0,1,.19,2.06,5,5,0,0,1-.69-2A6.24,6.24,0,0,1,108.42,269.59Z" style="fill:#263238"></path><path d="M351.63,408c-1,2.39-47.4,55.3-50.44,56.2-1.15.34-9.25-6-18.82-13.86-2.07-1.71-4.19-3.48-6.34-5.3-13.95-11.76-28.48-24.56-28.48-24.56L278.48,385l27.63,25.54,6.07,5.6S339,403.8,342.45,403.17,352.63,405.58,351.63,408Z" style="fill:#ad6359"></path><path d="M351.63,408c-1,2.39-47.4,55.3-50.44,56.2-1.41.41-13.07-9-25.16-19.16l30.08-34.5,6.07,5.6S339,403.8,342.45,403.17,352.63,405.58,351.63,408Z" style="fill:#fff"></path><path d="M351.63,408c-1,2.39-47.4,55.3-50.44,56.2-1.15.34-9.25-6-18.82-13.86l29.81-34.2S339,403.8,342.45,403.17,352.63,405.58,351.63,408Z" style="fill:#37474f"></path><path d="M348.85,406.87c-8,8.68-39.42,44.44-46.67,53.62-.05.08,0,.12.06.05,8.11-8.43,39.25-44.44,46.76-53.54C349.15,406.81,349,406.69,348.85,406.87Z" style="fill:#263238"></path><path d="M337.56,404.91a9.43,9.43,0,0,0-2.48,7.2,9.14,9.14,0,0,0,3,6.13c.06.05.14-.05.1-.1a11,11,0,0,1-.5-13.14A.07.07,0,1,0,337.56,404.91Z" style="fill:#263238"></path><path d="M316.08,413.44c-3.16,3.51-5.52,8.72-4.55,13.48,0,.18.3.12.34,0a65.17,65.17,0,0,1,4.7-13.12A.3.3,0,0,0,316.08,413.44Z" style="fill:#263238"></path><path d="M319.55,411.64c-3.16,3.51-5.52,8.72-4.55,13.47,0,.19.3.13.34,0A65.48,65.48,0,0,1,320,412,.3.3,0,0,0,319.55,411.64Z" style="fill:#263238"></path><path d="M323,409.84c-3.16,3.5-5.52,8.72-4.55,13.47,0,.18.3.13.34,0a65.17,65.17,0,0,1,4.7-13.12A.3.3,0,0,0,323,409.84Z" style="fill:#263238"></path><path d="M326.49,408c-3.16,3.51-5.51,8.72-4.55,13.48,0,.18.3.12.34,0A64.6,64.6,0,0,1,327,408.36.3.3,0,0,0,326.49,408Z" style="fill:#263238"></path><path d="M295.74,450.84c-3.48,4,2.72,9.41,6.21,5.41S299.23,446.84,295.74,450.84Z" style="fill:#fff"></path><path d="M310,401.3c-3.06.49-3.59,4-3,6.5A24.89,24.89,0,0,0,313.2,419a.13.13,0,0,0,.2,0,.58.58,0,0,0,.85-.39c.47-4.06,1.47-8.34.68-12.42C314.47,403.76,312.87,400.84,310,401.3Zm3.73,11c-.18,2-.46,4-.57,6-1.21-2.18-2.51-4.3-3.51-6.61a27.56,27.56,0,0,1-1.25-3.39c-.5-1.8-.41-7.89,3.76-4.86C314.43,405.08,313.91,409.89,313.7,412.27Z" style="fill:#263238"></path><path d="M306.78,429c3.19-2.68,5.1-6.64,7.3-10.09a.58.58,0,0,0-.42-.83.12.12,0,0,0-.14-.14,24.76,24.76,0,0,0-11.89,4.75c-2,1.56-3.82,4.64-1.75,7S304.92,430.52,306.78,429Zm-3.9.37c-5.15-.27-1.38-5.06.13-6.14a27.23,27.23,0,0,1,3.12-1.85,72.84,72.84,0,0,1,6.88-2.93c-1.18,1.63-2.21,3.34-3.33,5C308.35,425.41,305.72,429.47,302.88,429.33Z" style="fill:#263238"></path><path d="M304.81,404.9,272.5,444.84,172.39,368.89l-9.65-7.33s-2.9,1.78-7.24,3.94c-6,3-14.83,6.76-22.51,7.56-12.88,1.35-32.18.33-42.36-14.56-8.58-12.54-5-28.27-5-28.27l14.32-5.44s34.45-26.31,56-26.23c9.17,0,22.2,7.53,34.24,15.3S304.81,404.9,304.81,404.9Z" style="fill:#263238"></path><path d="M162.74,361.56s-2.9,1.78-7.24,3.94c-7.11-9.29-22.28-26.26-22.74-26.86Z" style="fill:#37474f"></path><path d="M112.49,316c-2,1.3-4,2.69-6,4s-4,2.54-5.94,4-3.77,3.05-5.6,4.64c-.88.77-1.75,1.55-2.61,2.35a22.79,22.79,0,0,0-2.51,2.5c-.06.08.06.19.14.14a27.78,27.78,0,0,0,2.76-2l2.88-2.25c1.85-1.45,3.74-2.85,5.59-4.3s3.55-3,5.37-4.48,4-3,6-4.48A0,0,0,0,0,112.49,316Z" style="fill:#37474f"></path><path d="M297.7,403.12c-2.08,2.06-4,4.28-6,6.46s-3.89,4.39-5.82,6.6c-3.86,4.43-7.75,8.83-11.55,13.3-2.09,2.46-4.15,4.94-6.1,7.51-.09.11.09.26.19.16,4.13-4.17,7.93-8.65,11.78-13.07s7.71-8.86,11.5-13.35c2.08-2.46,4.21-4.9,6.14-7.47C298,403.15,297.79,403,297.7,403.12Z" style="fill:#37474f"></path><path d="M219.21,404.29c-5-4.26-16.3-12.65-21.46-16.67s-10.26-8-15.48-11.9c-1.49-1.12-3-2.21-4.52-3.31s-3.08-2.12-4.55-3.26c-.09-.06-.17.08-.09.15,1.35,1.06,2.62,2.23,3.95,3.33s2.53,2.11,3.8,3.14c2.5,2,5,4,7.54,6q7.66,6,15.46,11.93c3,2.21,12.08,8.79,15.1,10.9C219.14,404.72,219.38,404.44,219.21,404.29Z" style="fill:#37474f"></path><path d="M253.38,363.05c-4.57-4.13-15.06-12.14-19.88-16s-9.71-7.81-14.61-11.67l-14.56-11.5c-4.7-3.71-9.38-7.48-14.38-10.81-2.73-1.82-5.54-3.52-8.44-5.06a57,57,0,0,0-8.77-4,.08.08,0,0,0-.07.15c2.47,1.52,5.07,2.82,7.57,4.29s4.9,3,7.29,4.57c5,3.3,9.61,7,14.29,10.68,9.72,7.64,19.42,15.31,29.22,22.85,5.48,4.22,16.39,12.92,22.11,16.82C253.32,363.48,253.55,363.2,253.38,363.05Z" style="fill:#37474f"></path></g><g id="freepik--speech-bubbles--inject-109"><path d="M169.58,210.4a12.85,12.85,0,0,1-2.19-7.08c0-9,9.84-16.22,22-16.22s22,7.26,22,16.22-9.83,16.23-22,16.23a26.34,26.34,0,0,1-15.15-4.49L166.64,217Z" style="fill:#fffefd"></path><path d="M169.58,210.4a12.53,12.53,0,0,1-.58-13.61,17.26,17.26,0,0,1,4.84-5.3,23.39,23.39,0,0,1,6.4-3.29,29.82,29.82,0,0,1,7.06-1.44,31,31,0,0,1,7.2.35,25.49,25.49,0,0,1,6.9,2.15,21.42,21.42,0,0,1,6,4.11,15.34,15.34,0,0,1,3.86,6.18,12.52,12.52,0,0,1,.07,7.3,15.15,15.15,0,0,1-3.77,6.24,21.43,21.43,0,0,1-5.91,4.18,28.27,28.27,0,0,1-14.08,2.58,26.13,26.13,0,0,1-13.47-4.6l.19,0-7.59,1.82-.25.06.11-.22Zm0,0L166.75,217l-.14-.16,7.54-2,.1,0,.09.06a25.75,25.75,0,0,0,13.25,4.26,28.72,28.72,0,0,0,7-.49,25,25,0,0,0,6.65-2.16,20.21,20.21,0,0,0,5.64-4,14.1,14.1,0,0,0,3.5-5.85,11.59,11.59,0,0,0-.09-6.75,14.2,14.2,0,0,0-3.59-5.79A22.94,22.94,0,0,0,194.35,188a29.32,29.32,0,0,0-13.89.89A19.87,19.87,0,0,0,169.37,197a12.6,12.6,0,0,0-1.86,6.69A13.06,13.06,0,0,0,169.58,210.4Z" style="fill:#263238"></path><path d="M197.26,203.32a2.28,2.28,0,1,0,2.28-2.28A2.28,2.28,0,0,0,197.26,203.32Z" style="fill:#263238"></path><path d="M187.08,203.32a2.28,2.28,0,1,0,2.28-2.28A2.28,2.28,0,0,0,187.08,203.32Z" style="fill:#263238"></path><path d="M176.9,203.32a2.28,2.28,0,1,0,2.28-2.28A2.28,2.28,0,0,0,176.9,203.32Z" style="fill:#263238"></path><path d="M370,80.63a12.79,12.79,0,0,0,2.19-7.07c0-9-9.84-16.23-22-16.23s-22,7.27-22,16.23,9.83,16.22,22,16.22a26.34,26.34,0,0,0,15.15-4.49L373,87.22Z" style="fill:#fffefd"></path><path d="M370,80.63a13,13,0,0,0,2.06-6.69,12.57,12.57,0,0,0-1.85-6.69,19.92,19.92,0,0,0-11.09-8.15,29.33,29.33,0,0,0-13.89-.89,23,23,0,0,0-12.34,6.07,14.23,14.23,0,0,0-3.59,5.8,11.55,11.55,0,0,0-.09,6.74,14.1,14.1,0,0,0,3.5,5.86,20.38,20.38,0,0,0,5.64,4A25.46,25.46,0,0,0,345,88.88a29.87,29.87,0,0,0,7,.49,25.84,25.84,0,0,0,13.25-4.26l.09-.06.1,0,7.54,2-.14.17Zm0,0,3.05,6.54.11.22-.25,0-7.59-1.82.18,0a26.07,26.07,0,0,1-13.47,4.6A28.24,28.24,0,0,1,338,87.51a21.12,21.12,0,0,1-5.91-4.19,15.18,15.18,0,0,1-3.77-6.23,12.44,12.44,0,0,1,.07-7.3,15.21,15.21,0,0,1,3.86-6.18,21.52,21.52,0,0,1,6-4.12,25.71,25.71,0,0,1,6.9-2.14,30,30,0,0,1,7.2-.35,29.33,29.33,0,0,1,7.06,1.44,23.09,23.09,0,0,1,6.4,3.28A17.31,17.31,0,0,1,370.6,67a12.51,12.51,0,0,1-.58,13.6Z" style="fill:#263238"></path><path d="M342.34,73.56a2.28,2.28,0,1,1-2.28-2.28A2.28,2.28,0,0,1,342.34,73.56Z" style="fill:#263238"></path><path d="M352.52,73.56a2.28,2.28,0,1,1-2.28-2.28A2.28,2.28,0,0,1,352.52,73.56Z" style="fill:#263238"></path><path d="M362.7,73.56a2.28,2.28,0,1,1-2.28-2.28A2.28,2.28,0,0,1,362.7,73.56Z" style="fill:#263238"></path></g><g id="freepik--Chart--inject-109"><path d="M223.76,60.54c15.09-.11,30.17-.08,45.26-.13s30.18,0,45.27.13c-15.09.11-30.18.09-45.27.13S238.85,60.65,223.76,60.54Z" style="fill:#455a64"></path><path d="M223.76,71.37c15.09-.11,30.17-.08,45.26-.13s30.18,0,45.27.13c-15.09.12-30.18.09-45.27.13S238.85,71.49,223.76,71.37Z" style="fill:#455a64"></path><path d="M223.76,82.2c15.09-.11,30.17-.08,45.26-.13s30.18,0,45.27.13c-15.09.12-30.18.09-45.27.14S238.85,82.32,223.76,82.2Z" style="fill:#455a64"></path><path d="M223.76,93c15.09-.12,30.17-.09,45.26-.13s30.18,0,45.27.13c-15.09.11-30.18.08-45.27.13S238.85,93.15,223.76,93Z" style="fill:#455a64"></path><path d="M223.76,103.87c15.09-.11,30.17-.09,45.26-.13s30.18,0,45.27.13c-15.09.11-30.18.09-45.27.13S238.85,104,223.76,103.87Z" style="fill:#455a64"></path><path d="M242,53.5c.13,10.12.09,20.24.15,30.36s0,20.24-.15,30.37c-.14-10.13-.1-20.25-.16-30.37S241.85,63.62,242,53.5Z" style="fill:#455a64"></path><path d="M257.64,53.5c.13,10.12.1,20.24.15,30.36s0,20.24-.15,30.37c-.13-10.13-.1-20.25-.15-30.37S257.51,63.62,257.64,53.5Z" style="fill:#455a64"></path><path d="M273.3,53.5c.13,10.12.09,20.24.15,30.36s0,20.24-.15,30.37c-.14-10.13-.1-20.25-.16-30.37S273.16,63.62,273.3,53.5Z" style="fill:#455a64"></path><path d="M289,53.5c.13,10.12.1,20.24.15,30.36s0,20.24-.15,30.37c-.13-10.13-.1-20.25-.15-30.37S288.82,63.62,289,53.5Z" style="fill:#455a64"></path><path d="M304.61,53.5c.13,10.12.09,20.24.15,30.36s0,20.24-.15,30.37c-.14-10.13-.1-20.25-.16-30.37S304.47,63.62,304.61,53.5Z" style="fill:#455a64"></path><path d="M226,96c2.76,0,4.41-11,8.32-11s4.33,8,7.63,8,3.19-14.1,7.62-14.1,3.4,5.72,8,5.72,2.88-13.29,7.72-13.29,2.89,18.3,7.94,18.3c3.19,0,4.42-5.81,8.23-5.81,2.53,0,4,2.91,7.31,2.91s4-11.18,8.14-11.18,4.59,6.61,7.63,6.61,4.11-10.83,9.68-10.83v42.86H226Z" style="fill:#FFC727;opacity:0.5"></path><path d="M226,96.54V95.48c.84,0,2-2.57,2.83-4.44,1.45-3.23,2.94-6.56,5.49-6.56s3.67,2.44,4.75,4.59c.84,1.69,1.71,3.44,2.87,3.44s1.93-3.39,2.58-5.86c1.07-4.05,2.17-8.24,5.05-8.24,2.56,0,3.57,1.64,4.45,3.09s1.61,2.63,3.58,2.63c1.78,0,2.48-3.11,3.15-6.11.8-3.53,1.62-7.18,4.57-7.18s3.69,4.6,4.48,9.47c.65,3.94,1.44,8.84,3.46,8.84,1.2,0,2.18-1.21,3.22-2.49,1.26-1.56,2.7-3.33,5-3.33a6.36,6.36,0,0,1,3.53,1.42,6.7,6.7,0,0,0,3.78,1.49c1.15,0,2.19-2.66,3-4.8,1.23-3.13,2.5-6.38,5.11-6.38s3.87,2.11,5,4c.83,1.36,1.6,2.65,2.63,2.65.87,0,1.85-2.06,2.72-3.88,1.49-3.1,3.34-7,7-7V71.9c-2.79,0-4.39,3.35-5.81,6.3-1.21,2.54-2.17,4.53-3.87,4.53s-2.73-1.56-3.73-3.21-2.06-3.4-3.9-3.4-2.9,3-3.94,5.66c-1.16,3-2.16,5.52-4.2,5.52a7.85,7.85,0,0,1-4.54-1.71,5.26,5.26,0,0,0-2.77-1.2c-1.66,0-2.85,1.46-4,2.87s-2.39,2.94-4.24,2.94c-3.09,0-3.87-4.73-4.68-9.75-.63-3.81-1.4-8.55-3.26-8.55s-2.68,3.36-3.35,6.32c-.81,3.58-1.57,7-4.37,7s-3.76-1.7-4.67-3.2c-.83-1.35-1.55-2.53-3.36-2.53s-3,4.12-3.84,7.42c-1,3.74-1.76,6.69-3.79,6.69s-3-2-4-4.08c-1-1.94-2-3.95-3.61-3.95S231.2,88.8,230,91.41C228.74,94.28,227.73,96.54,226,96.54Z" style="fill:#FFC727"></path><path d="M226,54.16c.1,10,.19,20,.19,30l.1,30L226,114l44.12.06,22.06,0,22.07.14-22.07.13-22.06,0-44.12.06h-.29v-.24l.09-30C225.85,74.18,225.94,64.17,226,54.16Z" style="fill:#455a64"></path><path d="M243.66,93A1.68,1.68,0,1,1,242,91.28,1.67,1.67,0,0,1,243.66,93Z" style="fill:#fff"></path><path d="M243.66,93a1.8,1.8,0,0,1-3.6,0,1.84,1.84,0,0,1,.58-1.35,1.87,1.87,0,0,1,1.35-.46A1.81,1.81,0,0,1,243.66,93Zm0,0a1.54,1.54,0,1,0-.51,1.16A1.59,1.59,0,0,0,243.66,93Z" style="fill:#a6a6a6"></path><path d="M259.32,84.57a1.68,1.68,0,1,1-1.68-1.67A1.68,1.68,0,0,1,259.32,84.57Z" style="fill:#fff"></path><path d="M259.32,84.57a1.81,1.81,0,0,1-1.68,1.81,1.81,1.81,0,0,1-1.93-1.81,1.8,1.8,0,0,1,1.93-1.8A1.81,1.81,0,0,1,259.32,84.57Zm0,0a1.56,1.56,0,1,0-.52,1.17A1.55,1.55,0,0,0,259.32,84.57Z" style="fill:#a6a6a6"></path><circle cx="273.3" cy="89.59" r="1.68" style="fill:#fff"></circle><path d="M275,89.59a1.82,1.82,0,0,1-1.67,1.81,1.81,1.81,0,0,1-1.93-1.81,1.78,1.78,0,0,1,1.93-1.8A1.81,1.81,0,0,1,275,89.59Zm0,0A1.54,1.54,0,0,0,273.3,88a1.56,1.56,0,0,0,0,3.11,1.58,1.58,0,0,0,1.16-.39A1.6,1.6,0,0,0,275,89.59Z" style="fill:#a6a6a6"></path><path d="M290.63,86.68A1.68,1.68,0,1,1,289,85,1.68,1.68,0,0,1,290.63,86.68Z" style="fill:#fff"></path><path d="M290.63,86.68a1.81,1.81,0,1,1-3-1.34,1.8,1.8,0,0,1,3,1.34Zm0,0a1.56,1.56,0,1,0-3.11,0,1.56,1.56,0,0,0,3.11,0Z" style="fill:#a6a6a6"></path><path d="M306.13,82.07a1.68,1.68,0,1,1-1.68-1.68A1.68,1.68,0,0,1,306.13,82.07Z" style="fill:#fff"></path><path d="M306.13,82.07a1.81,1.81,0,1,1-3.61,0,1.8,1.8,0,0,1,1.93-1.8A1.81,1.81,0,0,1,306.13,82.07Zm0,0a1.56,1.56,0,0,0-1.68-1.55,1.56,1.56,0,1,0,1.68,1.55Z" style="fill:#a6a6a6"></path></g></svg>